<?xml version="1.0" encoding="utf-8"?>
<!-- Generator: Adobe Illustrator 16.0.3, SVG Export Plug-In . SVG Version: 6.00 Build 0)  -->
<!DOCTYPE svg PUBLIC "-//W3C//DTD SVG 1.1//EN" "http://www.w3.org/Graphics/SVG/1.1/DTD/svg11.dtd">
<svg version="1.1" id="Capa_1" xmlns="http://www.w3.org/2000/svg" xmlns:xlink="http://www.w3.org/1999/xlink" x="0px" y="0px"
	 width="85.039px" height="85.039px" viewBox="0 0 85.039 85.039" enable-background="new 0 0 85.039 85.039" xml:space="preserve">
<circle fill="#222222" cx="42.52" cy="42.52" r="42.52"/>
<path fill="#C7A044" d="M61.975,47.248c-1.283,0-1.706,0.534-1.834,0.982c-0.018,0.062-0.025,0.126-0.025,0.19
	c0,5.222-1.719,9.51-5.104,12.744c-3.396,3.241-7.392,4.886-11.873,4.886c-4.51,0-8.084-1.001-10.624-2.977
	c-2.522-1.962-3.748-4.857-3.748-8.854c0-3.971,1.423-6.823,4.351-8.718c2.981-1.93,6.895-2.908,11.632-2.908
	c1.747,0,2.75-0.902,2.75-2.476c0-0.821-0.33-1.482-0.954-1.911c-0.551-0.376-1.155-0.566-1.796-0.566
	c-8.816,0-13.1-3.118-13.1-9.532c0-3.024,0.888-5.33,2.643-6.854c1.783-1.549,4.124-2.334,6.957-2.334
	c2.868,0,5.21,0.584,6.963,1.736c1.684,1.111,2.501,2.74,2.501,4.981c0,0.913-0.122,1.681-0.363,2.283
	c-0.083,0.211-0.06,0.451,0.066,0.641c0.501,0.75,1.456,1.13,2.843,1.13c0.873,0,1.73-0.414,2.547-1.231
	c0.817-0.818,1.232-1.905,1.232-3.233c0-3.044-1.369-5.686-4.068-7.849c-2.655-2.128-6.609-3.207-11.755-3.207
	c-5.14,0-9.331,1.19-12.458,3.536c-3.189,2.391-4.807,5.891-4.807,10.4c0,2.093,0.329,3.979,0.977,5.608
	c0.65,1.641,1.434,2.902,2.308,3.728c1.103,1.129,2.339,2.001,3.698,2.607c-0.927,0.275-1.876,0.667-2.845,1.173
	c-1.248,0.673-2.379,1.523-3.356,2.527c-0.998,1.023-1.868,2.462-2.585,4.277c-0.715,1.811-1.078,3.905-1.078,6.226
	c0,5.248,2.119,9.388,6.301,12.301c4.103,2.86,9.258,4.311,15.321,4.311c3.372,0,6.49-0.621,9.27-1.844
	c2.783-1.229,5.06-2.859,6.763-4.847c3.48-4.045,5.246-8.745,5.246-13.971C63.97,47.633,62.718,47.248,61.975,47.248z"/>
</svg>
