<svg width="185" height="81" viewBox="0 0 185 81" fill="none" xmlns="http://www.w3.org/2000/svg">
<path d="M42.8845 75.7261C43.3486 75.7261 43.7308 75.7761 44.0221 75.8762C44.3133 75.9763 44.5272 76.1219 44.6682 76.3176C44.8093 76.5133 44.8775 76.7544 44.8775 77.0457C44.8775 77.2504 44.8366 77.4325 44.7547 77.5917C44.6728 77.751 44.559 77.8784 44.4088 77.9785C44.2587 78.0786 44.0858 78.1469 43.8856 78.1833V78.2106C44.1085 78.247 44.3042 78.3107 44.468 78.4062C44.6318 78.5018 44.7592 78.6292 44.8502 78.7976C44.9412 78.966 44.9867 79.1753 44.9867 79.4301C44.9867 79.9261 44.8138 80.2992 44.4635 80.554C44.1131 80.8043 43.6535 80.9317 43.0756 80.9317H41.2827V75.7306H42.8845V75.7261ZM42.9573 77.9421C43.3486 77.9421 43.6307 77.8738 43.8036 77.7373C43.972 77.6008 44.0585 77.4006 44.0585 77.1321C44.0585 76.8637 43.9629 76.668 43.7672 76.5406C43.5716 76.4132 43.2803 76.3495 42.8845 76.3495H42.0745V77.9421H42.9573ZM43.0392 80.2947C43.426 80.2947 43.7126 80.2173 43.8992 80.058C44.0858 79.8988 44.1768 79.6713 44.1768 79.3755C44.1768 79.107 44.0812 78.8977 43.8856 78.7475C43.6899 78.5974 43.3896 78.52 42.9755 78.52H42.0745V80.2947H43.0392Z" fill="#C7A045"/>
<path d="M46.2654 80.9226L48.2312 75.7033H49.1321L51.0706 80.9226H50.1969L49.6782 79.4392H47.6897L47.1436 80.9226H46.2654ZM48.9365 77.3233C48.9046 77.2368 48.8728 77.1504 48.8409 77.0548C48.8091 76.9592 48.7772 76.8637 48.7499 76.7681C48.7226 76.6726 48.6953 76.5725 48.6726 76.4769C48.6498 76.5725 48.6225 76.668 48.5952 76.7636C48.5679 76.8591 48.5406 76.9501 48.5087 77.0457C48.4769 77.1413 48.445 77.2368 48.4086 77.3324L47.899 78.7794H49.4325L48.9365 77.3233Z" fill="#C7A045"/>
<path d="M54.0648 75.7261C54.7428 75.7261 55.2479 75.8535 55.5801 76.1037C55.9123 76.354 56.0761 76.7226 56.0761 77.2095C56.0761 77.5417 55.9942 77.8284 55.8304 78.0741C55.6665 78.3152 55.4072 78.4973 55.0477 78.6201L56.4947 80.9272H55.5892L54.3424 78.8203H53.405V80.9272H52.6132V75.7261H54.0648ZM54.1285 78.1787C54.488 78.1787 54.7656 78.1059 54.9658 77.9603C55.166 77.8147 55.2661 77.5826 55.2661 77.2686C55.2661 76.9365 55.1614 76.6998 54.9567 76.5633C54.7519 76.4268 54.4516 76.3586 54.0557 76.3586H53.4095V78.1787H54.1285Z" fill="#C7A045"/>
<path d="M59.5799 75.7261C60.2579 75.7261 60.763 75.8535 61.0952 76.1037C61.4274 76.354 61.5912 76.7226 61.5912 77.2095C61.5912 77.5417 61.5093 77.8284 61.3455 78.0741C61.1816 78.3152 60.9223 78.4973 60.5628 78.6201L62.0098 80.9272H61.1088L59.862 78.8203H58.9246V80.9272H58.1329V75.7261H59.5799ZM59.6436 78.1787C60.0031 78.1787 60.2807 78.1059 60.4809 77.9603C60.6811 77.8147 60.7812 77.5826 60.7812 77.2686C60.7812 76.9365 60.6766 76.6998 60.4718 76.5633C60.267 76.4268 59.9667 76.3586 59.5708 76.3586H58.9246V78.1787H59.6436Z" fill="#C7A045"/>
<path d="M62.9791 80.9226L64.9448 75.7033H65.8458L67.7797 80.9226H66.9061L66.3873 79.4392H64.3988L63.8527 80.9226H62.9791ZM65.6502 77.3233C65.6183 77.2368 65.5864 77.1504 65.5546 77.0548C65.5227 76.9592 65.4909 76.8637 65.4636 76.7681C65.4363 76.6726 65.409 76.5725 65.3862 76.4769C65.3635 76.5725 65.3362 76.668 65.3089 76.7636C65.2816 76.8591 65.2543 76.9501 65.2224 77.0457C65.1906 77.1413 65.1587 77.2368 65.1223 77.3324L64.6127 78.7794H66.1507L65.6502 77.3233Z" fill="#C7A045"/>
<path d="M72.4621 79.4893C72.4621 79.7851 72.3848 80.049 72.2346 80.2765C72.0845 80.504 71.866 80.6815 71.5839 80.8089C71.3018 80.9363 70.9651 81 70.5692 81C70.3462 81 70.1414 80.9909 69.9594 80.9727C69.7774 80.9545 69.6136 80.9272 69.4634 80.8863C69.3133 80.8453 69.1722 80.7998 69.0311 80.7452V80.0171C69.2541 80.1218 69.4998 80.1991 69.7637 80.2583C70.0277 80.3175 70.2961 80.3448 70.5692 80.3448C70.8877 80.3448 71.1516 80.2765 71.3518 80.14C71.5521 80.0035 71.6522 79.8078 71.6522 79.553C71.6522 79.3755 71.6067 79.2345 71.5157 79.1252C71.4246 79.016 71.2881 78.9159 71.1107 78.8295C70.9332 78.743 70.7102 78.652 70.4509 78.561C70.1596 78.4518 69.9139 78.3335 69.7091 78.2106C69.5044 78.0878 69.3497 77.933 69.245 77.751C69.1403 77.569 69.0857 77.3369 69.0857 77.0594C69.0857 76.7545 69.1631 76.4997 69.3224 76.2903C69.4816 76.081 69.6955 75.9218 69.964 75.8125C70.2324 75.7033 70.5373 75.6487 70.8786 75.6487C71.1653 75.6487 71.4292 75.6806 71.684 75.7397C71.9343 75.7989 72.1664 75.8763 72.3802 75.9673L72.1254 76.5952C71.907 76.4997 71.6931 76.4223 71.4747 76.3722C71.2608 76.3222 71.0561 76.2949 70.8604 76.2949C70.5646 76.2949 70.328 76.3586 70.146 76.486C69.9685 76.6134 69.8775 76.7954 69.8775 77.0321C69.8775 77.2095 69.923 77.3506 70.014 77.4598C70.105 77.569 70.2415 77.6646 70.419 77.7419C70.5965 77.8193 70.8103 77.9103 71.0606 78.0059C71.3336 78.1105 71.5748 78.2197 71.7887 78.3426C72.0026 78.4654 72.1664 78.6156 72.2847 78.7931C72.403 78.9705 72.4621 79.2026 72.4621 79.4893Z" fill="#C7A045"/>
<path d="M81.7677 78.2606C81.7677 78.8476 81.6585 79.3391 81.4446 79.735C81.2308 80.1309 80.9168 80.4266 80.5073 80.6268C80.0977 80.8271 79.6017 80.9272 79.0193 80.9272H77.5722V75.7261H79.1558C80.0022 75.7261 80.6529 75.9445 81.0942 76.3768C81.5447 76.8091 81.7677 77.437 81.7677 78.2606ZM80.9395 78.2879C80.9395 77.6554 80.7848 77.1822 80.4754 76.8637C80.166 76.5451 79.7155 76.3859 79.1194 76.3859H78.364V80.2583H79.0193C79.6654 80.2583 80.1478 80.0945 80.4663 79.7668C80.7848 79.4437 80.9395 78.9478 80.9395 78.2879Z" fill="#C7A045"/>
<path d="M83.7517 75.7261H86.7322V76.3722H84.5435V77.9103H86.5957V78.5473H84.5435V80.2856H86.7322V80.9317H83.7517V75.7261Z" fill="#C7A045"/>
<path d="M95.0686 79.4893C95.0686 79.7851 94.9912 80.049 94.8411 80.2765C94.6909 80.504 94.4725 80.6815 94.1903 80.8089C93.9082 80.9363 93.5715 81 93.1756 81C92.9526 81 92.7479 80.9909 92.5659 80.9727C92.3838 80.9545 92.22 80.9272 92.0699 80.8863C91.9197 80.8453 91.7786 80.7998 91.6376 80.7452V80.0171C91.8605 80.1218 92.1063 80.1991 92.3702 80.2583C92.6341 80.3175 92.9026 80.3448 93.1756 80.3448C93.4941 80.3448 93.7581 80.2765 93.9583 80.14C94.1585 80.0035 94.2586 79.8078 94.2586 79.553C94.2586 79.3755 94.2131 79.2345 94.1221 79.1252C94.0311 79.016 93.8946 78.9159 93.7171 78.8295C93.5396 78.743 93.3167 78.652 93.0573 78.561C92.7661 78.4518 92.5203 78.3335 92.3156 78.2106C92.1108 78.0878 91.9561 77.933 91.8514 77.751C91.7468 77.569 91.6922 77.3369 91.6922 77.0594C91.6922 76.7545 91.7695 76.4997 91.9288 76.2903C92.0881 76.081 92.3019 75.9218 92.5704 75.8125C92.8389 75.7033 93.1438 75.6487 93.485 75.6487C93.7717 75.6487 94.0356 75.6806 94.2905 75.7397C94.5407 75.7989 94.7728 75.8763 94.9867 75.9673L94.7318 76.5952C94.5134 76.4997 94.2996 76.4223 94.0811 76.3722C93.8673 76.3222 93.6625 76.2949 93.4668 76.2949C93.1711 76.2949 92.9344 76.3586 92.7524 76.486C92.575 76.6134 92.4839 76.7954 92.4839 77.0321C92.4839 77.2095 92.5295 77.3506 92.6205 77.4598C92.7115 77.569 92.848 77.6646 93.0254 77.7419C93.2029 77.8193 93.4168 77.9103 93.6671 78.0059C93.9401 78.1105 94.1813 78.2197 94.3951 78.3426C94.609 78.4654 94.7728 78.6156 94.8911 78.7931C95.0094 78.9705 95.0686 79.2026 95.0686 79.4893Z" fill="#C7A045"/>
<path d="M101.248 75.7261V80.9272H100.274L97.6395 76.7089H97.6031C97.6077 76.7863 97.6168 76.8819 97.6213 76.9911C97.6259 77.1003 97.635 77.214 97.6395 77.3278C97.6441 77.4416 97.6486 77.5553 97.6532 77.6691C97.6578 77.7828 97.6578 77.8875 97.6578 77.9831V80.9272H96.9388V75.7261H97.9126L100.538 79.9261H100.565C100.561 79.8578 100.552 79.7805 100.547 79.6849C100.543 79.5893 100.538 79.4892 100.534 79.38C100.529 79.2708 100.529 79.1571 100.529 79.0433C100.529 78.9296 100.529 78.8158 100.529 78.7066V75.7261H101.248Z" fill="#C7A045"/>
<path d="M102.809 80.9226L104.775 75.7033H105.676L107.614 80.9226H106.74L106.222 79.4392H104.233L103.687 80.9226H102.809ZM105.484 77.3233C105.453 77.2368 105.421 77.1504 105.389 77.0548C105.357 76.9592 105.325 76.8637 105.298 76.7681C105.271 76.6726 105.243 76.5725 105.221 76.4769C105.198 76.5725 105.17 76.668 105.143 76.7636C105.116 76.8591 105.089 76.9501 105.057 77.0457C105.025 77.1413 104.993 77.2368 104.957 77.3324L104.447 78.7794H105.98L105.484 77.3233Z" fill="#C7A045"/>
<path d="M111.364 76.3222C111 76.3222 110.69 76.4041 110.435 76.5679C110.18 76.7317 109.985 76.9638 109.853 77.2641C109.721 77.5645 109.653 77.9194 109.653 78.3244C109.653 78.9478 109.794 79.4392 110.076 79.7942C110.358 80.1491 110.786 80.3266 111.354 80.3266C111.577 80.3266 111.796 80.3038 112.005 80.2583C112.215 80.2128 112.419 80.1491 112.62 80.0717V80.7725C112.424 80.8499 112.215 80.909 111.982 80.9454C111.75 80.9818 111.505 81 111.236 81C110.695 81 110.249 80.8863 109.889 80.6633C109.53 80.4403 109.266 80.1263 109.084 79.7214C108.906 79.3164 108.815 78.8522 108.815 78.3153C108.815 77.792 108.915 77.3324 109.12 76.9319C109.325 76.5315 109.616 76.2175 109.994 75.99C110.372 75.7625 110.822 75.6487 111.345 75.6487C111.605 75.6487 111.864 75.676 112.114 75.7306C112.365 75.7853 112.606 75.8671 112.829 75.9764L112.565 76.6225C112.378 76.5315 112.183 76.4587 111.982 76.4041C111.782 76.3495 111.577 76.3222 111.364 76.3222Z" fill="#C7A045"/>
<path d="M114.626 75.7261H115.427V78.2515C115.482 78.1833 115.536 78.1196 115.595 78.0513C115.655 77.9831 115.714 77.9148 115.773 77.8466C115.832 77.7783 115.891 77.71 115.946 77.6418L117.63 75.7261H118.54L116.583 77.9785L118.553 80.9226H117.634L116.005 78.4882L115.423 78.9523V80.9226H114.622V75.7261H114.626Z" fill="#C7A045"/>
<path d="M126.981 75.7261L125.233 78.9068V80.9226H124.423V78.9432L122.676 75.7261H123.55L124.833 78.206L126.125 75.7261H126.981Z" fill="#C7A045"/>
<path d="M137.114 75.7261V80.9272H136.368V77.6645C136.368 77.5417 136.368 77.4097 136.373 77.2595C136.377 77.1094 136.382 76.9729 136.386 76.8455C136.391 76.718 136.4 76.6225 136.405 76.5633H136.377L134.775 80.9272H134.084L132.482 76.5542H132.455C132.455 76.6134 132.459 76.7089 132.464 76.8409C132.468 76.9729 132.478 77.1139 132.482 77.2641C132.487 77.4143 132.491 77.5599 132.491 77.7009V80.9272H131.772V75.7261H132.873L134.439 79.9443H134.457L136.013 75.7261H137.114Z" fill="#C7A045"/>
<path d="M143.986 78.3153C143.986 78.8477 143.899 79.3164 143.722 79.7213C143.544 80.1263 143.28 80.4358 142.921 80.6633C142.561 80.8862 142.111 81 141.556 81C141.01 81 140.555 80.8862 140.19 80.6633C139.826 80.4403 139.553 80.1263 139.376 79.7168C139.198 79.3118 139.107 78.8431 139.107 78.3062C139.107 77.7783 139.198 77.3142 139.376 76.9137C139.553 76.5133 139.826 76.2039 140.19 75.9763C140.555 75.7534 141.01 75.6396 141.556 75.6396C142.106 75.6396 142.561 75.7534 142.921 75.9763C143.28 76.1993 143.544 76.5133 143.722 76.9183C143.899 77.3233 143.986 77.7874 143.986 78.3153ZM139.949 78.3153C139.949 78.7157 140.004 79.0661 140.118 79.3664C140.231 79.6667 140.404 79.8988 140.641 80.0672C140.878 80.2355 141.178 80.3174 141.551 80.3174C141.924 80.3174 142.229 80.2355 142.466 80.0717C142.702 79.9079 142.871 79.6758 142.984 79.3755C143.098 79.0752 143.153 78.7248 143.153 78.3153C143.153 77.6873 143.021 77.1959 142.752 76.8455C142.484 76.4951 142.083 76.3222 141.551 76.3222C141.187 76.3222 140.887 76.4041 140.65 76.5679C140.413 76.7317 140.236 76.9638 140.122 77.2596C140.008 77.5553 139.949 77.9103 139.949 78.3153Z" fill="#C7A045"/>
<path d="M147.576 75.7261C148.044 75.7261 148.422 75.7761 148.713 75.8762C149.005 75.9763 149.218 76.1219 149.36 76.3176C149.501 76.5133 149.569 76.7544 149.569 77.0457C149.569 77.2504 149.528 77.4325 149.446 77.5917C149.364 77.751 149.25 77.8784 149.1 77.9785C148.95 78.0786 148.777 78.1469 148.577 78.1833V78.2106C148.8 78.247 148.995 78.3107 149.159 78.4062C149.323 78.5018 149.451 78.6292 149.542 78.7976C149.633 78.966 149.678 79.1753 149.678 79.4301C149.678 79.9261 149.505 80.2992 149.155 80.554C148.804 80.8043 148.345 80.9317 147.767 80.9317H145.974V75.7306H147.576V75.7261ZM147.649 77.9421C148.044 77.9421 148.327 77.8738 148.495 77.7373C148.663 77.6008 148.75 77.4006 148.75 77.1321C148.75 76.8637 148.654 76.668 148.459 76.5406C148.263 76.4132 147.972 76.3495 147.576 76.3495H146.766V77.9421H147.649ZM147.73 80.2947C148.117 80.2947 148.404 80.2173 148.59 80.058C148.777 79.8988 148.868 79.6713 148.868 79.3755C148.868 79.107 148.773 78.8977 148.577 78.7475C148.381 78.5974 148.081 78.52 147.667 78.52H146.766V80.2947H147.73Z" fill="#C7A045"/>
<path d="M151.293 80.9226V80.4676L151.885 80.322V76.3313L151.293 76.1948V75.7215H153.277V76.1948L152.686 76.3313V80.322L153.277 80.4676V80.9226H151.293Z" fill="#C7A045"/>
<path d="M155.949 75.7261V80.2628H158.265V80.9272H155.157V75.7261H155.949Z" fill="#C7A045"/>
<path d="M159.694 80.9226V80.4676L160.285 80.322V76.3313L159.694 76.1948V75.7215H161.673V76.1948L161.081 76.3313V80.322L161.673 80.4676V80.9226H159.694Z" fill="#C7A045"/>
<path d="M162.883 80.9226L164.849 75.7033H165.75L167.689 80.9226H166.815L166.296 79.4392H164.308L163.762 80.9226H162.883ZM165.559 77.3233C165.527 77.2368 165.495 77.1504 165.463 77.0548C165.432 76.9592 165.4 76.8637 165.372 76.7681C165.345 76.6726 165.318 76.5725 165.295 76.4769C165.272 76.5725 165.245 76.668 165.218 76.7636C165.19 76.8591 165.163 76.9501 165.131 77.0457C165.099 77.1413 165.068 77.2368 165.031 77.3324L164.522 78.7794H166.055L165.559 77.3233Z" fill="#C7A045"/>
<path d="M170.683 75.7261C171.361 75.7261 171.866 75.8535 172.198 76.1037C172.53 76.354 172.694 76.7226 172.694 77.2095C172.694 77.5417 172.612 77.8284 172.448 78.0741C172.284 78.3152 172.025 78.4973 171.666 78.6201L173.113 80.9272H172.212L170.965 78.8203H170.027V80.9272H169.236V75.7261H170.683ZM170.746 78.1787C171.106 78.1787 171.384 78.1059 171.584 77.9603C171.784 77.8147 171.884 77.5826 171.884 77.2686C171.884 76.9365 171.779 76.6998 171.575 76.5633C171.37 76.4268 171.07 76.3586 170.674 76.3586H170.027V78.1787H170.746Z" fill="#C7A045"/>
<path d="M174.419 80.9226V80.4676L175.01 80.322V76.3313L174.419 76.1948V75.7215H176.398V76.1948L175.807 76.3313V80.322L176.398 80.4676V80.9226H174.419Z" fill="#C7A045"/>
<path d="M182.919 78.3153C182.919 78.8477 182.832 79.3164 182.655 79.7213C182.477 80.1263 182.214 80.4358 181.854 80.6633C181.495 80.8862 181.044 81 180.489 81C179.943 81 179.488 80.8862 179.124 80.6633C178.76 80.4403 178.487 80.1263 178.309 79.7168C178.132 79.3118 178.041 78.8431 178.041 78.3062C178.041 77.7783 178.132 77.3142 178.309 76.9137C178.487 76.5133 178.76 76.2039 179.124 75.9763C179.488 75.7534 179.943 75.6396 180.489 75.6396C181.039 75.6396 181.495 75.7534 181.854 75.9763C182.214 76.1993 182.477 76.5133 182.655 76.9183C182.828 77.3233 182.919 77.7874 182.919 78.3153ZM178.883 78.3153C178.883 78.7157 178.937 79.0661 179.051 79.3664C179.165 79.6667 179.338 79.8988 179.574 80.0672C179.811 80.2355 180.111 80.3174 180.484 80.3174C180.857 80.3174 181.162 80.2355 181.399 80.0717C181.636 79.9079 181.804 79.6758 181.918 79.3755C182.031 79.0752 182.086 78.7248 182.086 78.3153C182.086 77.6873 181.954 77.1959 181.686 76.8455C181.417 76.4951 181.017 76.3222 180.484 76.3222C180.12 76.3222 179.82 76.4041 179.583 76.5679C179.347 76.7317 179.169 76.9638 179.056 77.2596C178.942 77.5553 178.883 77.9103 178.883 78.3153Z" fill="#C7A045"/>
<path d="M111.805 44.7059C112.811 44.7059 113.73 44.5239 114.535 44.1644C115.218 43.8596 115.782 43.4773 116.219 43.0223C116.278 43.4955 116.442 43.8778 116.719 44.1599C117.07 44.5194 117.529 44.7014 118.098 44.7014C118.685 44.7014 119.113 44.5194 119.368 44.1599L119.431 44.0689V43.9597V39.1135C119.431 36.7882 119.736 35.1228 120.342 34.1626C120.924 33.2389 121.634 32.793 122.521 32.793C123.422 32.793 123.882 33.8123 123.882 35.8235V39.8461C123.882 41.2522 124.309 42.4216 125.151 43.3226C125.998 44.2327 127.076 44.6923 128.364 44.6923C129.665 44.6923 130.735 44.1189 131.545 42.9904C131.608 42.8994 131.672 42.8084 131.731 42.7129C131.9 43.0177 132.104 43.2908 132.346 43.5274C133.128 44.2964 134.161 44.6877 135.417 44.6877C137.255 44.6877 138.607 43.946 139.449 42.4762C140.204 43.946 141.524 44.6877 143.38 44.6877C144.736 44.6877 145.81 44.1553 146.561 43.0996C146.684 42.9313 146.793 42.7493 146.898 42.5581C147.03 42.7902 147.18 43.0086 147.344 43.2043C148.163 44.1872 149.405 44.6877 151.034 44.6877C152.367 44.6877 153.478 44.1189 154.338 42.995C154.524 42.7493 154.693 42.4899 154.843 42.2123C155.698 43.855 157.191 44.6877 159.284 44.6877C160.149 44.6877 160.931 44.4375 161.609 43.9415C162.101 43.5865 162.515 43.1315 162.856 42.59C163.602 43.9824 164.886 44.6832 166.683 44.6832C168.039 44.6832 169.113 44.1508 169.864 43.0951C170.592 42.0758 170.96 40.7152 170.96 39.0407C170.96 38.5356 170.96 37.1978 170.109 37.1978C169.541 37.1978 169.381 37.4435 169.349 37.6528L169.345 37.6801V37.7074C169.345 41.1475 168.562 42.8949 167.02 42.8949C166.551 42.8949 166.201 42.6856 165.918 42.2351C165.614 41.7436 165.459 40.9837 165.459 39.9781V31.8692V31.7282L165.359 31.6281C165.031 31.3004 164.544 31.1321 163.912 31.1321C163.379 31.1321 162.947 31.355 162.642 31.7782C162.019 31.3505 161.122 31.1321 159.957 31.1321C158.169 31.1321 156.713 31.6918 155.621 32.793C154.565 33.8578 154.015 35.4959 153.983 37.6664L153.978 37.6756V37.7393C153.978 39.6049 153.687 40.9564 153.104 41.7618C152.549 42.5308 151.967 42.9222 151.371 42.9222C150.761 42.9222 150.292 42.6992 149.942 42.2351C149.573 41.7527 149.387 41.0019 149.387 40.0054V32.5973C150.324 32.0057 151.166 31.1366 151.899 30.0127C152.677 28.8114 153.073 27.2005 153.073 25.2347C153.073 21.8128 151.362 21.0984 149.928 21.0984C148.504 21.0984 147.494 21.74 146.925 23.0005C146.388 24.1881 146.129 25.9855 146.129 28.4974V37.489C146.079 37.5572 146.056 37.6255 146.047 37.6847L146.042 37.712V37.7393C146.042 39.8415 145.742 41.2886 145.15 42.0348C144.673 42.6264 144.19 42.9267 143.717 42.9267C143.248 42.9267 142.898 42.7174 142.616 42.2669C142.311 41.7755 142.156 41.0156 142.156 40.0099V31.8692V31.7282L142.056 31.6281C141.724 31.3004 141.283 31.1321 140.736 31.1321C140.2 31.1321 139.731 31.3095 139.344 31.6599C138.953 32.0194 138.753 32.5381 138.753 33.2025V37.539C138.753 39.3137 138.425 40.697 137.779 41.6572C137.151 42.5854 136.486 43.0359 135.749 43.0359C134.848 43.0359 134.389 42.0166 134.389 40.0054V31.8692V31.7282L134.289 31.6281C133.956 31.3004 133.524 31.1321 133.001 31.1321C132.473 31.1321 132.027 31.3141 131.681 31.6736C131.335 32.033 131.162 32.5427 131.162 33.198V37.5299C131.131 37.5845 131.117 37.6391 131.112 37.6801L131.108 37.7074V37.7347C131.108 39.5549 130.862 40.9018 130.375 41.7436C129.925 42.5263 129.424 42.9222 128.896 42.9222C128.35 42.9222 127.963 42.7129 127.686 42.2624C127.381 41.7709 127.226 41.011 127.226 40.0054V35.9828C127.226 34.4448 126.826 33.2434 126.043 32.4062C125.251 31.5643 124.182 31.1366 122.862 31.1366C121.425 31.1366 120.273 31.6053 119.431 32.5381V31.2458C121.52 29.1253 122.576 27.0003 122.576 24.9253C122.576 23.7467 122.357 22.8185 121.925 22.1587C121.461 21.4533 120.806 21.0984 119.968 21.0984C118.485 21.0984 117.461 21.7264 116.933 22.9641C116.437 24.1244 116.196 25.9127 116.196 28.4382V38.44C116.164 38.4946 116.151 38.5492 116.146 38.5902L116.142 38.6175V38.6448C116.142 40.0327 115.741 41.0656 114.922 41.8073C114.089 42.5581 113.093 42.9222 111.864 42.9222C110.654 42.9222 109.739 42.5536 109.075 41.7891C108.406 41.0246 108.069 39.7414 108.069 37.9759C108.069 36.1694 108.256 34.8406 108.62 34.017C108.952 33.2753 109.475 32.9158 110.221 32.9158C110.626 32.9158 110.968 33.0887 111.263 33.4437C111.573 33.8213 111.723 34.2218 111.723 34.6723C111.723 35.1546 111.673 35.5232 111.577 35.7644L111.509 35.9327L111.609 36.0829C111.828 36.4105 112.246 36.5743 112.856 36.5743C113.211 36.5743 113.571 36.3969 113.921 36.0511C114.271 35.7007 114.444 35.2411 114.444 34.6768C114.444 33.7258 114.139 32.8931 113.539 32.2014C112.924 31.4915 111.96 31.1321 110.672 31.1321C108.934 31.1321 107.487 31.7555 106.367 32.9886C105.357 34.0944 104.802 35.6142 104.711 37.5026C104.665 37.5663 104.647 37.63 104.638 37.6847L104.634 37.712V37.7393C104.634 39.6686 104.392 41.0474 103.919 41.8301C103.473 42.5672 102.986 42.9267 102.44 42.9267C101.89 42.9267 101.489 42.7083 101.212 42.2669C100.907 41.7755 100.752 41.0156 100.752 40.0099V35.9873C100.752 34.4493 100.352 33.248 99.5689 32.4107C98.7771 31.5689 97.7078 31.1412 96.3882 31.1412C94.8956 31.1412 93.7171 31.6463 92.8662 32.6473C92.6022 31.4278 91.8196 31.1412 91.1416 31.1412C90.5 31.1412 90.0449 31.3232 89.7855 31.6827L89.7218 31.7737V31.8829V37.621C89.5808 39.4366 88.8891 40.9519 87.6605 42.1259C86.2681 43.4546 84.6299 44.128 82.7961 44.128C80.9441 44.128 79.4789 43.7185 78.4414 42.9085C77.413 42.1077 76.917 40.9291 76.917 39.2955C76.917 37.6756 77.4949 36.5106 78.6871 35.7416C79.9111 34.9499 81.5174 34.5494 83.4605 34.5494C84.2158 34.5494 84.6527 34.1581 84.6527 33.471C84.6527 33.1115 84.5071 32.8248 84.234 32.6382C83.9974 32.4744 83.738 32.3925 83.4605 32.3925C79.8565 32.3925 78.1046 31.123 78.1046 28.511C78.1046 27.2597 78.455 26.3496 79.1785 25.7216C79.9066 25.0891 80.8576 24.7706 82.018 24.7706C83.192 24.7706 84.1476 25.0072 84.862 25.4805C85.54 25.9264 85.8722 26.5862 85.8722 27.4917C85.8722 27.8603 85.8221 28.1743 85.7266 28.4155L85.6583 28.5838L85.7584 28.734C85.9768 29.0616 86.3864 29.2254 86.9779 29.2254C87.3556 29.2254 87.7196 29.048 88.07 28.7021C88.4204 28.3518 88.5933 27.8922 88.5933 27.3279C88.5933 26.0538 88.02 24.9481 86.8915 24.0425C85.7857 23.1552 84.1385 22.7047 81.9998 22.7047C79.8656 22.7047 78.1228 23.2007 76.8214 24.1745C75.4881 25.171 74.8147 26.6317 74.8147 28.5156C74.8147 29.3847 74.9512 30.1719 75.2197 30.8499C75.4927 31.5325 75.8158 32.0603 76.1889 32.4107C76.6121 32.843 77.0853 33.1843 77.5995 33.4346C77.2582 33.5438 76.9079 33.6939 76.5529 33.8805C76.0296 34.1626 75.5564 34.5176 75.1469 34.9362C74.7282 35.3639 74.3642 35.9646 74.0684 36.72C73.7726 37.4753 73.6179 38.3445 73.6179 39.3092C73.6179 41.4979 74.5007 43.2225 76.2435 44.4375C77.9454 45.6251 80.0886 46.2258 82.605 46.2258C84.0065 46.2258 85.3034 45.9664 86.4546 45.4613C87.6104 44.9517 88.5569 44.2736 89.2668 43.4455C89.4261 43.2589 89.5808 43.0678 89.7218 42.8721C89.7582 43.4273 89.9312 43.8641 90.236 44.1826C90.5864 44.5421 91.046 44.7241 91.6148 44.7241C92.2018 44.7241 92.6295 44.5421 92.8844 44.1826L92.9481 44.0916V43.9824V39.1362C92.9481 36.811 93.2529 35.1455 93.8582 34.1854C94.4406 33.2617 95.1505 32.8157 96.0378 32.8157C96.9388 32.8157 97.3984 33.835 97.3984 35.8463V39.1635C97.3984 40.8972 97.7806 42.2624 98.5314 43.227C99.305 44.2145 100.42 44.7196 101.849 44.7196C103.282 44.7196 104.388 44.1872 105.143 43.1315C105.375 42.8039 105.575 42.4398 105.735 42.0439C105.98 42.4125 106.267 42.7402 106.595 43.0314C107.864 44.1417 109.616 44.7059 111.805 44.7059ZM119.436 28.6657C119.45 26.2404 119.504 24.6341 119.6 23.8878C119.691 23.1916 119.864 22.8822 120 22.8822C120.592 22.8822 120.678 24.1426 120.678 24.8934C120.678 26.1084 120.26 27.3734 119.436 28.6657ZM149.391 30.4859C149.4 27.0003 149.487 24.807 149.642 23.9652C149.765 23.1779 149.874 23.0096 149.896 22.9868C149.933 22.9413 150.001 22.8867 150.156 22.8867C150.834 22.8867 151.175 23.6876 151.175 25.2666C151.175 27.5827 150.574 29.3346 149.391 30.4859ZM158.21 33.6757C158.469 33.3663 158.742 33.1615 159.02 33.0705C159.325 32.9704 159.748 32.9158 160.285 32.9158C160.758 32.9158 161.186 33.1433 161.582 33.6166C161.987 34.0989 162.196 34.7496 162.196 35.5505V39.432C162.196 40.4832 161.896 41.3113 161.282 41.962C160.681 42.5945 160.139 42.9176 159.671 42.9176C159.17 42.9176 158.774 42.8266 158.492 42.6446C158.306 42.5263 158.023 42.1896 157.728 41.2567C157.473 40.465 157.345 39.3228 157.345 37.8758C157.345 35.1728 157.805 34.1035 158.192 33.6848L158.196 33.6803L158.21 33.6757Z" fill="white"/>
<path d="M98.2584 62.225C97.6896 62.225 97.5303 62.4708 97.4985 62.6801L97.4939 62.7074V62.7347C97.4939 64.837 97.1936 66.284 96.602 67.0303C96.1242 67.6218 95.6419 67.9222 95.1687 67.9222C94.7 67.9222 94.3496 67.7128 94.0675 67.2623C93.7626 66.7709 93.6079 66.011 93.6079 65.0053V56.8692V56.7281L93.5078 56.628C93.1801 56.3004 92.7342 56.132 92.1881 56.132C91.6512 56.132 91.1825 56.3095 90.7957 56.6599C90.4044 57.0194 90.2042 57.5381 90.2042 58.2025V62.539C90.2042 64.3137 89.8765 65.697 89.2304 66.6571C88.6024 67.5854 87.9381 68.0359 87.2009 68.0359C86.2999 68.0359 85.8403 67.0166 85.8403 65.0053V56.8692V56.7281L85.7402 56.628C85.4126 56.3004 84.9757 56.132 84.4524 56.132C83.9246 56.132 83.4787 56.3141 83.1328 56.6735C82.787 57.033 82.6095 57.5427 82.6095 58.1979V62.4935C82.5822 62.5345 82.5595 62.58 82.5413 62.6255L82.5231 62.6755V62.7301C82.5231 64.6004 82.2637 65.9609 81.754 66.7709C81.2672 67.5399 80.5209 67.9176 79.4652 67.9176C78.7735 67.9176 78.1774 67.6719 77.645 67.1622C77.1172 66.6571 76.8578 65.9518 76.8578 65.0008V58.1979H81.3627H81.704V57.8566C81.704 57.4152 81.6175 57.0922 81.4446 56.8783C81.249 56.6417 80.9077 56.5234 80.4026 56.5234H76.8624V52.6692V52.5281L76.7622 52.428C76.4346 52.1004 75.9978 51.932 75.4745 51.932C74.9466 51.932 74.5007 52.114 74.1549 52.4735C73.809 52.833 73.6316 53.3426 73.6316 53.9979V64.4047C73.6316 66.1429 74.1367 67.4762 75.1332 68.3726C76.1206 69.26 77.463 69.7059 79.1285 69.7059C80.8212 69.7059 82.0999 69.1553 82.928 68.0678C83.0145 67.9586 83.0964 67.8402 83.1738 67.7174C83.3421 68.0268 83.5515 68.2998 83.7926 68.541C84.5753 69.31 85.6083 69.7014 86.8642 69.7014C88.7025 69.7014 90.054 68.9596 90.8958 67.4899C91.6512 68.9596 92.9708 69.7014 94.8274 69.7014C96.1834 69.7014 97.2573 69.169 98.0081 68.1133C98.7362 67.094 99.1048 65.7334 99.1048 64.0589C99.1093 63.5629 99.1093 62.225 98.2584 62.225Z" fill="white"/>
<path d="M182.741 57.9067C181.622 56.7281 180.161 56.1275 178.4 56.1275C176.635 56.1275 175.188 56.7327 174.096 57.9249C173.108 59.0033 172.562 60.4959 172.48 62.3615C172.366 62.4389 172.307 62.539 172.28 62.6255L172.262 62.6755V62.7301C172.262 64.6003 172.002 65.9609 171.493 66.7709C171.006 67.5399 170.26 67.9176 169.204 67.9176C168.512 67.9176 167.916 67.6719 167.384 67.1622C166.856 66.6571 166.596 65.9518 166.596 65.0008V58.1979H171.101H171.443V57.8566C171.443 57.4152 171.356 57.0922 171.183 56.8783C170.988 56.6417 170.646 56.5234 170.141 56.5234H166.601V52.6692V52.5281L166.501 52.428C166.173 52.1004 165.736 51.932 165.213 51.932C164.685 51.932 164.239 52.114 163.894 52.4735C163.548 52.833 163.37 53.3426 163.37 53.9979V62.5254C163.338 62.58 163.325 62.63 163.32 62.6755L163.316 62.7028V62.7301C163.316 64.6595 163.074 66.0383 162.601 66.8209C162.155 67.5581 161.668 67.9176 161.122 67.9176C160.572 67.9176 160.171 67.6992 159.894 67.2578C159.589 66.7663 159.434 66.0064 159.434 65.0008V60.9782C159.434 59.4402 159.034 58.2389 158.251 57.4016C157.459 56.5598 156.39 56.132 155.07 56.132C153.578 56.132 152.399 56.6371 151.548 57.6382C151.284 56.4187 150.502 56.132 149.824 56.132C149.182 56.132 148.727 56.314 148.468 56.6735L148.404 56.7645V56.8738V62.8757C148.372 62.9303 148.358 62.9804 148.354 63.0259L148.349 63.0532V63.0805C148.349 64.6777 147.912 65.8927 147.052 66.7026C146.174 67.5263 145.223 67.9267 144.14 67.9267C143.066 67.9267 142.197 67.6446 141.556 67.0894C140.987 66.598 140.609 65.879 140.418 64.9462C142.143 64.8825 143.599 64.3865 144.745 63.4764C146.006 62.4753 146.647 61.2012 146.647 59.6813C146.647 58.7303 146.343 57.8976 145.742 57.2059C145.128 56.4961 144.163 56.1366 142.875 56.1366C141.137 56.1366 139.69 56.76 138.57 57.9886C137.551 59.108 136.996 60.6415 136.914 62.5527C136.896 62.5936 136.882 62.6391 136.873 62.6801L136.869 62.7074V62.7347C136.869 64.523 136.55 65.8563 135.918 66.6981C135.299 67.5217 134.534 67.9221 133.583 67.9221C132.996 67.9221 132.45 67.8084 131.954 67.5854C133.392 65.6697 134.125 62.9486 134.125 59.4766C134.125 58.3936 133.824 57.5063 133.233 56.8419C132.628 56.1639 131.822 55.8226 130.839 55.8226C129.429 55.8226 128.409 56.3641 127.809 57.4289C127.245 58.43 126.958 59.9134 126.958 61.8337C126.958 62.9258 127.163 64.0679 127.572 65.2329C127.932 66.2658 128.459 67.1577 129.137 67.8903C128.924 67.9904 128.687 68.0404 128.432 68.0404C126.466 68.0404 125.515 66.3522 125.515 62.8803V56.8738V56.7327L125.415 56.6326C125.088 56.3049 124.651 56.1366 124.127 56.1366C123.6 56.1366 123.154 56.3186 122.808 56.6781C122.462 57.0376 122.289 57.5518 122.289 58.2025V62.7392C122.289 63.1351 122.312 63.531 122.357 63.9496C122.043 65.1782 121.425 66.2385 120.51 67.1122C119.117 68.4409 117.479 69.1144 115.646 69.1144C113.794 69.1144 112.328 68.7048 111.291 67.8948C110.262 67.094 109.766 65.9154 109.766 64.2818C109.766 62.6619 110.344 61.497 111.537 60.7279C112.761 59.9362 114.367 59.5357 116.31 59.5357C117.065 59.5357 117.502 59.1444 117.502 58.4573C117.502 58.0978 117.356 57.8111 117.083 57.6246C116.847 57.4608 116.587 57.3788 116.31 57.3788C112.706 57.3788 110.954 56.1093 110.954 53.4973C110.954 52.246 111.304 51.3359 112.028 50.7079C112.756 50.0754 113.707 49.7569 114.867 49.7569C116.041 49.7569 116.997 49.9935 117.711 50.4668C118.389 50.9127 118.722 51.5725 118.722 52.4781C118.722 52.8466 118.672 53.1606 118.576 53.4018L118.508 53.5701L118.608 53.7203C118.826 54.0479 119.236 54.2118 119.827 54.2118C120.205 54.2118 120.569 54.0343 120.919 53.6885C121.27 53.3426 121.443 52.8785 121.443 52.3142C121.443 51.0401 120.869 49.9344 119.741 49.0288C118.635 48.1415 116.988 47.691 114.849 47.691C112.715 47.691 110.972 48.187 109.671 49.1608C108.338 50.1573 107.664 51.618 107.664 53.5019C107.664 54.371 107.801 55.1582 108.069 55.8363C108.342 56.5188 108.665 57.0467 109.038 57.397C109.462 57.8293 109.935 58.1706 110.449 58.4209C110.108 58.5301 109.757 58.6803 109.402 58.8668C108.879 59.1489 108.406 59.5039 107.996 59.9225C107.578 60.3503 107.214 60.9509 106.918 61.7063C106.622 62.4617 106.467 63.3308 106.467 64.2955C106.467 66.4842 107.35 68.2088 109.093 69.4238C110.795 70.6114 112.938 71.2121 115.454 71.2121C116.856 71.2121 118.153 70.9527 119.304 70.4476C120.46 69.938 121.406 69.26 122.116 68.4318C122.539 67.9403 122.908 67.417 123.208 66.8755C123.404 67.2259 123.627 67.5445 123.882 67.8402C124.956 69.0825 126.371 69.715 128.095 69.715C128.942 69.715 129.752 69.4693 130.512 68.9869C131.317 69.4693 132.268 69.715 133.342 69.715C135.071 69.715 136.382 69.1462 137.242 68.0223C137.497 67.6901 137.715 67.3215 137.892 66.9301C138.152 67.3397 138.466 67.7083 138.825 68.0268C140.086 69.1462 141.765 69.715 143.826 69.715C145.847 69.715 147.394 69.128 148.431 67.9676C148.481 68.4727 148.65 68.8732 148.936 69.1735C149.287 69.533 149.746 69.715 150.315 69.715C150.902 69.715 151.33 69.533 151.585 69.1735L151.648 69.0825V68.9733V64.1271C151.648 61.8018 151.953 60.1409 152.558 59.1808C153.141 58.2571 153.851 57.8111 154.738 57.8111C155.639 57.8111 156.099 58.8304 156.099 60.8417V64.1589C156.099 65.8927 156.481 67.2578 157.232 68.2225C158.005 69.2099 159.12 69.715 160.549 69.715C161.982 69.715 163.088 69.1826 163.843 68.1269C163.971 67.9494 164.085 67.7629 164.189 67.5627C164.385 67.8721 164.617 68.1451 164.881 68.3817C165.868 69.2691 167.211 69.715 168.876 69.715C170.569 69.715 171.848 69.1644 172.676 68.0769C172.972 67.6946 173.213 67.2623 173.399 66.7982C173.631 67.1986 173.909 67.5672 174.228 67.8948C175.392 69.1007 176.871 69.715 178.623 69.715C180.389 69.715 181.818 69.0324 182.873 67.6855C183.911 66.3659 184.434 64.6868 184.434 62.6983C184.42 60.6915 183.856 59.0852 182.741 57.9067ZM175.834 62.5299C176.289 63.1943 176.862 63.8131 177.558 64.3865C178.532 65.1919 179.611 65.7516 180.762 66.0519C180.616 66.6844 180.393 67.1486 180.088 67.4353C179.747 67.7583 179.242 67.9221 178.582 67.9221C177.608 67.9221 176.93 67.5718 176.512 66.8437C176.061 66.0701 175.834 64.7323 175.834 62.8757C175.834 62.7529 175.834 62.6391 175.834 62.5299ZM176.88 59.0488C176.88 58.6848 177.008 58.43 177.285 58.2389C177.599 58.0205 177.968 57.9158 178.409 57.9158C179.433 57.9158 180.107 58.2434 180.462 58.9123C180.848 59.6449 181.044 60.9782 181.044 62.8757C181.044 63.2671 181.03 63.7312 181.008 64.2636C179.947 63.8905 179.005 63.2307 178.214 62.3024C177.331 61.2649 176.88 60.1682 176.88 59.0488ZM140.814 59.017C141.151 58.2662 141.656 57.9158 142.416 57.9158C142.898 57.9158 143.257 58.066 143.512 58.3754C143.781 58.6985 143.917 59.1945 143.917 59.8452C143.917 60.8872 143.544 61.6471 142.775 62.1704C142.061 62.6573 141.214 62.9895 140.259 63.1624C140.272 61.2148 140.459 59.8179 140.814 59.017ZM130.398 58.0295C131.053 58.0295 131.19 59.2172 131.19 60.2138C131.19 62.9303 130.917 64.9689 130.375 66.2931C129.506 65.0963 129.065 63.4354 129.065 61.3468C129.069 59.1444 129.515 58.0295 130.398 58.0295Z" fill="white"/>
<path d="M54.8202 57.7792C54.306 58.1478 53.7645 58.2843 53.132 58.0978C48.3313 56.678 43.5306 55.272 38.7299 53.8613C38.6344 53.834 38.5388 53.8067 38.4524 53.7612C38.1839 53.6338 38.0883 53.4108 38.1793 53.1378C38.2658 52.8739 38.4797 52.7738 38.7481 52.8147C38.8664 52.8329 38.9802 52.8693 39.094 52.9058C42.7161 53.966 46.3337 55.0308 49.9558 56.091C50.0741 56.1274 50.2288 56.1638 50.3335 56.1183C51.2026 55.768 52.0626 55.3994 52.9591 55.0217C52.6769 54.6895 52.4039 54.3937 52.1582 54.0752C52.0171 53.8886 51.8943 53.8795 51.6895 53.966C50.8386 54.3391 49.9831 54.6895 49.1276 55.0535C48.6316 55.2629 48.3313 55.2037 48.1993 54.8761C48.0719 54.5575 48.2312 54.3164 48.7135 54.1162C49.4097 53.8249 50.1014 53.5337 50.7976 53.2379C50.9432 53.1742 51.0888 53.1105 51.2618 53.0332C50.9842 52.701 50.7203 52.4098 50.4836 52.1049C50.3517 51.9365 50.2379 51.891 50.0195 51.9866C49.1504 52.3688 48.2721 52.7283 47.3985 53.0969C47.3302 53.1287 47.2574 53.1606 47.1846 53.1833C46.8706 53.288 46.6067 53.1879 46.4929 52.9331C46.3746 52.6691 46.4884 52.3779 46.8024 52.2414C47.585 51.9001 48.3722 51.577 49.1549 51.2448C49.2914 51.1857 49.4279 51.1265 49.5781 51.0628C49.296 50.7306 49.0275 50.444 48.7954 50.1254C48.6453 49.9161 48.5042 49.9343 48.2994 50.0208C47.4394 50.3939 46.5703 50.7534 45.7057 51.1174C45.6238 51.1493 45.5464 51.1902 45.4645 51.2175C45.1551 51.3222 44.8866 51.2221 44.7729 50.9627C44.6546 50.6942 44.7683 50.4121 45.0823 50.2711C45.8422 49.9389 46.6112 49.6249 47.3757 49.3018C47.5395 49.2336 47.7033 49.1608 47.8899 49.0834C47.6351 48.7831 47.3939 48.5282 47.1891 48.2461C47.0208 48.0095 46.8615 48.0141 46.6203 48.1233C45.6602 48.5465 44.691 48.9469 43.7263 49.3473C43.385 49.4884 43.0938 49.3883 42.98 49.1107C42.8617 48.824 42.9846 48.5692 43.3304 48.4099C43.4305 48.3644 43.5306 48.3235 43.6307 48.2825C44.4953 47.9185 45.3599 47.5545 46.2563 47.1722C45.9514 46.8082 45.6557 46.476 45.3826 46.1256C45.237 45.9391 45.1142 45.9072 44.8912 46.0028C44.0312 46.3805 43.162 46.7399 42.2974 47.104C41.8242 47.3042 41.533 47.245 41.401 46.9219C41.2691 46.608 41.4374 46.3532 41.9107 46.1575C42.7525 45.8026 43.5989 45.4431 44.4725 45.079C44.0357 44.5694 43.6216 44.0825 43.1757 43.5638C43.0847 43.7048 43.0119 43.814 42.9436 43.9232C41.0506 46.8491 39.1577 49.7751 37.2601 52.6964C37.1964 52.7965 37.1327 52.9012 37.0599 52.9968C36.3182 53.9978 34.903 53.9523 34.2614 52.883C34.0885 52.5963 34.0385 52.2414 33.9247 51.891C33.3604 51.8865 32.8326 51.6817 32.3912 51.263C31.9453 50.8353 31.745 50.2893 31.7177 49.6795C30.0932 50.039 28.6963 48.7558 28.942 47.0266C28.2003 46.9857 27.6042 46.6353 27.1491 46.0756C26.0616 44.7469 25.6702 43.1542 25.5292 41.4888C25.4928 41.061 25.8887 40.7425 26.3073 40.8199C26.6167 40.879 26.9216 40.9791 27.2174 41.0883C27.4631 41.1793 27.5632 41.3978 27.5132 41.648C27.4586 41.9119 27.2765 42.0621 26.9944 42.0485C26.8716 42.0439 26.7487 42.0212 26.5985 41.9984C26.6486 42.2669 26.685 42.5035 26.735 42.7401C26.9398 43.6548 27.2265 44.533 27.8135 45.2793C28.4506 46.0938 29.0922 46.1893 29.9385 45.616C32.1682 44.1052 34.3979 42.5945 36.6276 41.0838C36.7232 41.0201 36.8097 40.9473 36.9189 40.8699C36.1953 40.242 35.3945 40.1737 34.5754 40.4194C33.6881 40.6879 32.8371 41.0747 31.9544 41.3568C31.0306 41.6526 30.0932 41.8983 29.1559 42.1395C28.7873 42.235 28.537 42.053 28.487 41.7436C28.4369 41.4478 28.6235 41.193 28.9875 41.1429C30.116 40.9928 31.158 40.5741 32.2092 40.1691C32.9418 39.887 33.679 39.6003 34.4343 39.4047C35.6129 39.0998 36.7095 39.2818 37.6333 40.1464C37.7834 40.2875 37.8926 40.2328 38.0383 40.1555C38.9893 39.6413 40.0495 39.8461 40.7549 40.6742C40.814 40.7471 40.8823 40.8107 40.946 40.879C40.9915 40.8472 41.0233 40.829 41.0461 40.8108C41.6513 40.3512 42.3293 40.3057 42.9709 40.6879C43.5761 41.0474 43.8582 41.6844 43.7627 42.4262C43.749 42.549 43.8127 42.7174 43.8992 42.8175C47.4622 46.9993 51.0251 51.1857 54.6063 55.3539C55.0887 55.9136 55.3435 56.4915 55.1751 57.2241C55.0568 57.4152 54.9385 57.5972 54.8202 57.7792ZM35.5082 47.2041C34.7529 47.7228 33.9975 48.237 33.2467 48.7603C32.8053 49.0697 32.6415 49.634 32.8326 50.1254C33.0283 50.626 33.5607 50.9354 34.0931 50.8535C34.3615 50.8126 34.58 50.7033 34.7301 50.4531C35.0304 49.9571 35.3535 49.4793 35.672 48.9924C35.8859 48.6693 36.1498 48.5874 36.4138 48.7421C36.6913 48.9105 36.7368 49.1972 36.523 49.5384C36.0907 50.221 35.6448 50.8945 35.2079 51.5725C34.9713 51.9411 34.9804 52.2141 35.2125 52.4689C35.5173 52.8011 35.9542 52.7556 36.1954 52.3779C38.334 49.0698 40.4773 45.7616 42.6205 42.4535C42.8162 42.1486 42.7934 41.8665 42.5341 41.6435C42.2656 41.4114 41.9016 41.416 41.6513 41.6753C41.5557 41.7754 41.4738 41.8938 41.3965 42.0121C40.2452 43.7867 39.094 45.5659 37.9427 47.3451C37.8881 47.4271 37.838 47.5135 37.7789 47.5909C37.5696 47.8775 37.3011 47.9503 37.0508 47.7911C36.8006 47.6273 36.7459 47.3406 36.9325 47.0448C37.2055 46.6125 37.4877 46.1848 37.7652 45.757C37.747 45.7388 37.7288 45.7206 37.7106 45.7024C36.978 46.1939 36.2409 46.699 35.5082 47.2041ZM39.9449 42.3806C40.0723 42.144 40.3408 41.962 40.1588 41.6207C39.9585 41.2521 39.6855 40.9973 39.2669 40.92C38.8983 40.8517 38.5889 40.9973 38.2885 41.2021C36.3319 42.549 34.3661 43.8914 32.4094 45.2338C31.745 45.6888 31.0716 46.1393 30.4163 46.608C30.0022 46.9083 29.8521 47.3998 29.9977 47.8548C30.1524 48.3462 30.5983 48.7239 31.0807 48.7012C31.3264 48.6921 31.604 48.6102 31.8088 48.4691C34.2796 46.79 36.7459 45.1018 39.1941 43.3954C39.4489 43.2179 39.6036 42.8948 39.8038 42.64C39.7947 42.6355 39.7902 42.6264 39.7811 42.6218C39.8402 42.549 39.8994 42.4671 39.9449 42.3806ZM53.5688 57.1422C53.8009 57.2059 54.0421 57.1604 54.1194 56.9238C54.1786 56.7554 54.1649 56.5051 54.0785 56.355C53.7463 55.7998 53.7326 55.8089 53.1411 56.0592C52.7406 56.2275 52.3402 56.4005 51.9398 56.5688C51.9216 56.5779 51.9034 56.5961 51.8397 56.6416C52.4403 56.8237 53.0046 56.9875 53.5688 57.1422Z" fill="url(#paint0_linear_18_2113)"/>
<path d="M27.2447 63.9041C24.3506 64.5184 22.4394 67.4716 23.0856 70.3292C23.7409 73.2142 26.6031 75.0617 29.4789 74.4565C32.373 73.8467 34.2842 70.898 33.638 68.0313C32.9827 65.1418 30.1205 63.2943 27.2447 63.9041ZM29.1103 72.6545C27.1946 73.0686 25.2516 71.8081 24.8694 69.9015C24.4871 67.9903 25.7112 66.1156 27.6087 65.7015C29.5335 65.2874 31.4629 66.5387 31.8497 68.4545C32.2319 70.3656 31.0124 72.245 29.1103 72.6545Z" fill="white"/>
<path d="M61.9507 31.9875C61.8278 31.4142 61.6458 30.8818 61.4183 30.404C60.1032 27.6874 57.2683 26.3496 54.1922 27.0003C51.1298 27.6464 37.5195 30.5632 37.5195 30.5632L34.6482 17.1395L32.5596 17.5855L35.4309 31.0092C35.4309 31.0092 22.2756 33.8168 18.9493 34.5448C18.5398 34.6359 18.1393 34.7815 17.748 34.9271C17.4613 35.0317 17.161 35.1455 16.8607 35.2274C16.6559 35.282 16.3601 35.2866 16.1872 35.1819C15.4682 34.7496 14.7538 34.2809 14.0622 33.8259C13.7937 33.6484 13.5252 33.4755 13.2567 33.3026C11.7414 32.3242 10.2489 31.9466 8.82463 32.1741C6.47662 32.5472 4.09675 33.1115 1.99446 33.6075C1.61678 33.6985 1.20269 33.9851 0.761302 34.472C-0.0987252 35.414 -0.24434 36.82 0.397268 37.9668C1.05253 39.1317 2.31754 39.7232 3.62806 39.4684C5.24346 39.159 6.8634 38.7995 8.4333 38.4582L8.77912 38.3808C8.78367 38.3808 8.78368 38.3808 8.78823 38.3808C9.29787 38.2716 9.72561 38.3535 10.1397 38.6311C10.8723 39.1317 11.7278 39.705 12.6151 40.2283C13.1794 40.5605 13.6026 40.8699 13.548 41.6071C13.5252 41.8847 13.598 42.1622 13.6708 42.4307C13.6936 42.5263 13.7209 42.6264 13.7436 42.7219L14.6264 46.8446C15.5319 51.081 17.7161 61.2876 18.6262 65.606C18.6535 65.7379 18.6717 65.8835 18.6763 66.0382C18.1348 67.7219 18.0392 69.5239 18.4123 71.2485C18.9356 73.6966 20.3463 75.8535 22.3758 77.3233C24.3916 78.784 26.8579 79.4483 29.306 79.198L29.4471 79.2026L29.6883 79.1525C30.248 79.0752 30.612 78.9978 31.1444 78.8431L31.5084 78.7657L31.5221 78.7612C31.6267 78.7157 31.7314 78.6656 31.8315 78.6201L31.8497 78.611C34.0885 77.7783 35.9678 76.1629 37.1418 74.0652C38.3067 71.9811 38.6981 69.5512 38.2476 67.2123L59.3433 62.6982C59.3706 62.8302 59.4025 62.9576 59.4298 63.0896C59.5299 63.5355 59.6254 63.9587 59.6846 64.391C57.9509 65.2556 57.0226 67.1713 57.4276 69.0734C57.919 71.3622 60.176 72.8229 62.4649 72.336C64.7537 71.8446 66.2144 69.5876 65.7275 67.2987C65.318 65.3921 63.6889 64.0224 61.7459 63.9496C61.6367 63.5128 61.5411 63.0759 61.4456 62.6118C61.4183 62.4798 61.391 62.3524 61.3637 62.2205C61.4956 62.1932 61.6185 62.1658 61.7414 62.1431L61.7641 62.1385C62.1145 62.0703 62.4467 62.002 62.7698 61.911L62.9472 61.861C63.4023 61.7381 63.8664 61.6061 64.2896 61.3923C66.5602 60.2228 67.5477 58.0614 66.9971 55.4676C65.6138 49.0607 63.1292 37.4617 61.9507 31.9875ZM13.1202 38.1306C12.5332 37.7529 11.9235 37.3616 11.3456 36.952C10.4173 36.2968 9.40253 36.1056 8.23763 36.3787C7.18193 36.6244 6.10804 36.8519 5.06599 37.0703L5.04779 37.0749C4.62005 37.1659 4.18776 37.2569 3.76002 37.3479L3.65081 37.3707C3.5143 37.398 3.36869 37.4298 3.23218 37.4435C2.66337 37.5072 2.18103 37.175 2.08092 36.6562C1.98081 36.1238 2.29024 35.6233 2.78168 35.5141C4.69741 35.0909 6.86795 34.6086 9.0021 34.2354C9.89398 34.0762 10.8041 34.2627 11.564 34.7587C12.3375 35.2593 13.0611 35.7962 13.8301 36.3605C14.1304 36.5789 14.4307 36.8019 14.7311 37.0203L13.8301 38.5902C13.598 38.44 13.3614 38.2898 13.1202 38.1306ZM29.9249 76.7818C25.7067 77.6828 21.543 74.9889 20.642 70.7707C19.7411 66.5524 22.4349 62.3888 26.6531 61.4878C30.8714 60.5868 35.035 63.2807 35.936 67.4989C36.8415 71.7126 34.1431 75.8808 29.9249 76.7818ZM63.4387 67.7902C63.6616 68.8276 62.9973 69.8515 61.9598 70.0699C60.9223 70.2929 59.8984 69.6285 59.68 68.591C59.4571 67.5535 60.1214 66.5297 61.1589 66.3113C62.1919 66.0928 63.2157 66.7527 63.4387 67.7902ZM64.9722 55.9682C65.3817 57.9158 64.4034 59.4447 62.4831 59.8633C57.6733 60.9054 47.808 63.0122 43.0756 64.0224L42.8845 64.0634C41.1963 64.4228 39.5126 64.7823 37.8244 65.1418C37.7607 65.1555 37.697 65.1646 37.6242 65.1737L37.5969 65.1782C35.7039 60.7234 30.9078 58.2297 26.1708 59.2445C23.7909 59.7541 21.6841 61.0965 20.2189 63.0395L17.9073 52.2369L17.3749 49.907L16.938 47.8821C16.5194 45.9391 16.0871 43.9278 15.673 41.9484C15.2134 39.7323 16.0552 37.9213 17.9892 36.9793C18.3759 36.7928 18.8173 36.6835 19.2405 36.5925C30.571 34.1626 45.4418 30.9819 54.4835 29.0525C57.2683 28.4564 59.3706 29.8215 59.9713 32.6064C60.5992 35.4913 64.5035 53.7385 64.9722 55.9682Z" fill="white"/>
<path d="M58.2694 8.75768C57.9964 8.48465 57.7234 8.19342 57.4594 7.90674C57.0226 7.4335 56.5721 6.94206 56.067 6.52342C55.9623 6.43696 55.8577 6.35506 55.753 6.2686C52.5359 3.4428 48.6498 1.57258 44.1449 0.680696C43.6216 0.562385 43.0983 0.462276 42.5705 0.38947C33.6335 -0.848242 25.2107 0.867259 17.5387 5.49048C11.655 9.03525 7.78259 13.9497 6.03978 20.0882C5.81226 20.8936 5.80771 21.8265 6.03978 22.5227C6.59493 24.22 8.12387 24.9344 10.2307 24.4839C15.4273 23.3781 51.4165 15.6379 56.3264 14.6596L56.3901 14.6459C57.0635 14.5003 57.6596 14.2182 58.1374 13.8314C58.8519 13.3263 59.2705 12.6255 59.3478 11.7791C59.5162 10.7098 59.1294 9.6086 58.2694 8.75768ZM20.4919 19.6104L20.4464 19.6195C18.9857 19.9107 17.4249 20.2384 15.3818 20.6752C14.6173 20.839 13.8528 21.0028 13.0975 21.1666L12.6743 21.2576C11.6914 21.4715 10.7085 21.6808 9.72562 21.8902C9.10676 22.0221 8.72453 21.9994 8.56071 21.8219C8.54251 21.7992 8.52431 21.7764 8.51066 21.7491C8.50611 21.74 8.5061 21.7309 8.50155 21.7218C8.49245 21.699 8.48335 21.6808 8.47425 21.6581C8.4697 21.6353 8.46515 21.608 8.4606 21.5807C8.45605 21.5671 8.45605 21.5489 8.4515 21.5352C8.4515 21.5307 8.4515 21.5261 8.4515 21.5261C8.4333 21.3168 8.4788 21.0256 8.59256 20.6433C10.1807 15.3603 13.5525 11.092 18.6171 7.9477C19.9913 7.09222 21.5021 6.40511 22.981 5.7271C23.5862 5.44953 24.2096 5.1674 24.8193 4.87162C24.9968 4.78516 25.2016 4.73511 25.4336 4.6714C25.4518 4.66685 25.4655 4.6623 25.4837 4.65775C25.3199 4.96718 25.1561 5.26751 24.9922 5.56783C24.5326 6.41421 24.1004 7.21053 23.709 8.04326C22.0663 11.5243 21.2518 15.0736 21.2791 18.5957C21.2791 19.2691 21.1198 19.4784 20.4919 19.6104ZM23.8592 18.8368C24.0776 12.7165 26.0388 7.71563 29.8521 3.54745C34.994 5.74985 38.8346 9.51304 41.5921 15.0463L23.8592 18.8368ZM56.745 11.5198C56.6677 11.7473 56.3309 11.9202 55.7166 12.0522C54.6427 12.2842 53.5734 12.5118 52.504 12.7393C50.1242 13.2444 47.4258 13.8223 44.8457 14.3956L44.8548 14.4457C44.8502 14.4457 44.8502 14.4457 44.8457 14.4457L44.8229 14.4002C44.559 14.4548 44.3861 14.4502 44.2496 14.3683L44.245 14.3638C44.1131 14.2819 44.0175 14.1272 43.9129 13.8905C42.393 10.4823 40.1042 7.48356 37.11 4.96718C36.4502 4.41203 35.7631 3.89329 35.035 3.34724L34.9941 3.31538C34.762 3.13791 34.5254 2.96045 34.2842 2.77844L34.3661 2.76933C34.6391 2.73748 34.8712 2.71018 35.1078 2.69652C35.3353 2.68287 35.5629 2.66922 35.7904 2.66012C36.2181 2.66467 36.6504 2.66922 37.069 2.67377C38.2294 2.68287 39.417 2.69198 40.5911 2.77844C42.4931 2.96955 44.3224 3.33358 46.1062 3.88418C46.2791 3.93879 46.4474 3.97064 46.6113 3.97974C48.1493 4.48484 49.5918 5.13099 50.9387 5.92276C51.0069 5.99557 51.0798 6.06383 51.1617 6.12753C51.3027 6.23674 51.4574 6.33686 51.6076 6.43242L51.6941 6.48702C53.3959 7.57912 54.9248 8.91239 56.2399 10.455C56.6586 10.9419 56.8224 11.2923 56.745 11.5198Z" fill="white"/>
<defs>
<linearGradient id="paint0_linear_18_2113" x1="25.5252" y1="48.731" x2="55.2285" y2="48.731" gradientUnits="userSpaceOnUse">
<stop stop-color="#B98F33"/>
<stop offset="0.2279" stop-color="#FEDEA0"/>
<stop offset="0.414" stop-color="#EAC15B"/>
<stop offset="0.586" stop-color="#A77D1E"/>
<stop offset="0.7721" stop-color="#C9981F"/>
<stop offset="1" stop-color="#976D14"/>
</linearGradient>
</defs>
</svg>
