<svg width="253" height="109" viewBox="0 0 253 109" fill="none" xmlns="http://www.w3.org/2000/svg">
<path d="M22.1313 48.42L15.0621 44.0273L14.869 44.3246L0.998413 47.3097L2.05724 51.9693L14.1527 49.3665L19.3846 52.6185L22.1313 48.42Z" fill="url(#paint0_linear_18_4079)"/>
<path d="M38.8171 98.4684C42.3051 98.4684 45.1327 95.714 45.1327 92.3162C45.1327 88.9185 42.3051 86.1641 38.8171 86.1641C35.3291 86.1641 32.5015 88.9185 32.5015 92.3162C32.5015 95.714 35.3291 98.4684 38.8171 98.4684Z" fill="url(#paint1_linear_18_4079)"/>
<path d="M31.1251 27.5547L10.1915 31.7654L9.16382 26.9177L19.5154 11.513L36.5687 4.30518L29.9604 22.07L31.1251 27.5547Z" fill="url(#paint2_linear_18_4079)"/>
<path d="M59.2649 21.8878L80.1985 17.6772L79.1708 12.8295L63.4005 2.67901L44.8151 2.64868L58.1002 16.4031L59.2649 21.8878Z" fill="url(#paint3_linear_18_4079)"/>
<path d="M58.6981 101.107C59.3334 101.107 59.8566 101.174 60.2552 101.308C60.6538 101.441 60.9466 101.635 61.1397 101.896C61.3327 102.157 61.4262 102.479 61.4262 102.867C61.4262 103.14 61.3701 103.383 61.258 103.595C61.1459 103.807 60.9902 103.977 60.7846 104.111C60.5791 104.244 60.3424 104.335 60.0684 104.384V104.42C60.3736 104.469 60.6414 104.554 60.8656 104.681C61.0898 104.808 61.2642 104.978 61.3888 105.203C61.5133 105.427 61.5756 105.706 61.5756 106.046C61.5756 106.707 61.339 107.205 60.8594 107.545C60.3798 107.878 59.7507 108.048 58.9597 108.048H56.5057V101.113H58.6981V101.107ZM58.7978 104.062C59.3334 104.062 59.7196 103.971 59.9563 103.789C60.1867 103.607 60.3051 103.34 60.3051 102.982C60.3051 102.624 60.1743 102.363 59.9064 102.193C59.6386 102.024 59.24 101.939 58.6981 101.939H57.5895V104.062H58.7978ZM58.9099 107.199C59.4393 107.199 59.8317 107.096 60.0871 106.883C60.3424 106.671 60.467 106.368 60.467 105.973C60.467 105.615 60.3362 105.336 60.0684 105.136C59.8005 104.936 59.3895 104.833 58.8227 104.833H57.5895V107.199H58.9099Z" fill="#C7A044"/>
<path d="M63.3258 108.036L66.0165 101.077H67.2497L69.903 108.036H68.7071L67.9971 106.058H65.2753L64.5279 108.036H63.3258ZM66.9819 103.237C66.9383 103.122 66.8947 103.006 66.8511 102.879C66.8075 102.751 66.7639 102.624 66.7265 102.497C66.6891 102.369 66.6518 102.236 66.6206 102.108C66.5895 102.236 66.5521 102.363 66.5147 102.491C66.4774 102.618 66.44 102.739 66.3964 102.867C66.3528 102.994 66.3092 103.122 66.2594 103.249L65.5618 105.178H67.6608L66.9819 103.237Z" fill="#C7A044"/>
<path d="M74.0012 101.107C74.9293 101.107 75.6206 101.277 76.0753 101.611C76.53 101.945 76.7542 102.436 76.7542 103.085C76.7542 103.528 76.6421 103.91 76.4179 104.238C76.1936 104.56 75.8386 104.802 75.3466 104.966L77.3272 108.042H76.0878L74.3812 105.233H73.0981V108.042H72.0144V101.107H74.0012ZM74.0884 104.378C74.5805 104.378 74.9604 104.281 75.2345 104.086C75.5085 103.892 75.6455 103.583 75.6455 103.164C75.6455 102.721 75.5023 102.406 75.222 102.224C74.9417 102.042 74.5307 101.951 73.9888 101.951H73.1044V104.378H74.0884Z" fill="#C7A044"/>
<path d="M81.55 101.107C82.4781 101.107 83.1694 101.277 83.6241 101.611C84.0787 101.945 84.303 102.436 84.303 103.085C84.303 103.528 84.1908 103.91 83.9666 104.238C83.7424 104.56 83.3874 104.802 82.8953 104.966L84.876 108.042H83.6428L81.9362 105.233H80.6531V108.042H79.5694V101.107H81.55ZM81.6372 104.378C82.1293 104.378 82.5092 104.281 82.7832 104.086C83.0573 103.892 83.1943 103.583 83.1943 103.164C83.1943 102.721 83.0511 102.406 82.7708 102.224C82.4905 102.042 82.0794 101.951 81.5376 101.951H80.6531V104.378H81.6372Z" fill="#C7A044"/>
<path d="M86.2026 108.036L88.8933 101.077H90.1265L92.7736 108.036H91.5777L90.8677 106.058H88.1459L87.3985 108.036H86.2026ZM89.8587 103.237C89.8151 103.122 89.7715 103.006 89.7279 102.879C89.6843 102.751 89.6407 102.624 89.6033 102.497C89.566 102.369 89.5286 102.236 89.4974 102.108C89.4663 102.236 89.4289 102.363 89.3916 102.491C89.3542 102.618 89.3168 102.739 89.2732 102.867C89.2296 102.994 89.186 103.122 89.1362 103.249L88.4386 105.178H90.5438L89.8587 103.237Z" fill="#C7A044"/>
<path d="M99.1825 106.125C99.1825 106.519 99.0766 106.871 98.8711 107.175C98.6656 107.478 98.3666 107.715 97.9804 107.885C97.5943 108.054 97.1334 108.139 96.5915 108.139C96.2863 108.139 96.0061 108.127 95.7569 108.103C95.5078 108.079 95.2836 108.042 95.078 107.988C94.8725 107.933 94.6794 107.872 94.4863 107.8V106.829C94.7915 106.968 95.1279 107.072 95.4891 107.15C95.8503 107.229 96.2178 107.266 96.5915 107.266C97.0275 107.266 97.3888 107.175 97.6628 106.993C97.9369 106.811 98.0739 106.55 98.0739 106.21C98.0739 105.973 98.0116 105.785 97.887 105.64C97.7625 105.494 97.5756 105.361 97.3327 105.245C97.0898 105.13 96.7846 105.009 96.4296 104.887C96.031 104.742 95.6946 104.584 95.4144 104.42C95.1341 104.256 94.9223 104.05 94.7791 103.807C94.6358 103.565 94.5611 103.255 94.5611 102.885C94.5611 102.479 94.667 102.139 94.8849 101.86C95.1029 101.581 95.3957 101.368 95.7631 101.223C96.1306 101.077 96.5479 101.004 97.0151 101.004C97.4074 101.004 97.7687 101.047 98.1175 101.126C98.46 101.205 98.7777 101.308 99.0704 101.429L98.7216 102.266C98.4227 102.139 98.1299 102.036 97.831 101.969C97.5382 101.902 97.258 101.866 96.9901 101.866C96.5853 101.866 96.2614 101.951 96.0123 102.121C95.7694 102.291 95.6448 102.533 95.6448 102.849C95.6448 103.085 95.7071 103.274 95.8317 103.419C95.9562 103.565 96.1431 103.692 96.386 103.795C96.6289 103.898 96.9216 104.02 97.2642 104.147C97.6379 104.287 97.968 104.432 98.2607 104.596C98.5535 104.76 98.7777 104.96 98.9396 105.197C99.1016 105.433 99.1825 105.743 99.1825 106.125Z" fill="#C7A044"/>
<path d="M111.92 104.487C111.92 105.27 111.77 105.925 111.477 106.453C111.185 106.98 110.755 107.375 110.194 107.642C109.634 107.909 108.955 108.042 108.158 108.042H106.177V101.107H108.344C109.503 101.107 110.394 101.399 110.998 101.975C111.614 102.551 111.92 103.389 111.92 104.487ZM110.786 104.523C110.786 103.68 110.574 103.049 110.151 102.624C109.727 102.2 109.111 101.987 108.295 101.987H107.261V107.15H108.158C109.042 107.15 109.702 106.932 110.138 106.495C110.574 106.064 110.786 105.403 110.786 104.523Z" fill="#C7A044"/>
<path d="M114.635 101.107H118.715V101.969H115.719V104.02H118.528V104.869H115.719V107.187H118.715V108.048H114.635V101.107Z" fill="#C7A044"/>
<path d="M130.125 106.125C130.125 106.519 130.019 106.871 129.814 107.175C129.608 107.478 129.309 107.715 128.923 107.885C128.537 108.054 128.076 108.139 127.534 108.139C127.229 108.139 126.949 108.127 126.699 108.103C126.45 108.079 126.226 108.042 126.021 107.988C125.815 107.933 125.622 107.872 125.429 107.8V106.829C125.734 106.968 126.07 107.072 126.432 107.15C126.793 107.229 127.16 107.266 127.534 107.266C127.97 107.266 128.331 107.175 128.605 106.993C128.879 106.811 129.016 106.55 129.016 106.21C129.016 105.973 128.954 105.785 128.83 105.64C128.705 105.494 128.518 105.361 128.275 105.245C128.032 105.13 127.727 105.009 127.372 104.887C126.974 104.742 126.637 104.584 126.357 104.42C126.077 104.256 125.865 104.05 125.722 103.807C125.578 103.565 125.504 103.255 125.504 102.885C125.504 102.479 125.61 102.139 125.828 101.86C126.045 101.581 126.338 101.368 126.706 101.223C127.073 101.077 127.49 101.004 127.958 101.004C128.35 101.004 128.711 101.047 129.06 101.126C129.403 101.205 129.72 101.308 130.013 101.429L129.664 102.266C129.365 102.139 129.072 102.036 128.774 101.969C128.481 101.902 128.201 101.866 127.933 101.866C127.528 101.866 127.204 101.951 126.955 102.121C126.712 102.291 126.587 102.533 126.587 102.849C126.587 103.085 126.65 103.274 126.774 103.419C126.899 103.565 127.086 103.692 127.329 103.795C127.571 103.898 127.864 104.02 128.207 104.147C128.58 104.287 128.911 104.432 129.203 104.596C129.496 104.76 129.72 104.96 129.882 105.197C130.044 105.433 130.125 105.743 130.125 106.125Z" fill="#C7A044"/>
<path d="M138.583 101.107V108.042H137.25L133.644 102.418H133.594C133.601 102.521 133.613 102.648 133.619 102.794C133.625 102.94 133.638 103.091 133.644 103.243C133.65 103.395 133.657 103.546 133.663 103.698C133.669 103.85 133.669 103.989 133.669 104.117V108.042H132.685V101.107H134.018L137.612 106.707H137.649C137.643 106.616 137.63 106.513 137.624 106.386C137.618 106.258 137.612 106.125 137.605 105.979C137.599 105.834 137.599 105.682 137.599 105.53C137.599 105.379 137.599 105.227 137.599 105.081V101.107H138.583Z" fill="#C7A044"/>
<path d="M140.72 108.036L143.41 101.077H144.643L147.297 108.036H146.101L145.391 106.058H142.669L141.922 108.036H140.72ZM144.382 103.237C144.338 103.122 144.295 103.006 144.251 102.879C144.207 102.751 144.164 102.624 144.126 102.497C144.089 102.369 144.052 102.236 144.021 102.108C143.989 102.236 143.952 102.363 143.915 102.491C143.877 102.618 143.84 102.739 143.796 102.867C143.753 102.994 143.709 103.122 143.659 103.249L142.962 105.178H145.061L144.382 103.237Z" fill="#C7A044"/>
<path d="M152.429 101.902C151.931 101.902 151.507 102.012 151.158 102.23C150.81 102.448 150.542 102.758 150.361 103.158C150.18 103.559 150.087 104.032 150.087 104.572C150.087 105.403 150.28 106.058 150.666 106.532C151.052 107.005 151.638 107.241 152.416 107.241C152.722 107.241 153.021 107.211 153.307 107.15C153.594 107.09 153.874 107.005 154.148 106.902V107.836C153.88 107.939 153.594 108.018 153.276 108.067C152.958 108.115 152.622 108.139 152.255 108.139C151.513 108.139 150.903 107.988 150.411 107.69C149.919 107.393 149.558 106.975 149.309 106.435C149.066 105.895 148.941 105.276 148.941 104.56C148.941 103.862 149.078 103.249 149.358 102.715C149.639 102.181 150.037 101.763 150.554 101.459C151.071 101.156 151.688 101.004 152.404 101.004C152.759 101.004 153.114 101.041 153.457 101.114C153.799 101.186 154.129 101.296 154.434 101.441L154.073 102.303C153.818 102.181 153.55 102.084 153.276 102.012C153.002 101.939 152.722 101.902 152.429 101.902Z" fill="#C7A044"/>
<path d="M156.895 101.107H157.991V104.475C158.066 104.384 158.14 104.299 158.221 104.208C158.302 104.117 158.383 104.026 158.464 103.935C158.545 103.844 158.626 103.753 158.701 103.662L161.005 101.107H162.251L159.573 104.111L162.27 108.036H161.012L158.782 104.79L157.985 105.409V108.036H156.888V101.107H156.895Z" fill="#C7A044"/>
<path d="M173.805 101.107L171.413 105.348V108.036H170.304V105.397L167.913 101.107H169.109L170.865 104.414L172.634 101.107H173.805Z" fill="#C7A044"/>
<path d="M187.675 101.107V108.042H186.654V103.692C186.654 103.528 186.654 103.352 186.66 103.152C186.666 102.952 186.673 102.77 186.679 102.6C186.685 102.43 186.697 102.303 186.704 102.224H186.666L184.474 108.042H183.527L181.335 102.212H181.297C181.297 102.291 181.304 102.418 181.31 102.594C181.316 102.77 181.329 102.958 181.335 103.158C181.341 103.358 181.347 103.553 181.347 103.741V108.042H180.363V101.107H181.87L184.013 106.732H184.038L186.168 101.107H187.675Z" fill="#C7A044"/>
<path d="M197.08 104.56C197.08 105.27 196.962 105.894 196.719 106.434C196.476 106.974 196.115 107.387 195.623 107.69C195.131 107.988 194.514 108.139 193.754 108.139C193.007 108.139 192.384 107.988 191.886 107.69C191.387 107.393 191.014 106.974 190.771 106.428C190.528 105.888 190.403 105.263 190.403 104.548C190.403 103.844 190.528 103.225 190.771 102.691C191.014 102.157 191.387 101.745 191.886 101.441C192.384 101.144 193.007 100.992 193.754 100.992C194.508 100.992 195.131 101.144 195.623 101.441C196.115 101.738 196.476 102.157 196.719 102.697C196.962 103.237 197.08 103.856 197.08 104.56ZM191.556 104.56C191.556 105.094 191.63 105.561 191.786 105.961C191.942 106.362 192.178 106.671 192.502 106.896C192.826 107.12 193.237 107.229 193.748 107.229C194.259 107.229 194.676 107.12 195 106.902C195.324 106.683 195.554 106.374 195.71 105.973C195.866 105.573 195.94 105.106 195.94 104.56C195.94 103.722 195.76 103.067 195.392 102.6C195.025 102.133 194.477 101.902 193.748 101.902C193.25 101.902 192.839 102.011 192.515 102.23C192.191 102.448 191.948 102.758 191.792 103.152C191.637 103.546 191.556 104.02 191.556 104.56Z" fill="#C7A044"/>
<path d="M201.994 101.107C202.636 101.107 203.153 101.174 203.551 101.308C203.95 101.441 204.243 101.635 204.436 101.896C204.629 102.157 204.722 102.479 204.722 102.867C204.722 103.14 204.666 103.383 204.554 103.595C204.442 103.807 204.286 103.977 204.081 104.111C203.875 104.244 203.639 104.335 203.365 104.384V104.42C203.67 104.469 203.938 104.554 204.162 104.681C204.386 104.808 204.56 104.978 204.685 105.203C204.81 105.427 204.872 105.706 204.872 106.046C204.872 106.707 204.635 107.205 204.156 107.545C203.676 107.878 203.047 108.048 202.256 108.048H199.802V101.113H201.994V101.107ZM202.094 104.062C202.636 104.062 203.022 103.971 203.252 103.789C203.483 103.607 203.601 103.34 203.601 102.982C203.601 102.624 203.47 102.363 203.203 102.193C202.935 102.024 202.536 101.939 201.994 101.939H200.886V104.062H202.094ZM202.206 107.199C202.735 107.199 203.128 107.096 203.383 106.883C203.639 106.671 203.763 106.368 203.763 105.973C203.763 105.615 203.632 105.336 203.365 105.136C203.097 104.936 202.686 104.833 202.119 104.833H200.886V107.199H202.206Z" fill="#C7A044"/>
<path d="M207.083 108.036V107.429L207.893 107.235V101.914L207.083 101.732V101.101H209.798V101.732L208.989 101.914V107.235L209.798 107.429V108.036H207.083Z" fill="#C7A044"/>
<path d="M213.455 101.107V107.156H216.625V108.042H212.371V101.107H213.455Z" fill="#C7A044"/>
<path d="M218.581 108.036V107.429L219.39 107.235V101.914L218.581 101.732V101.101H221.29V101.732L220.48 101.914V107.235L221.29 107.429V108.036H218.581Z" fill="#C7A044"/>
<path d="M222.947 108.036L225.637 101.077H226.87L229.524 108.036H228.328L227.618 106.058H224.896L224.149 108.036H222.947ZM226.609 103.237C226.565 103.122 226.522 103.006 226.478 102.879C226.434 102.751 226.391 102.624 226.354 102.497C226.316 102.369 226.279 102.236 226.248 102.108C226.216 102.236 226.179 102.363 226.142 102.491C226.104 102.618 226.067 102.739 226.023 102.867C225.98 102.994 225.936 103.122 225.886 103.249L225.189 105.178H227.288L226.609 103.237Z" fill="#C7A044"/>
<path d="M233.622 101.107C234.55 101.107 235.241 101.277 235.696 101.611C236.151 101.945 236.375 102.436 236.375 103.085C236.375 103.528 236.263 103.91 236.039 104.238C235.814 104.56 235.459 104.802 234.967 104.966L236.948 108.042H235.715L234.008 105.233H232.725V108.042H231.641V101.107H233.622ZM233.709 104.378C234.201 104.378 234.581 104.281 234.855 104.086C235.129 103.892 235.266 103.583 235.266 103.164C235.266 102.721 235.123 102.406 234.843 102.224C234.563 102.042 234.151 101.951 233.61 101.951H232.725V104.378H233.709Z" fill="#C7A044"/>
<path d="M238.736 108.036V107.429L239.545 107.235V101.914L238.736 101.732V101.101H241.445V101.732L240.635 101.914V107.235L241.445 107.429V108.036H238.736Z" fill="#C7A044"/>
<path d="M250.37 104.56C250.37 105.27 250.252 105.894 250.009 106.434C249.766 106.974 249.405 107.387 248.913 107.69C248.421 107.988 247.804 108.139 247.044 108.139C246.297 108.139 245.674 107.988 245.176 107.69C244.677 107.393 244.304 106.974 244.061 106.428C243.818 105.888 243.693 105.263 243.693 104.548C243.693 103.844 243.818 103.225 244.061 102.691C244.304 102.157 244.677 101.745 245.176 101.441C245.674 101.144 246.297 100.992 247.044 100.992C247.798 100.992 248.421 101.144 248.913 101.441C249.405 101.738 249.766 102.157 250.009 102.697C250.246 103.237 250.37 103.856 250.37 104.56ZM244.846 104.56C244.846 105.094 244.92 105.561 245.076 105.961C245.232 106.362 245.468 106.671 245.792 106.896C246.116 107.12 246.527 107.229 247.038 107.229C247.549 107.229 247.966 107.12 248.29 106.902C248.614 106.683 248.844 106.374 249 105.973C249.156 105.573 249.23 105.106 249.23 104.56C249.23 103.722 249.05 103.067 248.682 102.6C248.315 102.133 247.767 101.902 247.038 101.902C246.54 101.902 246.129 102.011 245.805 102.23C245.481 102.448 245.238 102.758 245.082 103.152C244.927 103.546 244.846 104.02 244.846 104.56Z" fill="#C7A044"/>
<path d="M153.033 59.7475C154.41 59.7475 155.668 59.5048 156.77 59.0255C157.704 58.619 158.477 58.1093 159.075 57.5026C159.156 58.1336 159.38 58.6432 159.76 59.0194C160.239 59.4987 160.868 59.7414 161.647 59.7414C162.45 59.7414 163.036 59.4987 163.385 59.0194L163.472 58.8981V58.7524V52.2909C163.472 49.1905 163.889 46.9699 164.717 45.6897C165.515 44.4581 166.486 43.8635 167.701 43.8635C168.934 43.8635 169.563 45.2226 169.563 47.9043V53.2677C169.563 55.1424 170.149 56.7017 171.301 57.903C172.459 59.1165 173.935 59.7293 175.698 59.7293C177.479 59.7293 178.943 58.9648 180.052 57.4601C180.139 57.3388 180.226 57.2174 180.307 57.09C180.538 57.4965 180.818 57.8606 181.148 58.1761C182.219 59.2014 183.633 59.7232 185.352 59.7232C187.868 59.7232 189.718 58.7342 190.87 56.7745C191.904 58.7342 193.711 59.7232 196.252 59.7232C198.108 59.7232 199.578 59.0133 200.605 57.6057C200.774 57.3812 200.923 57.1386 201.066 56.8837C201.247 57.1932 201.452 57.4844 201.677 57.7453C202.798 59.0558 204.498 59.7232 206.728 59.7232C208.553 59.7232 210.073 58.9648 211.25 57.4662C211.505 57.1386 211.735 56.7927 211.941 56.4226C213.112 58.6129 215.155 59.7232 218.02 59.7232C219.203 59.7232 220.275 59.3895 221.203 58.7282C221.875 58.2549 222.442 57.6482 222.909 56.9262C223.931 58.7828 225.687 59.7171 228.147 59.7171C230.003 59.7171 231.473 59.0073 232.501 57.5997C233.497 56.2406 234.002 54.4265 234.002 52.1938C234.002 51.5203 234.002 49.7366 232.837 49.7366C232.059 49.7366 231.841 50.0642 231.797 50.3433L231.791 50.3797V50.4161C231.791 55.0029 230.72 57.3327 228.608 57.3327C227.967 57.3327 227.487 57.0536 227.101 56.453C226.684 55.7977 226.472 54.7845 226.472 53.4436V42.6318V42.4438L226.335 42.3103C225.886 41.8734 225.22 41.649 224.354 41.649C223.625 41.649 223.034 41.9462 222.616 42.5105C221.763 41.9402 220.536 41.649 218.942 41.649C216.494 41.649 214.501 42.3952 213.006 43.8635C211.561 45.2832 210.807 47.4674 210.764 50.3615L210.758 50.3736V50.4586C210.758 52.9461 210.359 54.7481 209.562 55.822C208.802 56.8473 208.005 57.3691 207.189 57.3691C206.354 57.3691 205.713 57.0718 205.233 56.453C204.729 55.8098 204.473 54.8088 204.473 53.48V43.6026C205.756 42.8139 206.908 41.655 207.911 40.1564C208.976 38.5547 209.518 36.4069 209.518 33.7858C209.518 29.2233 207.176 28.2708 205.214 28.2708C203.265 28.2708 201.882 29.1262 201.104 30.8068C200.369 32.3904 200.014 34.7869 200.014 38.136V50.1249C199.945 50.2159 199.914 50.3069 199.902 50.3857L199.895 50.4222V50.4586C199.895 53.2616 199.484 55.191 198.675 56.186C198.021 56.9747 197.36 57.3752 196.713 57.3752C196.071 57.3752 195.592 57.0961 195.205 56.4954C194.788 55.8402 194.576 54.827 194.576 53.4861V42.6318V42.4438L194.439 42.3103C193.985 41.8734 193.38 41.649 192.633 41.649C191.898 41.649 191.257 41.8856 190.727 42.3528C190.192 42.8321 189.917 43.5237 189.917 44.4095V50.1916C189.917 52.5578 189.469 54.4023 188.585 55.6824C187.725 56.9201 186.816 57.5208 185.807 57.5208C184.574 57.5208 183.944 56.1617 183.944 53.48V42.6318V42.4438L183.807 42.3103C183.353 41.8734 182.761 41.649 182.045 41.649C181.322 41.649 180.712 41.8917 180.239 42.371C179.765 42.8503 179.529 43.5298 179.529 44.4035V50.1795C179.485 50.2523 179.466 50.3251 179.46 50.3797L179.454 50.4161V50.4525C179.454 52.8794 179.117 54.6753 178.451 55.7977C177.834 56.8413 177.149 57.3691 176.427 57.3691C175.679 57.3691 175.15 57.09 174.77 56.4894C174.353 55.8341 174.141 54.8209 174.141 53.48V48.1166C174.141 46.0659 173.593 44.4641 172.522 43.3478C171.438 42.2253 169.974 41.655 168.168 41.655C166.2 41.655 164.624 42.28 163.472 43.5237V41.8006C166.331 38.9733 167.776 36.1399 167.776 33.3733C167.776 31.8019 167.477 30.5642 166.885 29.6844C166.25 28.744 165.353 28.2708 164.207 28.2708C162.176 28.2708 160.775 29.108 160.052 30.7583C159.374 32.3054 159.043 34.6899 159.043 38.0572V51.3929C159 51.4657 158.981 51.5385 158.975 51.5931L158.969 51.6295V51.6659C158.969 53.5164 158.421 54.8937 157.299 55.8826C156.16 56.8837 154.796 57.3691 153.114 57.3691C151.457 57.3691 150.205 56.8777 149.296 55.8584C148.38 54.8391 147.92 53.1281 147.92 50.7741C147.92 48.3654 148.175 46.5937 148.673 45.4956C149.128 44.5066 149.844 44.0273 150.866 44.0273C151.42 44.0273 151.887 44.2579 152.292 44.7311C152.715 45.2347 152.921 45.7686 152.921 46.3693C152.921 47.0124 152.852 47.5038 152.722 47.8254L152.628 48.0499L152.765 48.2501C153.064 48.6869 153.637 48.9053 154.472 48.9053C154.958 48.9053 155.45 48.6687 155.929 48.2076C156.409 47.7404 156.646 47.1277 156.646 46.3753C156.646 45.1073 156.228 43.997 155.406 43.0748C154.565 42.1283 153.245 41.649 151.482 41.649C149.103 41.649 147.122 42.4802 145.59 44.1244C144.207 45.5987 143.448 47.6252 143.323 50.1431C143.261 50.228 143.236 50.3129 143.223 50.3857L143.217 50.4222V50.4586C143.217 53.0311 142.887 54.8694 142.239 55.913C141.629 56.8959 140.962 57.3752 140.215 57.3752C139.461 57.3752 138.913 57.084 138.533 56.4954C138.116 55.8402 137.904 54.827 137.904 53.4861V48.1227C137.904 46.072 137.356 44.4702 136.285 43.3538C135.201 42.2314 133.738 41.6611 131.931 41.6611C129.888 41.6611 128.275 42.3346 127.111 43.6693C126.749 42.0433 125.678 41.6611 124.75 41.6611C123.872 41.6611 123.249 41.9038 122.894 42.3831L122.807 42.5044V42.6501V50.3008C122.614 52.7216 121.667 54.742 119.985 56.3074C118.079 58.079 115.837 58.9769 113.327 58.9769C110.792 58.9769 108.787 58.4309 107.367 57.3509C105.959 56.2831 105.28 54.7117 105.28 52.5335C105.28 50.3736 106.071 48.8204 107.703 47.7951C109.378 46.7394 111.577 46.2054 114.237 46.2054C115.27 46.2054 115.868 45.6837 115.868 44.7675C115.868 44.2882 115.669 43.906 115.295 43.6572C114.971 43.4388 114.616 43.3296 114.237 43.3296C109.304 43.3296 106.906 41.6368 106.906 38.1542C106.906 36.4858 107.385 35.2723 108.376 34.435C109.372 33.5917 110.674 33.167 112.262 33.167C113.869 33.167 115.177 33.4825 116.155 34.1135C117.083 34.7081 117.538 35.5878 117.538 36.7952C117.538 37.2866 117.469 37.7053 117.338 38.0268L117.245 38.2513L117.382 38.4515C117.681 38.8884 118.241 39.1068 119.051 39.1068C119.568 39.1068 120.066 38.8702 120.546 38.4091C121.025 37.9419 121.262 37.3291 121.262 36.5768C121.262 34.878 120.477 33.4036 118.933 32.1962C117.419 31.0131 115.165 30.4125 112.237 30.4125C109.316 30.4125 106.931 31.0738 105.149 32.3722C103.324 33.7009 102.403 35.6485 102.403 38.1603C102.403 39.3192 102.589 40.3688 102.957 41.2728C103.331 42.1829 103.773 42.8867 104.284 43.3538C104.863 43.9302 105.511 44.3853 106.214 44.719C105.747 44.8646 105.268 45.0648 104.782 45.3136C104.066 45.6897 103.418 46.163 102.857 46.7211C102.284 47.2915 101.786 48.0923 101.381 49.0995C100.976 50.1067 100.765 51.2655 100.765 52.5518C100.765 55.4701 101.973 57.7695 104.358 59.3895C106.688 60.973 109.621 61.7739 113.066 61.7739C114.984 61.7739 116.759 61.4281 118.335 60.7546C119.917 60.0751 121.212 59.1711 122.184 58.0668C122.402 57.8181 122.614 57.5633 122.807 57.3024C122.857 58.0426 123.093 58.625 123.511 59.0497C123.99 59.529 124.619 59.7717 125.398 59.7717C126.201 59.7717 126.787 59.529 127.135 59.0497L127.223 58.9284V58.7828V52.3212C127.223 49.2208 127.64 47.0002 128.468 45.7201C129.266 44.4884 130.237 43.8938 131.452 43.8938C132.685 43.8938 133.314 45.2529 133.314 47.9346V52.3576C133.314 54.6692 133.837 56.4894 134.865 57.7756C135.924 59.0922 137.45 59.7657 139.405 59.7657C141.367 59.7657 142.881 59.0558 143.915 57.6482C144.232 57.2114 144.506 56.726 144.724 56.1981C145.061 56.6896 145.453 57.1264 145.902 57.5147C147.639 58.9951 150.037 59.7475 153.033 59.7475ZM163.478 38.3605C163.497 35.1267 163.571 32.985 163.702 31.99C163.827 31.0617 164.063 30.6491 164.25 30.6491C165.06 30.6491 165.178 32.3297 165.178 33.3308C165.178 34.9508 164.605 36.6374 163.478 38.3605ZM204.479 40.7874C204.492 36.1399 204.61 33.2155 204.822 32.0931C204.99 31.0435 205.14 30.819 205.171 30.7886C205.221 30.728 205.314 30.6552 205.526 30.6552C206.454 30.6552 206.921 31.723 206.921 33.8283C206.921 36.9165 206.099 39.2524 204.479 40.7874ZM216.55 45.0405C216.905 44.628 217.279 44.3549 217.659 44.2336C218.076 44.1001 218.655 44.0273 219.39 44.0273C220.038 44.0273 220.623 44.3307 221.165 44.9617C221.72 45.6048 222.006 46.4724 222.006 47.5402V52.7156C222.006 54.1171 221.595 55.2213 220.754 56.0889C219.932 56.9323 219.191 57.363 218.549 57.363C217.864 57.363 217.322 57.2417 216.936 56.999C216.681 56.8413 216.295 56.3923 215.89 55.1485C215.541 54.0928 215.367 52.57 215.367 50.6406C215.367 47.0367 215.996 45.6108 216.525 45.0527L216.531 45.0466L216.55 45.0405Z" fill="#222222"/>
<path d="M134.491 83.1064C133.713 83.1064 133.495 83.434 133.451 83.7131L133.445 83.7495V83.7859C133.445 86.5889 133.034 88.5183 132.224 89.5133C131.57 90.3021 130.91 90.7025 130.262 90.7025C129.621 90.7025 129.141 90.4234 128.755 89.8228C128.338 89.1675 128.126 88.1543 128.126 86.8134V75.9653V75.7772L127.989 75.6437C127.54 75.2069 126.93 74.9824 126.183 74.9824C125.448 74.9824 124.806 75.219 124.277 75.6862C123.741 76.1655 123.467 76.8571 123.467 77.7429V83.525C123.467 85.8912 123.019 87.7357 122.134 89.0158C121.275 90.2536 120.365 90.8542 119.356 90.8542C118.123 90.8542 117.494 89.4951 117.494 86.8134V75.9653V75.7772L117.357 75.6437C116.908 75.2069 116.311 74.9824 115.594 74.9824C114.872 74.9824 114.261 75.2251 113.788 75.7044C113.315 76.1837 113.072 76.8632 113.072 77.7369V83.4643C113.034 83.5189 113.003 83.5796 112.978 83.6403L112.953 83.707V83.7798C112.953 86.2735 112.598 88.0876 111.901 89.1675C111.234 90.1929 110.213 90.6965 108.768 90.6965C107.821 90.6965 107.005 90.3688 106.277 89.6893C105.554 89.0158 105.199 88.0754 105.199 86.8074V77.7369H111.365H111.832V77.2818C111.832 76.6933 111.714 76.2625 111.477 75.9774C111.21 75.6619 110.742 75.5041 110.051 75.5041H105.205V70.3652V70.1771L105.068 70.0436C104.62 69.6068 104.022 69.3823 103.306 69.3823C102.583 69.3823 101.973 69.625 101.499 70.1043C101.026 70.5836 100.783 71.2632 100.783 72.1368V86.0126C100.783 88.3302 101.475 90.1079 102.839 91.3032C104.19 92.4863 106.027 93.0809 108.307 93.0809C110.624 93.0809 112.374 92.3467 113.508 90.8967C113.626 90.7511 113.738 90.5933 113.844 90.4295C114.075 90.8421 114.361 91.2061 114.691 91.5277C115.762 92.553 117.176 93.0748 118.895 93.0748C121.412 93.0748 123.261 92.0858 124.414 90.1261C125.448 92.0858 127.254 93.0748 129.795 93.0748C131.651 93.0748 133.121 92.3649 134.149 90.9573C135.145 89.5983 135.65 87.7842 135.65 85.5514C135.656 84.8901 135.656 83.1064 134.491 83.1064Z" fill="#222222"/>
<path d="M250.127 77.3484C248.595 75.777 246.596 74.9762 244.185 74.9762C241.769 74.9762 239.788 75.7831 238.293 77.3727C236.942 78.8106 236.194 80.8007 236.082 83.2883C235.927 83.3914 235.846 83.5249 235.808 83.6401L235.783 83.7069V83.7797C235.783 86.2733 235.428 88.0874 234.731 89.1674C234.064 90.1927 233.043 90.6963 231.598 90.6963C230.651 90.6963 229.835 90.3687 229.106 89.6892C228.384 89.0157 228.029 88.0753 228.029 86.8072V77.7367H234.195H234.662V77.2817C234.662 76.6932 234.544 76.2624 234.307 75.9772C234.039 75.6618 233.572 75.504 232.881 75.504H228.035V70.3651V70.177L227.898 70.0435C227.45 69.6067 226.852 69.3822 226.136 69.3822C225.413 69.3822 224.803 69.6249 224.329 70.1042C223.856 70.5835 223.613 71.263 223.613 72.1367V83.5067C223.569 83.5795 223.551 83.6462 223.544 83.7069L223.538 83.7433V83.7797C223.538 86.3522 223.208 88.1906 222.56 89.2341C221.95 90.217 221.284 90.6963 220.536 90.6963C219.783 90.6963 219.234 90.4051 218.855 89.8166C218.437 89.1613 218.225 88.1481 218.225 86.8072V81.4438C218.225 79.3931 217.677 77.7913 216.606 76.675C215.522 75.5525 214.059 74.9822 212.252 74.9822C210.21 74.9822 208.596 75.6557 207.432 76.9905C207.07 75.3645 205.999 74.9822 205.071 74.9822C204.193 74.9822 203.57 75.2249 203.215 75.7042L203.128 75.8256V75.9712V83.9739C203.084 84.0467 203.066 84.1134 203.059 84.1741L203.053 84.2105V84.2469C203.053 86.3765 202.455 87.9964 201.278 89.0764C200.076 90.1745 198.774 90.7084 197.292 90.7084C195.822 90.7084 194.632 90.3323 193.754 89.5921C192.976 88.9368 192.459 87.9782 192.197 86.7344C194.558 86.6495 196.551 85.9882 198.12 84.7747C199.846 83.4399 200.724 81.7411 200.724 79.7147C200.724 78.4466 200.306 77.3363 199.484 76.4141C198.643 75.4676 197.323 74.9883 195.56 74.9883C193.181 74.9883 191.201 75.8195 189.668 77.4577C188.273 78.9502 187.513 80.9948 187.401 83.5431C187.376 83.5977 187.358 83.6583 187.345 83.7129L187.339 83.7494V83.7858C187.339 86.1702 186.903 87.9479 186.037 89.0703C185.19 90.1685 184.144 90.7024 182.842 90.7024C182.039 90.7024 181.291 90.5507 180.612 90.2534C182.58 87.6991 183.583 84.0709 183.583 79.4416C183.583 77.9976 183.172 76.8145 182.362 75.9287C181.534 75.0247 180.432 74.5697 179.086 74.5697C177.156 74.5697 175.76 75.2917 174.938 76.7114C174.166 78.0462 173.774 80.0241 173.774 82.5845C173.774 84.0406 174.054 85.5635 174.614 87.1167C175.106 88.4939 175.829 89.6831 176.757 90.6599C176.464 90.7934 176.14 90.8601 175.792 90.8601C173.101 90.8601 171.799 88.6092 171.799 83.9799V75.9712V75.7831L171.662 75.6496C171.214 75.2128 170.616 74.9883 169.899 74.9883C169.177 74.9883 168.567 75.231 168.093 75.7103C167.62 76.1896 167.383 76.8752 167.383 77.7428V83.7918C167.383 84.3197 167.414 84.8475 167.477 85.4057C167.047 87.0439 166.2 88.4575 164.948 89.6224C163.042 91.3941 160.8 92.292 158.29 92.292C155.755 92.292 153.749 91.746 152.329 90.666C150.922 89.5982 150.243 88.0268 150.243 85.8486C150.243 83.6887 151.034 82.1355 152.666 81.1101C154.341 80.0544 156.54 79.5205 159.199 79.5205C160.233 79.5205 160.831 78.9987 160.831 78.0826C160.831 77.6033 160.632 77.221 160.258 76.9723C159.934 76.7539 159.579 76.6446 159.199 76.6446C154.266 76.6446 151.868 74.9519 151.868 71.4693C151.868 69.8008 152.348 68.5874 153.338 67.7501C154.335 66.9068 155.637 66.4821 157.225 66.4821C158.832 66.4821 160.14 66.7976 161.117 67.4285C162.046 68.0231 162.5 68.9029 162.5 70.1103C162.5 70.6017 162.432 71.0203 162.301 71.3419L162.207 71.5664L162.344 71.7666C162.643 72.2034 163.204 72.4219 164.014 72.4219C164.531 72.4219 165.029 72.1853 165.508 71.7241C165.988 71.263 166.225 70.6442 166.225 69.8918C166.225 68.193 165.44 66.7187 163.895 65.5113C162.382 64.3282 160.127 63.7275 157.2 63.7275C154.279 63.7275 151.893 64.3889 150.112 65.6873C148.287 67.016 147.365 68.9636 147.365 71.4754C147.365 72.6342 147.552 73.6839 147.92 74.5879C148.293 75.498 148.735 76.2017 149.246 76.6689C149.825 77.2453 150.473 77.7003 151.177 78.034C150.71 78.1797 150.23 78.3799 149.744 78.6286C149.028 79.0048 148.38 79.478 147.82 80.0362C147.247 80.6065 146.749 81.4074 146.344 82.4146C145.939 83.4217 145.727 84.5806 145.727 85.8668C145.727 88.7852 146.935 91.0846 149.321 92.7046C151.65 94.2881 154.584 95.089 158.028 95.089C159.947 95.089 161.722 94.7432 163.297 94.0697C164.879 93.3902 166.175 92.4862 167.147 91.3819C167.726 90.7267 168.23 90.0289 168.641 89.3069C168.909 89.7741 169.214 90.1988 169.563 90.5932C171.033 92.2495 172.97 93.0929 175.331 93.0929C176.489 93.0929 177.598 92.7652 178.638 92.1221C179.74 92.7652 181.042 93.0929 182.512 93.0929C184.879 93.0929 186.673 92.3345 187.85 90.8359C188.198 90.393 188.497 89.9015 188.74 89.3797C189.095 89.9258 189.525 90.4172 190.017 90.8419C191.742 92.3345 194.041 93.0929 196.862 93.0929C199.628 93.0929 201.745 92.3102 203.165 90.7631C203.234 91.4365 203.464 91.9704 203.857 92.3709C204.336 92.8502 204.965 93.0929 205.744 93.0929C206.547 93.0929 207.133 92.8502 207.482 92.3709L207.569 92.2495V92.1039V85.6423C207.569 82.542 207.986 80.3274 208.814 79.0473C209.612 77.8156 210.583 77.221 211.798 77.221C213.031 77.221 213.66 78.5801 213.66 81.2618V85.6848C213.66 87.9964 214.183 89.8166 215.211 91.1028C216.27 92.4194 217.796 93.0929 219.751 93.0929C221.713 93.0929 223.227 92.383 224.261 90.9754C224.435 90.7388 224.591 90.49 224.734 90.2231C225.002 90.6356 225.32 90.9997 225.681 91.3152C227.032 92.4983 228.87 93.0929 231.149 93.0929C233.466 93.0929 235.216 92.3587 236.35 90.9087C236.755 90.399 237.085 89.8226 237.34 89.2038C237.658 89.7377 238.038 90.2292 238.474 90.666C240.068 92.2738 242.093 93.0929 244.491 93.0929C246.907 93.0929 248.863 92.1828 250.308 90.3869C251.728 88.6274 252.444 86.3886 252.444 83.7372C252.425 81.0616 251.653 78.9199 250.127 77.3484ZM240.673 83.5127C241.295 84.3986 242.08 85.2237 243.033 85.9882C244.366 87.0621 245.842 87.8083 247.418 88.2088C247.219 89.0521 246.913 89.671 246.496 90.0532C246.029 90.484 245.338 90.7024 244.434 90.7024C243.102 90.7024 242.174 90.2352 241.601 89.2644C240.984 88.233 240.673 86.4493 240.673 83.9739C240.673 83.81 240.673 83.6584 240.673 83.5127ZM242.105 78.8713C242.105 78.3859 242.279 78.0462 242.659 77.7914C243.089 77.5001 243.594 77.3606 244.198 77.3606C245.599 77.3606 246.521 77.7974 247.007 78.6893C247.536 79.6661 247.804 81.4438 247.804 83.9739C247.804 84.4956 247.785 85.1145 247.754 85.8243C246.303 85.3268 245.014 84.4471 243.93 83.2094C242.722 81.8261 242.105 80.3639 242.105 78.8713ZM192.739 78.8288C193.2 77.8278 193.891 77.3606 194.931 77.3606C195.592 77.3606 196.084 77.5608 196.432 77.9734C196.8 78.4041 196.987 79.0655 196.987 79.9331C196.987 81.3225 196.476 82.3357 195.423 83.0334C194.446 83.6826 193.287 84.1255 191.979 84.3561C191.998 81.7593 192.253 79.8967 192.739 78.8288ZM178.482 77.5123C179.379 77.5123 179.566 79.0958 179.566 80.4245C179.566 84.0467 179.192 86.7648 178.451 88.5303C177.261 86.9346 176.657 84.7201 176.657 81.9353C176.664 78.9987 177.274 77.5123 178.482 77.5123Z" fill="#222222"/>
<path d="M75.0351 77.1783C74.3313 77.6698 73.5901 77.8518 72.7244 77.6031C66.1535 75.7101 59.5825 73.8353 53.0116 71.9545C52.8808 71.9181 52.75 71.8817 52.6316 71.821C52.2642 71.6511 52.1334 71.3538 52.258 70.9898C52.3763 70.6379 52.669 70.5044 53.0365 70.559C53.1984 70.5833 53.3541 70.6318 53.5099 70.6804C58.4676 72.094 63.4192 73.5138 68.377 74.9274C68.5389 74.976 68.7507 75.0245 68.8939 74.9638C70.0836 74.4966 71.2607 74.0052 72.4877 73.5016C72.1016 73.0587 71.7279 72.6643 71.3915 72.2396C71.1984 71.9909 71.0303 71.9787 70.75 72.094C69.5853 72.5915 68.4144 73.0587 67.2434 73.5441C66.5645 73.8232 66.1535 73.7443 65.9728 73.3075C65.7984 72.8828 66.0164 72.5612 66.6766 72.2942C67.6296 71.9059 68.5763 71.5176 69.5292 71.1233C69.7285 71.0383 69.9279 70.9534 70.1645 70.8502C69.7846 70.4073 69.4233 70.019 69.0995 69.6125C68.9188 69.388 68.7631 69.3274 68.4642 69.4548C67.2746 69.9644 66.0725 70.4437 64.8766 70.9352C64.7832 70.9776 64.6836 71.0201 64.5839 71.0505C64.1541 71.19 63.7929 71.0565 63.6372 70.7168C63.4752 70.3649 63.631 69.9766 64.0607 69.7945C65.132 69.3395 66.2095 68.9087 67.2808 68.4658C67.4676 68.3869 67.6545 68.3081 67.86 68.2231C67.4739 67.7802 67.1064 67.398 66.7888 66.9733C66.5832 66.6942 66.3901 66.7185 66.1099 66.8338C64.9327 67.3313 63.7431 67.8106 62.5597 68.2959C62.4476 68.3384 62.3417 68.393 62.2296 68.4294C61.806 68.569 61.4386 68.4355 61.2829 68.0897C61.1209 67.7317 61.2766 67.3555 61.7064 67.1674C62.7465 66.7245 63.7991 66.3059 64.8455 65.8751C65.0697 65.7841 65.2939 65.687 65.5493 65.5839C65.2005 65.1835 64.8704 64.8437 64.5901 64.4675C64.3597 64.152 64.1417 64.1581 63.8116 64.3037C62.4974 64.868 61.1707 65.4019 59.8503 65.9358C59.3832 66.1239 58.9846 65.9904 58.8289 65.6203C58.6669 65.2381 58.8351 64.8983 59.3085 64.686C59.4455 64.6253 59.5825 64.5707 59.7195 64.5161C60.9029 64.0307 62.0863 63.5453 63.3133 63.0357C62.896 62.5503 62.4912 62.1074 62.1175 61.6402C61.9182 61.3914 61.75 61.349 61.4448 61.4764C60.2676 61.98 59.078 62.4593 57.8946 62.9447C57.2469 63.2116 56.8483 63.1327 56.6676 62.702C56.487 62.2833 56.7175 61.9436 57.3652 61.6827C58.5175 61.2094 59.6759 60.7301 60.8718 60.2447C60.2739 59.5652 59.7071 58.916 59.0967 58.2244C58.9721 58.4125 58.8725 58.5581 58.7791 58.7037C56.1881 62.6049 53.597 66.5061 50.9998 70.4013C50.9126 70.5347 50.8254 70.6743 50.7258 70.8017C49.7105 72.1365 47.7735 72.0758 46.8953 70.65C46.6586 70.2678 46.5901 69.7945 46.4344 69.3274C45.6621 69.3213 44.9396 69.0483 44.3355 68.4901C43.7251 67.9198 43.451 67.1917 43.4137 66.3787C41.1901 66.858 39.278 65.1471 39.6144 62.8415C38.5991 62.7869 37.7832 62.3197 37.1604 61.5735C35.6718 59.8018 35.1362 57.6783 34.9431 55.4577C34.8932 54.8874 35.4351 54.4627 36.0081 54.5658C36.4316 54.6447 36.8489 54.7782 37.2538 54.9238C37.5901 55.0452 37.7272 55.3364 37.6586 55.6701C37.5839 56.022 37.3348 56.2222 36.9486 56.204C36.7804 56.1979 36.6123 56.1676 36.4067 56.1373C36.4752 56.4952 36.5251 56.8107 36.5936 57.1262C36.8739 58.3457 37.2663 59.5167 38.0697 60.5117C38.9417 61.5977 39.8199 61.7251 40.9784 60.9607C44.0303 58.9464 47.0822 56.9321 50.1341 54.9177C50.2649 54.8328 50.3832 54.7357 50.5327 54.6326C49.5424 53.7953 48.4462 53.7043 47.3251 54.0319C46.1105 54.3899 44.9458 54.9056 43.7375 55.2818C42.4732 55.6761 41.1901 56.0038 39.9071 56.3253C39.4026 56.4527 39.06 56.2101 38.9915 55.7975C38.923 55.4031 39.1784 55.0634 39.6766 54.9966C41.2213 54.7964 42.6476 54.2382 44.0863 53.6982C45.0891 53.3221 46.0981 52.9398 47.132 52.6789C48.7451 52.2724 50.2462 52.5151 51.5105 53.6679C51.7161 53.856 51.8656 53.7832 52.0649 53.68C53.3666 52.9944 54.8178 53.2675 55.7832 54.3717C55.8642 54.4688 55.9576 54.5537 56.0448 54.6447C56.1071 54.6022 56.1507 54.578 56.1818 54.5537C57.0102 53.9409 57.9382 53.8802 58.8164 54.3899C59.6448 54.8692 60.031 55.7186 59.9002 56.7076C59.8815 56.8714 59.9687 57.0959 60.087 57.2293C64.9638 62.8051 69.8406 68.3869 74.7424 73.9445C75.4026 74.6908 75.7514 75.4613 75.5209 76.4381C75.359 76.693 75.197 76.9357 75.0351 77.1783ZM48.6019 63.0781C47.568 63.7698 46.5341 64.4554 45.5064 65.1531C44.9022 65.5657 44.678 66.318 44.9396 66.9733C45.2074 67.6407 45.9361 68.0533 46.6649 67.944C47.0323 67.8894 47.3313 67.7438 47.5368 67.4101C47.9479 66.7488 48.3901 66.1118 48.8261 65.4626C49.1188 65.0318 49.4801 64.9226 49.8413 65.1288C50.2213 65.3533 50.2836 65.7356 49.9908 66.1906C49.3991 67.1007 48.7887 67.9986 48.1908 68.9027C47.8669 69.3941 47.8794 69.7581 48.1971 70.0979C48.6144 70.5408 49.2123 70.4801 49.5424 69.9766C52.4697 65.5657 55.4033 61.1548 58.3368 56.744C58.6047 56.3375 58.5735 55.9613 58.2185 55.664C57.851 55.3546 57.3528 55.3606 57.0102 55.7065C56.8794 55.8399 56.7673 55.9977 56.6614 56.1555C55.0856 58.5217 53.5099 60.8939 51.9341 63.2662C51.8593 63.3754 51.7908 63.4907 51.7099 63.5938C51.4233 63.9761 51.0559 64.0732 50.7133 63.8608C50.3707 63.6424 50.296 63.2602 50.5514 62.8658C50.9251 62.2894 51.3112 61.7191 51.6912 61.1488C51.6663 61.1245 51.6413 61.1002 51.6164 61.076C50.6137 61.7312 49.6047 62.4047 48.6019 63.0781ZM54.6746 56.6469C54.8489 56.3314 55.2164 56.0887 54.9673 55.6337C54.6932 55.1422 54.3195 54.8025 53.7465 54.6993C53.242 54.6083 52.8185 54.8025 52.4074 55.0755C49.7292 56.8714 47.0386 58.6612 44.3604 60.451C43.451 61.0578 42.5292 61.6584 41.6323 62.2833C41.0656 62.6838 40.86 63.339 41.0593 63.9458C41.2711 64.601 41.8815 65.1046 42.5417 65.0742C42.878 65.0621 43.258 64.9529 43.5382 64.7648C46.9202 62.526 50.296 60.2751 53.6469 57.9999C53.9957 57.7633 54.2074 57.3325 54.4815 56.9927C54.469 56.9867 54.4628 56.9745 54.4503 56.9685C54.5313 56.8714 54.6123 56.7622 54.6746 56.6469ZM73.3223 76.3289C73.64 76.4139 73.9701 76.3532 74.0759 76.0377C74.1569 75.8132 74.1382 75.4795 74.0199 75.2793C73.5652 74.5391 73.5465 74.5512 72.7368 74.8849C72.1887 75.1094 71.6406 75.34 71.0926 75.5645C71.0676 75.5766 71.0427 75.6009 70.9555 75.6615C71.7777 75.9042 72.55 76.1227 73.3223 76.3289Z" fill="url(#paint4_linear_18_4079)"/>
<path d="M37.2912 85.3448C33.3299 86.1639 30.714 90.1015 31.5984 93.9117C32.4953 97.7583 36.413 100.222 40.3493 99.4147C44.3105 98.6017 46.9265 94.6701 46.042 90.8478C45.1451 86.9951 41.2275 84.5318 37.2912 85.3448ZM39.8448 97.0121C37.2226 97.5642 34.5631 95.8836 34.04 93.3414C33.5168 90.7932 35.1922 88.2935 37.7894 87.7414C40.424 87.1893 43.0649 88.8577 43.5943 91.412C44.1175 93.9603 42.4483 96.466 39.8448 97.0121Z" fill="#222222"/>
<path d="M84.795 42.7895C84.6268 42.025 84.3777 41.3152 84.0663 40.6781C82.2663 37.056 78.386 35.2722 74.1756 36.1398C69.9839 37.0014 51.3548 40.8905 51.3548 40.8905L47.4247 22.9922L44.5659 23.5868L48.496 41.485C48.496 41.485 30.4898 45.2285 25.9369 46.1993C25.3763 46.3206 24.8282 46.5148 24.2926 46.7089C23.9002 46.8485 23.4891 47.0002 23.078 47.1094C22.7977 47.1822 22.3929 47.1882 22.1562 47.0487C21.1721 46.4723 20.1943 45.8474 19.2476 45.2407C18.8801 45.004 18.5126 44.7735 18.1452 44.5429C16.0711 43.2385 14.0282 42.7349 12.0787 43.0383C8.86487 43.5358 5.60743 44.2881 2.72992 44.9494C2.21297 45.0708 1.64619 45.453 1.04203 46.1022C-0.13513 47.3581 -0.33444 49.2329 0.543761 50.7618C1.44065 52.315 3.17213 53.1038 4.96591 52.764C7.17698 52.3514 9.39428 51.8721 11.5431 51.4171L12.0164 51.3139C12.0227 51.3139 12.0227 51.3139 12.0289 51.3139C12.7265 51.1683 13.3119 51.2775 13.8787 51.6476C14.8815 52.315 16.0524 53.0795 17.2669 53.7772C18.0393 54.2201 18.6185 54.6327 18.5438 55.6156C18.5126 55.9857 18.6123 56.3558 18.7119 56.7138C18.7431 56.8412 18.7804 56.9747 18.8116 57.1021L20.0199 62.599C21.2593 68.2475 24.249 81.8563 25.4946 87.6141C25.532 87.79 25.5569 87.9842 25.5631 88.1905C24.822 90.4353 24.6912 92.838 25.2019 95.1374C25.9182 98.4016 27.849 101.277 30.6268 103.237C33.386 105.185 36.7618 106.071 40.1126 105.737L40.3057 105.743L40.6358 105.676C41.4019 105.573 41.9002 105.47 42.6289 105.264L43.1272 105.16L43.1459 105.154C43.2891 105.094 43.4324 105.027 43.5694 104.966L43.5943 104.954C46.6587 103.844 49.231 101.69 50.8379 98.893C52.4324 96.1143 52.968 92.8744 52.3514 89.7558L81.2261 83.7371C81.2635 83.9131 81.3071 84.083 81.3445 84.2589C81.4815 84.8535 81.6123 85.4178 81.6933 85.9941C79.3203 87.1469 78.0497 89.7012 78.604 92.2373C79.2766 95.2891 82.3659 97.2367 85.4988 96.5875C88.6317 95.9322 90.631 92.9229 89.9645 89.8711C89.404 87.3289 87.1742 85.5027 84.5147 85.4056C84.3652 84.8232 84.2344 84.2407 84.1036 83.6219C84.0663 83.4459 84.0289 83.276 83.9915 83.1001C84.1722 83.0637 84.3403 83.0273 84.5085 82.9969L84.5396 82.9909C85.0192 82.8999 85.4739 82.8088 85.9161 82.6875L86.159 82.6208C86.7818 82.457 87.4171 82.281 87.9964 81.9958C91.1043 80.4366 92.4559 77.5546 91.7023 74.0963C89.8088 65.5537 86.4081 50.0884 84.795 42.7895ZM17.9583 50.9803C17.1548 50.4767 16.3202 49.9549 15.5292 49.4088C14.2586 48.5352 12.8697 48.2803 11.2753 48.6444C9.83027 48.972 8.36037 49.2754 6.93408 49.5666L6.90916 49.5727C6.32369 49.694 5.732 49.8153 5.14653 49.9367L4.99705 49.967C4.8102 50.0034 4.61089 50.0459 4.42404 50.0641C3.64549 50.149 2.98529 49.7061 2.84826 49.0145C2.71124 48.3046 3.13476 47.6372 3.80743 47.4916C6.42957 46.9274 9.40051 46.2842 12.3216 45.7867C13.5424 45.5744 14.7881 45.8231 15.8282 46.4844C16.887 47.1518 17.8773 47.8678 18.9299 48.6201C19.341 48.9113 19.7521 49.2086 20.1631 49.4998L18.9299 51.593C18.6123 51.3928 18.2884 51.1926 17.9583 50.9803ZM40.9597 102.515C35.186 103.716 29.487 100.125 28.2538 94.5004C27.0206 88.8761 30.7078 83.3246 36.4815 82.1233C42.2552 80.9219 47.9542 84.5137 49.1874 90.138C50.4268 95.7563 46.7334 101.314 40.9597 102.515ZM86.8317 90.5264C87.1369 91.9097 86.2275 93.2748 84.8075 93.566C83.3874 93.8633 81.986 92.9775 81.687 91.5942C81.3819 90.2109 82.2912 88.8457 83.7113 88.5545C85.1251 88.2633 86.5265 89.143 86.8317 90.5264ZM88.9306 74.7637C89.4912 77.3605 88.1521 79.3991 85.5237 79.9573C78.9403 81.3466 65.4372 84.1558 58.9597 85.5027L58.6981 85.5573C56.3874 86.0366 54.0829 86.5159 51.7722 86.9952C51.685 87.0134 51.5978 87.0256 51.4981 87.0377L51.4607 87.0438C48.8697 81.104 42.305 77.7791 35.8213 79.1321C32.5638 79.8117 29.6801 81.6015 27.6746 84.1922L24.5106 69.7886L23.7818 66.6822L23.1839 63.9823C22.6109 61.3916 22.0192 58.7099 21.4524 56.0706C20.8234 53.1159 21.9756 50.7012 24.6227 49.4452C25.1521 49.1965 25.7562 49.0509 26.3355 48.9295C41.8441 45.6896 62.1985 41.4487 74.5742 38.8762C78.386 38.0813 81.2635 39.9015 82.0857 43.6146C82.9452 47.4613 88.2891 71.7908 88.9306 74.7637Z" fill="#222222"/>
<path d="M79.7563 11.8163C79.3826 11.4523 79.0089 11.064 78.6476 10.6817C78.0497 10.0507 77.4331 9.39548 76.7417 8.8373C76.5985 8.72202 76.4552 8.61281 76.312 8.49754C71.9085 4.7298 66.5895 2.23617 60.4234 1.047C59.7071 0.889251 58.9909 0.755773 58.2684 0.658697C46.0358 -0.991585 34.5071 1.29575 24.0061 7.46004C15.9528 12.1864 10.6524 18.739 8.26697 26.9237C7.95555 27.9976 7.94933 29.2413 8.26697 30.1696C9.02683 32.4327 11.1196 33.3852 14.0033 32.7846C21.1161 31.3103 70.3763 20.9899 77.0967 19.6855L77.1839 19.6673C78.1057 19.4731 78.9217 19.097 79.5756 18.5812C80.5535 17.9078 81.1265 16.9734 81.2324 15.8449C81.4628 14.4191 80.9334 12.9509 79.7563 11.8163ZM28.0483 26.2866L27.986 26.2987C25.9867 26.687 23.8504 27.1239 21.0538 27.7063C20.0075 27.9247 18.9611 28.1432 17.9272 28.3616L17.3479 28.4829C16.0026 28.7681 14.6573 29.0472 13.312 29.3263C12.4649 29.5022 11.9417 29.4719 11.7175 29.2353C11.6926 29.2049 11.6677 29.1746 11.649 29.1382C11.6428 29.1261 11.6427 29.1139 11.6365 29.1018C11.6241 29.0715 11.6116 29.0472 11.5992 29.0168C11.5929 28.9865 11.5867 28.9501 11.5805 28.9137C11.5742 28.8955 11.5742 28.8712 11.568 28.853C11.568 28.847 11.568 28.8409 11.568 28.8409C11.5431 28.5618 11.6054 28.1735 11.7611 27.6639C13.9348 20.6198 18.55 14.9288 25.4822 10.7363C27.3632 9.59569 29.431 8.67955 31.4552 7.77554C32.2836 7.40544 33.1369 7.02927 33.9715 6.6349C34.2144 6.51962 34.4947 6.45288 34.8123 6.36794C34.8372 6.36187 34.8559 6.35581 34.8808 6.34974C34.6566 6.76231 34.4324 7.16274 34.2081 7.56318C33.5791 8.69168 32.9874 9.75345 32.4518 10.8637C30.2033 15.5052 29.0884 20.2376 29.1258 24.9336C29.1258 25.8316 28.9078 26.1107 28.0483 26.2866ZM32.6573 25.2552C32.9563 17.0948 35.6407 10.4269 40.8601 4.86934C47.8981 7.80587 53.1549 12.8235 56.9293 20.2012L32.6573 25.2552ZM77.6697 15.4991C77.5639 15.8025 77.103 16.033 76.2621 16.209C74.7922 16.5184 73.3286 16.8218 71.8649 17.1251C68.6075 17.7986 64.914 18.5691 61.3826 19.3336L61.395 19.4003C61.3888 19.4003 61.3888 19.4003 61.3826 19.4003L61.3514 19.3396C60.9902 19.4125 60.7535 19.4064 60.5666 19.2972L60.5604 19.2911C60.3798 19.1819 60.249 18.9756 60.1057 18.6601C58.0255 14.1158 54.8926 10.1175 50.7943 6.76231C49.8912 6.02211 48.9507 5.33045 47.9542 4.60239L47.8981 4.55991C47.5805 4.32329 47.2566 4.08667 46.9265 3.84398L47.0386 3.83185C47.4123 3.78938 47.73 3.75297 48.0538 3.73477C48.3653 3.71657 48.6767 3.69837 48.9881 3.68623C49.5736 3.6923 50.1653 3.69836 50.7383 3.70443C52.3265 3.71657 53.9521 3.72871 55.559 3.84398C58.1625 4.09881 60.6663 4.58418 63.1078 5.31831C63.3445 5.39112 63.5749 5.43359 63.7992 5.44573C65.9044 6.11919 67.8787 6.98073 69.7223 8.03642C69.8158 8.1335 69.9154 8.2245 70.0275 8.30945C70.2206 8.45506 70.4324 8.58855 70.6379 8.71596L70.7563 8.78876C73.0857 10.2449 75.1784 12.0226 76.9784 14.0794C77.5514 14.7286 77.7756 15.1957 77.6697 15.4991Z" fill="#222222"/>
<defs>
<linearGradient id="paint0_linear_18_4079" x1="0.999098" y1="48.3223" x2="22.1317" y2="48.3223" gradientUnits="userSpaceOnUse">
<stop stop-color="#B98F33"/>
<stop offset="0.2279" stop-color="#FEDEA0"/>
<stop offset="0.414" stop-color="#EAC15B"/>
<stop offset="0.586" stop-color="#A77D1E"/>
<stop offset="0.7721" stop-color="#C9981F"/>
<stop offset="1" stop-color="#976D14"/>
</linearGradient>
<linearGradient id="paint1_linear_18_4079" x1="32.5029" y1="92.3168" x2="45.1314" y2="92.3168" gradientUnits="userSpaceOnUse">
<stop stop-color="#B98F33"/>
<stop offset="0.2279" stop-color="#FEDEA0"/>
<stop offset="0.414" stop-color="#EAC15B"/>
<stop offset="0.586" stop-color="#A77D1E"/>
<stop offset="0.7721" stop-color="#C9981F"/>
<stop offset="1" stop-color="#976D14"/>
</linearGradient>
<linearGradient id="paint2_linear_18_4079" x1="9.16295" y1="18.0358" x2="36.5666" y2="18.0358" gradientUnits="userSpaceOnUse">
<stop stop-color="#B98F33"/>
<stop offset="0.2279" stop-color="#FEDEA0"/>
<stop offset="0.414" stop-color="#EAC15B"/>
<stop offset="0.586" stop-color="#A77D1E"/>
<stop offset="0.7721" stop-color="#C9981F"/>
<stop offset="1" stop-color="#976D14"/>
</linearGradient>
<linearGradient id="paint3_linear_18_4079" x1="44.8124" y1="12.2675" x2="80.1998" y2="12.2675" gradientUnits="userSpaceOnUse">
<stop stop-color="#B98F33"/>
<stop offset="0.2279" stop-color="#FEDEA0"/>
<stop offset="0.414" stop-color="#EAC15B"/>
<stop offset="0.586" stop-color="#A77D1E"/>
<stop offset="0.7721" stop-color="#C9981F"/>
<stop offset="1" stop-color="#976D14"/>
</linearGradient>
<linearGradient id="paint4_linear_18_4079" x1="34.9376" y1="65.1141" x2="75.594" y2="65.1141" gradientUnits="userSpaceOnUse">
<stop stop-color="#B98F33"/>
<stop offset="0.2279" stop-color="#FEDEA0"/>
<stop offset="0.414" stop-color="#EAC15B"/>
<stop offset="0.586" stop-color="#A77D1E"/>
<stop offset="0.7721" stop-color="#C9981F"/>
<stop offset="1" stop-color="#976D14"/>
</linearGradient>
</defs>
</svg>
