<svg width="73" height="95" viewBox="0 0 73 95" fill="none" xmlns="http://www.w3.org/2000/svg">
<path d="M58.9601 25.8785C58.7733 25.4409 58.5507 25.0226 58.3064 24.6199C58.3411 24.5755 58.3614 24.5347 58.3782 24.4998C58.7171 23.4963 58.0136 22.5054 57.6938 22.1268C57.6276 22.0466 57.4991 21.9412 57.3465 21.8215C57.1867 21.6935 56.8587 21.4241 56.8298 21.3294C56.6838 20.2031 56.2191 19.249 55.515 18.6408C54.7929 18.0218 53.5223 17.9593 52.6267 18.2716C53.0465 16.1918 52.6295 14.4349 51.5426 13.7446C50.6994 13.2123 49.596 13.3882 48.4195 14.2456C48.2434 11.7242 47.3351 10.2441 46.2217 9.50949C46.3044 8.82552 46.2288 8.12024 46.0081 7.46679C45.7561 6.72942 45.3266 6.05715 44.7391 5.54712C44.5696 5.40105 44.3943 5.2718 44.2057 5.15096C44.0604 5.06004 43.9079 4.98113 43.7518 4.90822C43.4048 4.74568 43.0387 4.62875 42.663 4.55503C41.6826 4.36841 40.6379 4.49382 39.7533 4.95126C39.0401 5.31962 38.4089 5.89179 37.7198 6.2949C37.4441 6.45614 37.1624 6.59341 36.8627 6.67911C36.7104 6.72257 36.5593 6.75043 36.3949 6.76631C35.692 6.83114 35.0078 6.58521 34.3248 6.40525C34.1712 6.36234 34.0152 6.33022 33.864 6.2969C33.816 6.28858 33.768 6.28027 33.7187 6.26716C33.6119 6.24815 33.4991 6.22556 33.3935 6.21135C33.3407 6.20424 33.2819 6.19355 33.2291 6.18644C33.1187 6.17344 33.0083 6.16044 32.8979 6.14744C32.8511 6.14392 32.7984 6.13681 32.7516 6.1333C32.5956 6.12158 32.4396 6.10985 32.28 6.10414C32.28 6.10414 32.28 6.10414 32.2752 6.10534C32.1205 6.09842 31.9621 6.0975 31.8049 6.10137C31.7546 6.10386 31.7042 6.10635 31.6574 6.10283C31.5458 6.10543 31.4342 6.10803 31.3239 6.11542C31.2687 6.11912 31.2135 6.12281 31.1584 6.12651C31.048 6.1339 30.934 6.1473 30.8237 6.15469C30.7745 6.16198 30.7289 6.16325 30.6798 6.17054C30.5214 6.19001 30.3631 6.20949 30.2072 6.23856C30.2072 6.23856 30.2072 6.23856 30.2024 6.23976C30.0453 6.26403 29.8894 6.2931 29.7347 6.32697C29.6867 6.33905 29.6375 6.34633 29.5896 6.35841C29.472 6.37782 29.3617 6.4056 29.2514 6.43339C29.1986 6.44668 29.1459 6.45997 29.0931 6.47326C28.9828 6.50105 28.8737 6.53363 28.7645 6.56621C28.7166 6.5783 28.6698 6.59517 28.6266 6.60605C28.3197 6.70376 28.0152 6.81107 27.7191 6.93156C27.6723 6.94844 27.6267 6.97012 27.5848 6.98579C27.4781 7.02796 27.3726 7.07494 27.2719 7.1207C27.2216 7.14359 27.1712 7.16647 27.1209 7.18935C27.0154 7.23633 26.9159 7.28689 26.8116 7.33866C26.7661 7.36033 26.7253 7.3808 26.6797 7.40248C26.5359 7.47951 26.3921 7.55654 26.2531 7.63237C24.7861 8.47114 23.4925 9.61313 22.5231 10.9693C13.9247 10.8345 11.8561 18.8233 10.9079 21.3167C10.8924 21.3563 10.8816 21.3947 10.8709 21.4332C10.7776 21.5689 10.7058 21.7094 10.6545 21.8498C9.01594 24.0122 8.18315 26.6194 8.40168 29.4515C8.40179 29.5126 8.4019 29.5738 8.39842 29.641C8.39512 29.8102 8.39665 29.9985 8.39701 30.2025C8.39652 30.6056 8.40694 31.0722 8.42226 31.5989C8.45771 32.6509 8.52116 33.9357 8.65094 35.4231C8.78194 36.9153 8.96368 38.6089 9.31608 40.4738C9.49528 41.4081 9.71054 42.3842 10.0554 43.389C10.2327 43.8901 10.4339 44.4056 10.7359 44.9162C10.754 44.9473 10.7768 44.9773 10.7961 45.0133C10.9445 46.1695 11.0977 47.3245 11.2509 48.5C11.4211 49.7629 11.5901 51.0415 11.758 52.3357C12.108 54.9204 12.4774 57.5615 12.878 60.2457C13.2786 62.9299 13.7117 65.662 14.2001 68.4313C14.6885 71.2005 15.2261 74.0032 15.8849 76.8214C16.2136 78.2076 16.5604 79.5843 16.9743 80.944C17.1806 81.6214 17.4013 82.2953 17.6568 82.9655C17.9172 83.6344 18.1906 84.295 18.5589 84.947C18.743 85.273 18.9463 85.5941 19.224 85.9068C19.4837 86.1882 19.748 86.4481 20.0328 86.6875C20.6011 87.1616 21.222 87.5612 21.8596 87.8852C23.1409 88.5368 24.49 88.9519 25.8294 89.2471C28.5202 89.8242 31.2053 89.9334 33.8073 89.8544C36.4116 89.7647 38.9472 89.4627 41.3913 88.9593C42.6122 88.7028 43.8113 88.4008 44.9755 88.0004C45.557 87.7978 46.1325 87.5713 46.6946 87.292C46.9751 87.1499 47.252 86.9935 47.53 86.801C47.5995 86.7529 47.669 86.7048 47.7312 86.6483C47.7995 86.5954 47.8678 86.5425 47.9325 86.4752L48.0319 86.3838L48.1277 86.2781C48.2007 86.2036 48.2318 86.1448 48.2821 86.0811L48.5586 85.7003C48.6495 85.5754 48.7225 85.4397 48.8026 85.3124C48.8816 85.1803 48.9617 85.053 49.0359 84.9221L49.2427 84.5282C49.3862 84.2676 49.5069 83.9975 49.6288 83.7321C49.6874 83.6 49.7507 83.4668 49.8093 83.3347L49.9741 82.9361C50.4149 81.8712 50.785 80.8088 51.1118 79.7573C51.7751 77.6519 52.2934 75.5983 52.7566 73.6096C53.2162 71.6269 53.6063 69.7127 53.9558 67.8801C54.6511 64.221 55.1731 60.8862 55.5927 57.9546C56.0122 55.023 56.3112 52.4839 56.5379 50.4069C56.7586 48.3262 56.9009 46.704 56.9781 45.5929C56.9979 45.2666 57.0142 44.987 57.027 44.7542C57.142 44.6437 57.263 44.5367 57.3744 44.4321L57.4115 44.3972L57.4522 44.3564C57.481 44.3287 57.5085 44.2963 57.5372 44.2687C57.5887 44.2098 57.645 44.1497 57.6905 44.0872C57.7862 43.9611 57.87 43.8278 57.9429 43.6921C58.0159 43.5564 58.0768 43.4135 58.1269 43.2683C58.1532 43.1903 58.1687 43.1302 58.189 43.069L58.245 42.8866C58.3166 42.6441 58.3833 42.4028 58.4513 42.1664C58.5812 41.6899 58.7088 41.2242 58.8219 40.7621C59.7416 37.1026 60.1225 34.0379 60.0444 31.905C60.0115 30.9441 59.8854 30.1801 59.7393 29.6405C59.7166 28.3353 59.4744 27.07 58.9601 25.8785ZM43.2633 14.9781C43.3206 14.8208 43.3887 14.666 43.4628 14.5147C43.763 14.6941 44.0465 14.9083 44.2941 15.1419C44.4671 15.3023 44.633 15.4748 44.7845 15.6509C44.038 16.1908 43.6477 17.3348 43.677 18.2813C43.5762 18.2863 43.4838 18.2841 43.3962 18.2806C42.9457 17.2413 42.8836 16.0429 43.2633 14.9781ZM44.1673 28.9565C44.7682 30.2284 45.6794 31.3149 46.5596 32.4194C46.5224 32.4339 46.4804 32.4496 46.4421 32.4592C46.3246 32.499 46.2035 32.5448 46.0812 32.5858C45.8426 32.6714 45.5908 32.7655 45.3486 32.8367C45.1076 32.9127 44.8654 32.9635 44.6422 32.9687C44.581 32.9688 44.5138 32.9653 44.4515 32.9606C44.3781 32.2037 43.9105 30.9749 43.0264 31.0292C43.03 31.0028 43.0383 30.9752 43.0431 30.9536C43.1312 30.5744 43.2685 30.2286 43.4096 29.9176C43.6378 29.4266 43.8759 29.035 44.0709 28.736C44.0998 28.8103 44.1335 28.8834 44.1673 28.9565ZM39.3686 25.6203C39.776 25.3136 40.2266 25.0777 40.7281 25.0432C40.7832 25.0395 40.8384 25.0358 40.8948 25.0369C40.9152 25.0369 40.9368 25.0416 40.9572 25.0416C40.9884 25.0439 41.0244 25.0451 41.0556 25.0474C41.082 25.051 41.1132 25.0533 41.1396 25.0569C41.166 25.0604 41.1876 25.0652 41.214 25.0687C41.2464 25.0759 41.2788 25.083 41.3112 25.0902C41.3328 25.0949 41.3496 25.1009 41.3712 25.1057C41.4048 25.1176 41.4432 25.1283 41.4768 25.1403C41.4936 25.1462 41.5044 25.1486 41.5212 25.1546C41.5609 25.1701 41.5993 25.1808 41.6341 25.1976C41.6449 25.1999 41.6521 25.2083 41.6629 25.2107C41.7037 25.231 41.7433 25.2466 41.7842 25.2669C41.7902 25.2705 41.795 25.2693 41.7962 25.2741C41.843 25.298 41.8838 25.3183 41.9271 25.3482C42.2802 25.5551 42.5902 25.8545 42.8415 26.184C42.8394 26.3376 42.8277 26.4935 42.8028 26.6579C42.7352 27.1391 42.5658 27.6409 42.3483 28.1548C42.2396 28.4117 42.1129 28.6578 41.9453 28.8633C41.7765 29.0639 41.5644 29.1939 41.3316 29.1811C41.094 29.1695 40.7903 29.0369 40.4938 28.933C40.1996 28.8184 39.9031 28.6941 39.6125 28.5531C39.2931 28.3989 38.9845 28.2267 38.6975 28.0388C39.3429 27.3611 39.4889 26.503 39.3686 25.6203ZM36.0024 30.4621C36.2251 30.2326 36.5043 30.045 36.8281 29.9736C37.2431 29.8793 37.7016 29.9985 38.1039 30.2797C38.5159 30.5585 38.8921 30.9585 39.3403 31.32C39.5577 31.4948 39.7536 31.6648 39.8775 31.853C40.0002 32.0363 40.0413 32.2606 40.0226 32.4897C39.9898 32.9469 39.7013 33.3409 39.3672 33.6546C38.8617 34.1186 38.2888 34.4363 37.7541 34.6424C37.7484 34.0929 37.5003 33.5535 36.9791 33.2665C36.5336 33.0166 36.0044 32.9407 35.4777 32.9356C35.5518 32.0957 35.7291 31.2604 36.0024 30.4621ZM26.3801 36.1656C26.8071 36.0989 27.2317 36.043 27.6575 36.0122C27.8722 35.9939 28.0846 35.9863 28.3017 35.9775C28.5188 35.9687 28.7336 35.9708 28.9495 35.9776C29.0419 35.9798 29.1295 35.9833 29.2231 35.9903C29.4535 36.0139 29.6755 36.0651 29.8557 36.1931C29.8929 36.2194 29.9254 36.247 29.959 36.2793C30.1453 36.4721 30.2117 36.736 30.235 37.0106C30.2387 37.0658 30.2412 37.1162 30.2449 37.1714C30.2438 37.2074 30.2486 37.247 30.2475 37.2829C30.2477 37.4053 30.2479 37.5277 30.2494 37.6549C30.2277 37.6297 30.2049 37.5997 30.1832 37.5746C29.9404 37.3195 29.6378 37.1509 29.3281 37.035C29.0172 36.9144 28.7003 36.8514 28.3883 36.8075C28.0811 36.7625 27.7788 36.7366 27.4788 36.7204C26.8813 36.6974 26.2983 36.732 25.7574 36.8122C25.4876 36.8546 25.2201 36.9067 24.9707 36.9695L24.8748 36.9937L24.7669 37.0311C24.7285 37.0407 24.6973 37.0588 24.6614 37.078C24.6254 37.0973 24.593 37.1106 24.5595 37.1394C24.4289 37.2284 24.3296 37.3606 24.2722 37.4974C24.2089 37.6307 24.1875 37.7687 24.1745 37.8995C24.1616 38.0303 24.1714 38.1502 24.1812 38.2702C24.2044 38.5041 24.254 38.7211 24.3155 38.925C24.5533 39.7272 24.8698 40.3157 25.0829 40.716C25.3019 41.1199 25.4415 41.3296 25.469 41.3175C25.4559 41.326 25.4668 41.3895 25.5101 41.501C25.5535 41.6125 25.627 41.7827 25.7905 41.966C25.954 42.1493 26.2386 42.3071 26.5854 42.3473C26.9334 42.3923 27.3411 42.31 27.7211 42.1174C28.1058 41.9235 28.4725 41.6578 28.8462 41.3392C29.22 41.0206 29.5828 40.6385 29.9155 40.1976C30.0843 39.9765 30.2422 39.7327 30.3713 39.4554C30.3844 39.4266 30.3976 39.3977 30.4107 39.3689C30.4687 39.5788 30.5506 39.7826 30.6589 39.9695C30.7215 40.0762 30.7985 40.1792 30.885 40.2799C31.0341 40.4464 31.2095 40.5756 31.398 40.6761C31.9071 40.9355 32.537 40.9656 33.1138 40.805C33.1261 40.9957 33.142 41.1601 33.1578 41.304C33.2053 41.695 33.2477 41.9037 33.2777 41.9012C33.3077 41.8988 33.3241 41.6804 33.3282 41.2917C33.3291 41.1333 33.3324 40.9438 33.3392 40.7278C33.6137 40.623 33.8774 40.4749 34.0954 40.2874C34.3769 40.0482 34.6104 39.7598 34.797 39.4476C34.8723 39.3215 34.9417 39.1918 34.999 39.0549C35.0815 38.876 35.1471 38.6912 35.202 38.5039C35.5356 38.5321 35.8872 38.6323 36.2402 38.7576C36.2094 39.6886 36.2257 40.7863 36.6075 41.6134C36.5034 41.7468 36.398 41.8753 36.2915 41.9991C35.9945 42.3391 35.6976 42.6588 35.3969 42.9028C35.0962 43.1469 34.7786 43.3034 34.4667 43.3208C34.156 43.3429 33.8847 43.2378 33.7224 43.0593C33.5553 42.8821 33.4746 42.6627 33.4191 42.4828C33.3224 42.1195 33.3017 41.8952 33.2621 41.9001C33.2369 41.9013 33.1989 42.1149 33.25 42.5203C33.2791 42.717 33.3395 42.9772 33.5343 43.224C33.6305 43.3426 33.7663 43.4564 33.932 43.5269C34.0929 43.5986 34.2849 43.6318 34.4792 43.6339C34.6724 43.6311 34.8762 43.59 35.0704 43.5105C35.2647 43.4309 35.4468 43.3238 35.6229 43.1928C35.9692 42.927 36.2782 42.6146 36.5943 42.2697C36.9092 41.92 37.2168 41.5416 37.504 41.102C37.6415 40.8786 37.7731 40.6312 37.8446 40.348C37.9208 40.0635 37.9299 39.7552 37.8382 39.4518C37.7899 39.3007 37.7225 39.1545 37.6239 39.0263C37.5253 38.8981 37.3967 38.7928 37.2706 38.7174C37.1445 38.642 37.0137 38.5883 36.8888 38.5381C36.77 38.4915 36.6463 38.4462 36.5275 38.3996C36.1289 38.2551 35.7208 38.1335 35.308 38.0946C35.383 37.7646 35.4316 37.431 35.4586 37.0926C35.4809 36.7962 35.4876 36.4987 35.4847 36.2036C35.48 35.5774 35.4381 34.9452 35.4226 34.3166C35.4419 34.4137 35.4757 34.5276 35.5503 34.6619C35.6057 34.7601 35.6874 34.862 35.8004 34.9458C35.9133 35.0295 36.0526 35.0965 36.2062 35.1394C36.5171 35.2192 36.877 35.2102 37.2511 35.1364C37.9947 34.9899 38.8615 34.644 39.6305 33.9709C39.8221 33.8002 40.0065 33.6007 40.1561 33.3641C40.3056 33.1275 40.4179 32.8442 40.4437 32.5418C40.4756 32.243 40.4162 31.906 40.2406 31.634C40.0698 31.3607 39.8283 31.1716 39.6144 30.9908C39.1867 30.6497 38.8093 30.2449 38.3385 29.935C38.1055 29.7794 37.8389 29.6527 37.5629 29.5896C37.2868 29.5265 36.9953 29.5234 36.7267 29.5911C36.554 29.6346 36.3982 29.7044 36.2543 29.7815C36.5124 29.1656 36.8269 28.5712 37.1954 28.0091C37.2767 27.8866 37.3629 27.7628 37.4491 27.6391C37.5428 27.7277 37.6425 27.8199 37.7399 27.9025C38.2325 28.3192 38.7993 28.6661 39.4045 28.9625C39.7071 29.1108 40.0144 29.2374 40.3194 29.3544C40.4718 29.4129 40.6231 29.4667 40.7791 29.5192C40.9352 29.5717 41.1056 29.6206 41.3012 29.6274C41.4919 29.6355 41.6934 29.5847 41.854 29.4933C42.0194 29.4006 42.1511 29.2756 42.2565 29.1471C42.466 28.8852 42.5974 28.597 42.7085 28.3293C42.9295 27.789 43.0941 27.2477 43.1508 26.7233C43.1496 26.7185 43.1532 26.7125 43.1532 26.7125C43.4781 27.2938 43.7 27.9316 43.9614 28.5442C43.7136 28.8362 43.4048 29.2506 43.1094 29.7994C42.9432 30.1116 42.7783 30.4694 42.6674 30.8799C42.6126 31.0875 42.565 31.3036 42.5534 31.5411C42.5407 31.7739 42.5531 32.0258 42.6363 32.2752C42.7147 32.5258 42.8723 32.7667 43.091 32.9462C43.3036 33.1222 43.5594 33.2465 43.821 33.3132C43.8883 33.3371 43.9519 33.3466 44.0167 33.3609C44.0815 33.3752 44.1511 33.3882 44.2147 33.3977C44.3455 33.4107 44.4835 33.432 44.631 33.4306C44.9202 33.4241 45.1996 33.3588 45.461 33.2828C45.726 33.2007 45.9681 33.1091 46.2115 33.0223C46.3326 32.9765 46.4549 32.9355 46.576 32.8897C46.6599 32.8584 46.7438 32.827 46.8278 32.7957C47.1873 33.2509 47.5336 33.7146 47.844 34.1975C47.5998 34.5039 47.2277 35.072 46.8452 35.8825C46.6946 36.2162 46.5429 36.586 46.4405 37.0097C46.3869 37.2221 46.3477 37.4513 46.3421 37.6925C46.3365 37.9336 46.3574 38.1987 46.4778 38.454C46.4995 38.52 46.5452 38.5799 46.5813 38.6422C46.6222 38.7033 46.6763 38.756 46.7208 38.8111C46.7785 38.8578 46.8325 38.9105 46.8926 38.9464C46.9574 38.9811 47.0199 39.0265 47.0871 39.0504C47.356 39.1663 47.6356 39.203 47.9116 39.2049C48.4118 39.2064 48.9059 39.0616 49.3614 38.8449C49.4068 39.4302 49.4138 40.0253 49.3993 40.6155C49.3825 40.6096 49.3621 40.6096 49.3429 40.6144C49.2889 40.6229 49.2422 40.6602 49.2195 40.7118C48.91 41.4274 48.2608 41.9684 47.5364 42.1304C46.9464 42.2586 45.5649 42.5658 44.9665 42.0534C44.9281 42.0223 44.8789 42.0091 44.8297 42.0164C44.7805 42.0237 44.7386 42.0598 44.7195 42.1054C44.3334 42.9219 43.5679 43.5075 42.7247 43.6433C41.8564 43.7804 40.6456 43.5906 40.0182 42.9631C39.9846 42.9307 39.9449 42.9152 39.8994 42.9165C39.8886 42.9141 39.8742 42.9177 39.8646 42.9202C39.8358 42.9274 39.8046 42.9455 39.7843 42.9659C39.0491 43.7734 37.2228 43.5906 36.3446 42.858C36.3049 42.8221 36.2509 42.8102 36.1994 42.8282C36.1466 42.8415 36.1059 42.8824 36.0928 42.9316C35.8194 43.7299 35.1931 44.3416 34.4424 44.5205C33.6881 44.7054 32.4497 44.5276 31.8729 43.9792C31.8188 43.9265 31.73 43.9182 31.6653 43.9651C30.9572 44.4751 30.0963 44.7225 29.2372 44.6532C28.582 44.604 27.4492 44.4201 27.1961 43.7799C27.166 43.7007 27.0796 43.6613 26.9992 43.6866C25.7031 44.0896 23.8748 43.4534 23.0774 42.3331C23.0317 42.2732 22.9489 42.2481 22.8806 42.2807C22.3256 42.5276 21.6103 42.4017 21.0181 41.954C20.7971 41.7853 20.5844 41.5889 20.3932 41.3769C20.5193 41.4114 20.6501 41.4448 20.7941 41.4493C20.9848 41.4574 21.1863 41.4067 21.3469 41.3152C21.5123 41.2225 21.644 41.0975 21.7494 40.969C21.9589 40.7071 22.0903 40.4189 22.2014 40.1512C22.4224 39.6109 22.587 39.0696 22.6437 38.5452C22.7028 38.0508 22.6575 37.5675 22.5272 37.1514C22.7551 37.0838 22.9817 37.0114 23.2095 36.9438C23.628 36.8231 24.0465 36.7024 24.4638 36.5973C24.8811 36.4922 25.3056 36.3955 25.7277 36.3096C25.9544 36.2372 26.1642 36.1996 26.3801 36.1656ZM30.1453 38.538C30.1566 38.7851 30.0874 39.0372 29.9847 39.2773C29.8819 39.5174 29.7384 39.7372 29.5876 39.9486C29.2812 40.3727 28.9459 40.7428 28.6022 41.0589C28.3447 41.2921 28.0823 41.5061 27.8247 41.6781C27.2806 40.6725 26.196 39.9306 25.1447 40.4147C24.9821 40.0119 24.7724 39.4832 24.6141 38.8345C24.5705 38.6414 24.5294 38.4375 24.5182 38.2312C24.5083 38.0297 24.5187 37.8077 24.6 37.6444C24.6406 37.5628 24.6945 37.4931 24.77 37.4486C24.7868 37.4341 24.8107 37.4281 24.8287 37.4185C24.8515 37.4076 24.8695 37.398 24.8935 37.392L24.9642 37.369L25.0565 37.3509C25.2988 37.3001 25.5518 37.2516 25.8133 37.2164C26.3375 37.1507 26.8869 37.1245 27.4604 37.1535C27.7447 37.1686 28.0375 37.1969 28.3291 37.2407C28.6207 37.2846 28.9064 37.3453 29.1717 37.4468C29.4418 37.5471 29.682 37.6906 29.861 37.8751C30.0341 38.0559 30.1341 38.2909 30.1453 38.538ZM48.1904 34.7224C48.3192 34.9501 48.4431 35.179 48.5479 35.4128C48.9755 36.3406 49.2099 37.3323 49.3269 38.3434C48.8714 38.5806 48.3906 38.7374 47.9228 38.743C47.4501 38.7499 47.006 38.6067 46.8554 38.2518C46.7711 38.0792 46.7395 37.8729 46.7392 37.669C46.7388 37.465 46.7636 37.2598 46.8053 37.0606C46.885 36.6682 47.0127 36.3044 47.1393 35.9767C47.3985 35.3248 47.6675 34.8133 47.8492 34.4614C47.8564 34.4494 47.8588 34.4386 47.866 34.4266C47.9801 34.5356 48.0859 34.6314 48.1904 34.7224ZM19.9866 40.7346C19.9638 40.725 19.941 40.7154 19.9134 40.7071C19.7859 40.5046 19.6727 40.2984 19.5896 40.0898C19.5594 40.0107 19.473 39.9713 19.3927 39.9966C19.1049 40.0895 18.7726 40.0865 18.4365 39.9875C18.3524 39.9372 18.2696 39.8918 18.1903 39.8403C18.6298 39.3777 18.8327 38.8267 18.8857 38.2471C19.4996 38.0721 20.1147 37.8815 20.7286 37.686C21.1447 37.5557 21.5596 37.4206 21.9756 37.2903C22.0656 37.2626 22.1507 37.236 22.2406 37.2083C22.3396 37.5812 22.3608 38.0095 22.2956 38.4595C22.2281 38.9407 22.0586 39.4424 21.8412 39.9563C21.7324 40.2132 21.6057 40.4594 21.4381 40.6648C21.2693 40.8655 21.0572 40.9954 20.8244 40.9826C20.5833 40.977 20.2795 40.8444 19.9866 40.7346ZM18.3164 26.3268C18.7618 26.4748 19.2191 26.5891 19.6823 26.6663C20.6735 26.8349 21.8494 26.9468 22.5511 27.5658C22.5311 27.7494 22.511 27.933 22.4765 28.1202C22.404 28.5006 22.2979 28.8895 22.1559 29.2773C21.1919 28.9334 20.232 28.8692 19.296 29.4059C19.0473 29.2084 18.8238 28.9892 18.647 28.7532C18.3621 28.3914 18.2006 27.973 18.1243 27.5688C18.0492 27.1694 18.0773 26.7747 18.2231 26.4829C18.2458 26.4313 18.2781 26.3772 18.3164 26.3268ZM10.8867 22.2249C10.8986 22.1505 10.9164 22.0797 10.9403 22.0125C10.974 22.0856 11.0174 22.1563 11.0703 22.2246C11.0403 22.2474 11.0056 22.2715 10.9708 22.2956C10.9361 22.3196 10.9025 22.3485 10.869 22.3773C10.8761 22.3245 10.8832 22.2717 10.8867 22.2249ZM11.6243 24.1611C11.2292 23.8883 10.9583 23.3801 10.8854 22.8272C10.9775 22.6662 11.1128 22.5352 11.2542 22.4282C11.9812 23.1276 13.5777 23.6538 15.1977 23.8681C15.1801 24.0817 15.1529 24.2977 15.1113 24.5173C15.0388 24.8977 14.9327 25.2866 14.7906 25.6744C13.8266 25.3305 12.8668 25.2663 11.9307 25.803C11.6821 25.6055 11.4585 25.3863 11.2818 25.1503C11.2229 25.0784 11.1735 25.0041 11.1278 24.9238C11.2763 24.7436 11.4475 24.5729 11.6392 24.4226C11.6823 24.3914 11.7002 24.3409 11.7025 24.2894C11.694 24.2354 11.6664 24.1862 11.6243 24.1611ZM10.9721 28.498C10.7175 28.3173 10.5333 27.9505 10.4689 27.5127C10.407 27.0845 10.4602 26.6273 10.5207 26.2397C10.5729 25.9001 10.6947 25.5736 10.8789 25.2722C10.9041 25.3117 10.9294 25.3512 10.9583 25.3848C11.2637 25.8077 11.6819 26.1717 12.1455 26.4732C12.3773 26.624 12.6211 26.7615 12.8732 26.8918C13.0017 26.9564 13.1242 27.0174 13.2623 27.0795C13.4003 27.1416 13.542 27.1978 13.7136 27.2311C13.8792 27.2608 14.0688 27.264 14.251 27.1977C14.4285 27.1326 14.571 27.01 14.6763 26.8815C14.7817 26.7529 14.8558 26.622 14.9192 26.4887C14.979 26.3615 15.0387 26.2342 15.0937 26.1081C15.3063 25.5955 15.447 25.0806 15.5301 24.5801C15.5597 24.3941 15.5786 24.2057 15.5939 24.0234C15.779 24.2318 15.9176 24.6202 15.9432 24.8229C15.9821 25.1396 16.2717 25.3574 16.5467 25.5177C17.0198 25.7964 17.5169 26.0283 18.0295 26.2205C18.0032 26.2577 17.9769 26.295 17.9565 26.3358C17.7485 26.7045 17.7025 27.17 17.7669 27.6282C17.8361 28.0852 18.0097 28.5719 18.3259 28.9973C18.6314 29.4202 19.0495 29.7842 19.5132 30.0857C19.745 30.2365 19.9887 30.374 20.2409 30.5043C20.3694 30.5689 20.4919 30.6298 20.6299 30.692C20.768 30.7541 20.9097 30.8103 21.0813 30.8436C21.2469 30.8733 21.4365 30.8765 21.6187 30.8102C21.7961 30.7451 21.9387 30.6225 22.044 30.4939C22.1494 30.3654 22.2235 30.2345 22.2869 30.1012C22.3466 29.9739 22.4064 29.8467 22.4614 29.7206C22.674 29.208 22.8147 28.693 22.8978 28.1926C22.906 28.1242 22.9155 28.0606 22.9238 27.9922C22.9515 28.0414 22.978 28.0857 23.0068 28.1396C23.5849 29.3815 22.3265 30.8258 20.9713 31.0345C19.616 31.2432 18.2857 30.6601 16.9929 30.2257C16.5415 30.0741 16.065 29.9442 15.5814 29.8671C15.3424 29.7487 15.0675 29.6293 14.7518 29.5098C14.5933 29.4477 14.4216 29.3941 14.244 29.3368C14.0663 29.2795 13.8827 29.2187 13.6691 29.1806C13.5623 29.1616 13.4423 29.151 13.3079 29.1645C13.1736 29.1779 13.0166 29.2634 12.9268 29.3727C12.8322 29.4832 12.776 29.6045 12.7378 29.7161C12.7163 29.7726 12.7009 29.8326 12.6842 29.8878C12.6687 29.9478 12.6568 30.0018 12.6461 30.0606C12.6104 30.243 12.5867 30.4326 12.5751 30.6294C12.1967 31.0104 11.9456 31.4919 11.7834 32.0224C10.9756 31.1445 10.6589 29.7654 11.054 28.6814C11.0527 28.6154 11.0286 28.5399 10.9721 28.498ZM16.0856 38.2281C16.0892 38.2425 16.0964 38.2508 16.1048 38.264C15.4448 38.1344 14.777 37.6905 14.3021 37.1011C14.3128 37.0831 14.3236 37.0651 14.3344 37.0471C14.4397 36.8981 14.581 36.7707 14.732 36.6613C14.9225 36.5266 15.1395 36.4362 15.3625 36.3902C15.4165 36.3817 15.4657 36.3744 15.5209 36.3707C15.7752 36.3475 16.0284 36.401 16.2482 36.5446C16.0938 36.762 15.9767 37.0262 15.952 37.3129C15.9178 37.6225 15.9663 37.9368 16.0856 38.2281ZM14.1183 43.1359C14.0905 43.0052 14.0675 42.8732 14.0445 42.7413C13.8627 41.7363 13.7734 40.7131 13.7799 39.6862C18.1263 43.6975 24.0834 45.3953 30.0178 45.8084C34.4572 46.1185 38.9411 45.8154 43.3028 44.9056C45.3091 44.487 47.314 43.9208 49.2142 43.1412C48.978 45.2615 48.617 47.3724 48.1312 49.4535C46.2325 50.3602 44.1655 51.1053 41.977 51.631C39.4083 52.2474 36.6699 52.5341 33.8686 52.4899C32.3773 52.4625 30.9063 52.3331 29.4627 52.1305C28.109 51.9206 26.7241 51.6471 25.3258 51.28C23.8039 50.8676 22.2602 50.3689 20.7139 49.7586C19.1724 49.147 17.6296 48.4287 16.1249 47.5784C15.7718 47.3715 15.4103 47.1718 15.0632 46.948C15.0684 46.4622 14.9294 45.9105 14.7691 45.4561C14.5906 44.9502 14.4314 44.4394 14.2997 43.9166C14.2296 43.6587 14.174 43.3973 14.1183 43.1359ZM10.2383 40.2874C9.83923 38.4802 9.59275 36.8131 9.39102 35.3438C9.25122 34.3027 9.138 33.3672 9.04656 32.5383C9.58808 34.1618 10.4198 35.7223 11.4756 37.1397C11.5298 37.2128 11.5827 37.281 11.6416 37.3529C11.7814 39.7713 11.9212 42.1896 12.0659 44.6067C12.0659 44.6271 12.0671 44.6523 12.072 44.6715L12.0239 44.6224L11.8833 44.4691L11.602 44.1625C11.5395 44.0966 11.4818 44.0295 11.4181 43.9588C11.2676 43.6652 11.1399 43.3607 11.0206 43.049C10.6806 42.1246 10.4438 41.1845 10.2383 40.2874ZM56.7093 45.5382C56.5529 46.6386 56.3206 48.2478 56.0255 50.3166C55.7244 52.3818 55.3449 54.9054 54.8594 57.8179C54.3739 60.7304 53.7894 64.0402 53.0364 67.673C52.6617 69.4864 52.2416 71.3827 51.7616 73.345C51.2755 75.3038 50.7417 77.3358 50.0663 79.3932C49.7334 80.4208 49.3609 81.4532 48.9284 82.4701C48.4947 83.4822 48.0058 84.498 47.363 85.3485C47.3247 85.3989 47.2805 85.4662 47.2517 85.4939L47.2038 85.5467L47.1415 85.6032C47.1056 85.6429 47.0577 85.6753 47.0062 85.7138C46.9595 85.7511 46.9127 85.7884 46.8552 85.8233C46.6467 85.9676 46.4142 86.0976 46.1649 86.2216C45.6698 86.4636 45.1351 86.6697 44.5848 86.8542C43.4841 87.2232 42.3269 87.5096 41.1421 87.7468C38.7711 88.2165 36.2966 88.498 33.7654 88.5744C31.2366 88.6401 28.6402 88.5187 26.1031 87.9641C24.8393 87.6856 23.5921 87.2907 22.4562 86.7096C21.8882 86.4191 21.3514 86.0698 20.8732 85.6699C20.6293 85.4712 20.4106 85.2508 20.2062 85.0268C20.0271 84.822 19.8551 84.5644 19.7034 84.2863C19.3918 83.7374 19.1339 83.1188 18.8941 82.4906C18.6542 81.8624 18.4443 81.2113 18.2428 80.553C17.8446 79.2353 17.4991 77.8838 17.1752 76.5168C16.5249 73.7322 15.9873 70.9499 15.4978 68.1962C15.0082 65.4426 14.5679 62.7225 14.1601 60.0503C13.7559 57.3721 13.3734 54.7394 13.0137 52.1571C12.7488 50.2345 12.4875 48.3466 12.2336 46.5079C12.2912 46.5546 12.3477 46.5965 12.4006 46.6444C12.5802 47.1348 12.8569 47.565 13.2881 47.8593C13.3133 47.8785 13.3421 47.8916 13.3661 47.906C13.4022 47.9275 13.443 47.9478 13.4838 47.9682C13.4898 47.9718 13.4898 47.9718 13.4958 47.9753C13.5307 47.9921 13.5703 48.0076 13.6099 48.0231C13.6159 48.0267 13.6267 48.0291 13.6327 48.0327C13.6663 48.0446 13.6999 48.0566 13.7383 48.0673C13.7491 48.0697 13.7659 48.0756 13.7767 48.078C13.8091 48.0852 13.8415 48.0923 13.874 48.0994C13.8908 48.1054 13.9112 48.1054 13.9267 48.1065C13.9532 48.1101 13.9843 48.1124 14.0107 48.116C14.0311 48.116 14.0563 48.1147 14.0779 48.1195C14.1031 48.1182 14.1235 48.1182 14.1487 48.117C14.1787 48.1145 14.2027 48.1085 14.2327 48.106C14.2519 48.1012 14.2675 48.1023 14.2866 48.0975C14.3298 48.0866 14.373 48.0758 14.4149 48.0601C14.535 48.1319 14.6515 48.2096 14.7716 48.2814C15.7949 48.9011 16.8756 49.4858 18.0151 50.0201C20.2904 51.0946 22.779 52.0032 25.4363 52.6703C28.0935 53.3374 30.922 53.7523 33.8337 53.8096C36.7443 53.8621 39.599 53.5511 42.2731 52.8878C44.199 52.4129 46.031 51.7678 47.7344 50.997C47.0921 53.4287 46.2805 55.8163 45.308 58.1323C44.3236 60.4818 43.1449 62.8497 43.1134 65.3979C43.0989 66.6972 43.3819 67.9827 43.4321 69.2759C43.5518 72.5257 42.1824 75.6353 40.6735 78.5148C40.2729 79.2737 39.8557 80.0675 39.868 80.9264C39.8761 81.4447 40.1026 81.9794 40.4751 82.3242C40.5027 82.353 40.534 82.3757 40.5664 82.4032C40.5724 82.4068 40.5736 82.4116 40.5784 82.4104C40.6096 82.4331 40.6409 82.4559 40.6721 82.4786C40.7273 82.5157 40.7874 82.5516 40.8498 82.5767C40.8618 82.5839 40.8786 82.5898 40.8906 82.597C40.9135 82.6066 40.9351 82.6113 40.9579 82.6209C40.9807 82.6304 41.0035 82.64 41.0299 82.6436C41.0515 82.6483 41.0683 82.6543 41.0899 82.659C41.1175 82.6674 41.1487 82.6697 41.1763 82.6781C41.1919 82.6793 41.2087 82.6852 41.2243 82.6864C41.2711 82.6899 41.3191 82.6982 41.3695 82.6957C41.4151 82.6945 41.4607 82.6932 41.5051 82.6871C41.5194 82.6835 41.5302 82.6859 41.5446 82.6822C41.6478 82.6665 41.7485 82.6411 41.842 82.6073C41.8936 82.5892 41.9391 82.5676 41.9883 82.5399C42.047 82.5098 42.1093 82.4737 42.1656 82.434C42.2447 82.3835 42.3166 82.3246 42.3873 82.2609C42.4699 82.1839 42.5466 82.1034 42.622 82.0181C42.8818 81.7129 43.0995 81.3418 43.2824 80.9948C44.1576 79.3257 45.0281 77.6578 45.9033 75.9887C46.042 75.7293 46.1795 75.4651 46.3122 75.2021C46.7091 74.4084 47.07 73.5932 47.2556 72.7303C47.4104 72.0282 47.4463 71.3203 47.4199 70.6078C47.411 70.3702 47.3974 70.1339 47.3778 69.894C47.368 69.7741 47.3582 69.6541 47.3436 69.5354C47.3094 69.1767 47.2607 68.8217 47.2157 68.4607C47.1513 67.9821 47.0881 67.5083 47.0296 67.0334C46.976 66.5572 46.962 66.1169 46.9877 65.6922C46.9982 65.511 47.0195 65.3322 47.0407 65.1534C47.0585 65.0214 47.0811 64.8882 47.1048 64.7598C47.1453 64.5558 47.1929 64.3602 47.2489 64.1573C47.2907 64.0193 47.3324 63.8812 47.379 63.742C47.4351 63.5799 47.4924 63.4227 47.5545 63.2642C47.5951 63.1622 47.6369 63.0649 47.6823 62.9617C47.8149 62.6579 47.962 62.3505 48.1257 62.0287C48.5131 61.2578 48.8944 60.4834 49.265 59.7065C49.4478 59.3187 49.6295 58.9261 49.8112 58.5334C50.1697 57.7494 50.5162 56.9582 50.8519 56.1646C51.3525 54.9724 51.835 53.7695 52.2852 52.5594C52.5682 51.7995 52.8427 51.0264 53.0585 50.2426C53.1193 50.0182 53.1753 49.7949 53.2253 49.5681C53.2479 49.4553 53.2753 49.3413 53.2931 49.2297C53.3929 48.7148 53.4556 48.1941 53.4667 47.671C54.2035 47.1334 54.902 46.5851 55.5693 46.0345C55.7777 45.8494 55.9873 45.669 56.1969 45.4887C56.3011 45.3962 56.4018 45.3096 56.506 45.217C56.6054 45.1257 56.7048 45.0343 56.803 44.9382C56.803 44.9382 56.8078 44.937 56.8066 44.9322C56.7685 45.1254 56.7413 45.321 56.7093 45.5382ZM57.9121 40.4914C57.7845 40.9367 57.6497 41.394 57.5066 41.8585C57.4326 42.0914 57.3587 42.3243 57.2859 42.5619L57.2286 42.7396L57.1725 42.9017C57.1355 42.9977 57.0961 43.0841 57.047 43.173C56.998 43.2619 56.9418 43.3423 56.8795 43.4192C56.8484 43.4577 56.8173 43.4961 56.7801 43.531C56.7646 43.5502 56.743 43.5658 56.7274 43.5851L56.6987 43.6127L56.6604 43.6428C56.4687 43.8135 56.2723 43.9854 56.077 44.1621C55.9764 44.2486 55.8806 44.334 55.7812 44.4253C55.6805 44.5119 55.5787 44.5936 55.4733 44.6814C55.266 44.8509 55.06 45.0252 54.854 45.1996C54.3784 45.5795 53.8811 45.9547 53.3731 46.3275C53.2467 45.3799 53.0003 44.4422 52.8391 43.4983C52.81 43.322 52.7809 43.1457 52.7566 42.9682C52.7018 42.5484 52.6711 42.1226 52.662 41.7015C52.6618 41.5995 52.6604 41.4928 52.6602 41.3908C53.8142 40.6665 54.8829 39.8261 55.8457 38.849C57.6839 36.9731 59.0173 34.5101 59.5178 31.9407C59.4386 33.9959 58.9232 36.9517 57.9121 40.4914ZM48.0177 21.8044C48.1614 21.6866 48.3244 21.5843 48.5079 21.5228C48.9383 21.3685 49.4399 21.436 49.9105 21.6439C50.3812 21.8518 50.8052 22.1582 51.1765 22.4982C51.3495 22.6587 51.5154 22.8312 51.6657 23.0024C51.3374 23.2382 51.0753 23.5949 50.8924 24.0032C50.1219 23.1719 49.2281 22.4585 48.235 21.918C48.1582 21.8761 48.0885 21.8426 48.0177 21.8044ZM58.0745 24.3876C58.0518 24.4392 57.8973 24.5955 57.7967 24.7024C57.5021 25.0112 57.3524 25.1663 57.4367 25.3185C57.9542 26.2593 58.247 27.6445 57.7352 28.6303C57.7113 28.6771 57.6802 28.736 57.6539 28.7936C57.422 29.2499 57.0382 30.0148 56.5956 30.0192C56.5236 30.0169 56.4601 30.0686 56.4422 30.1394C56.4243 30.2102 56.4581 30.2833 56.5229 30.318C57.9051 31.0666 58.4779 32.7535 57.8108 34.0744C57.6673 34.3554 56.8344 36.2128 56.7974 36.3292C56.6757 36.7169 56.4939 37.0076 56.2495 37.1915C55.7559 37.5607 54.4351 37.623 53.8515 37.3109C53.8047 37.287 53.7483 37.2859 53.7027 37.3076C53.6572 37.3293 53.6225 37.3737 53.6154 37.4265C53.4635 38.4033 53.171 39.1657 52.7472 39.7111C52.8025 39.1003 52.883 38.4883 52.9731 37.8739C53.0597 37.3063 53.1523 36.7423 53.2449 36.1783C53.2912 35.8963 53.3375 35.6143 53.3837 35.3323C53.4217 35.0983 53.4537 34.8607 53.4917 34.6267C53.5926 34.6829 53.6526 34.6984 53.6597 34.6863C53.6705 34.6683 53.6116 34.6168 53.5095 34.5151C53.5486 34.2247 53.5876 33.9343 53.6207 33.6403C53.681 33.1099 53.7256 32.5784 53.7451 32.0481C53.7507 31.8477 53.7564 31.6474 53.7572 31.4482C53.757 31.3258 53.7532 31.2095 53.7482 31.0883C53.8717 31.0725 54.0001 31.0555 54.126 31.0493C54.3527 31.0381 54.5843 31.046 54.8111 31.0756C55.0427 31.104 55.2551 31.1576 55.4688 31.2568C56.3177 31.6296 56.8735 32.4996 56.8173 33.2891C56.794 33.6827 56.6471 34.0512 56.4376 34.3335C56.3311 34.4777 56.2077 34.5955 56.0795 34.6941C55.9453 34.7891 55.8051 34.8601 55.6648 34.9108C55.3795 35.0132 55.0916 35.0245 54.842 35.0058C54.5924 34.987 54.3788 34.9286 54.2071 34.8749C53.8626 34.7628 53.6801 34.6659 53.6622 34.6959C53.6478 34.72 53.798 34.8709 54.1414 35.0394C54.3155 35.1231 54.5352 35.2055 54.8076 35.2542C55.0801 35.3029 55.4088 35.3119 55.7517 35.2153C56.4628 35.0413 57.1405 34.2891 57.2192 33.3256C57.2664 32.8445 57.1251 32.324 56.8472 31.889C56.5681 31.4492 56.15 31.0853 55.6493 30.8594C55.4007 30.7435 55.1235 30.6756 54.8667 30.6485C54.6087 30.6165 54.352 30.6098 54.1013 30.627C53.9753 30.6332 53.8506 30.6442 53.7282 30.6649C53.7011 30.2534 53.6596 29.8456 53.5917 29.4342C53.5335 29.102 53.461 28.7734 53.3728 28.4436C53.4664 28.4711 53.5601 28.4985 53.6621 28.5187C54.3389 28.6543 55.1642 28.5893 56.0251 28.3214C56.2409 28.2466 56.4759 28.1467 56.6771 27.9735C56.8832 27.7992 57.0315 27.5374 57.0946 27.2818C57.1613 27.0201 57.1777 26.761 57.158 26.5007C57.1432 26.2392 57.0983 25.9801 57.0295 25.7271C56.9655 25.4729 56.8774 25.2247 56.7631 24.9934C56.6583 24.7596 56.5211 24.5391 56.3636 24.339C56.2061 24.139 56.0138 23.9629 55.7952 23.8242C55.5695 23.6974 55.3186 23.6127 55.0631 23.6107C54.9995 23.6012 54.9407 23.6109 54.8759 23.617C54.8159 23.6219 54.756 23.6268 54.6924 23.6378C54.6348 23.6522 54.5785 23.6715 54.5161 23.6872C54.4874 23.6945 54.4586 23.7017 54.431 23.7138L54.3543 23.7535C54.3004 23.7824 54.25 23.8053 54.2009 23.833C54.1529 23.8654 54.1098 23.8967 54.0619 23.9292C53.9648 23.9893 53.8978 24.0674 53.8187 24.1384C53.5265 24.4364 53.3399 24.769 53.1905 25.0668C52.8988 25.6708 52.7426 26.1845 52.6304 26.529L52.6268 26.5351C52.4619 26.2042 52.2826 25.877 52.0817 25.5655C52.1536 25.5269 52.2243 25.4836 52.2926 25.4307C52.4771 25.2924 52.6207 25.0726 52.6898 24.841C52.7578 24.6045 52.7693 24.3466 52.7173 24.0995C52.6701 23.8513 52.5641 23.6127 52.4377 23.3946C52.185 22.9583 51.8496 22.5582 51.4603 22.187C51.0673 21.8218 50.6144 21.4819 50.0754 21.2453C49.8064 21.1294 49.5196 21.0435 49.222 21.0165C48.928 20.9834 48.6221 21.0247 48.3452 21.12C48.0682 21.2152 47.8298 21.3824 47.6274 21.5711C47.6154 21.5843 47.607 21.5916 47.595 21.6048C47.5434 21.5821 47.4954 21.5534 47.4437 21.5307C47.0967 21.3681 46.7449 21.2068 46.4015 21.0382C46.3151 20.9988 46.2274 20.9546 46.1458 20.9139C45.4626 20.5708 44.814 20.1832 44.2804 19.6443C43.9511 19.309 43.6793 18.9184 43.4758 18.4952C43.8478 18.5342 44.3252 18.5261 44.8528 18.3524C45.0315 18.2921 45.2257 18.2126 45.4042 18.0707C45.5887 17.9325 45.7322 17.7127 45.8014 17.481C45.8694 17.2445 45.8809 16.9866 45.8289 16.7395C45.7817 16.4913 45.6757 16.2527 45.5493 16.0346C45.2966 15.5984 44.9612 15.1983 44.5719 14.827C44.2979 14.5696 43.9915 14.3254 43.6493 14.1208C43.7653 13.9131 43.8969 13.7065 44.0309 13.5095C44.2846 13.1396 44.5563 12.7804 44.8267 12.4164C44.9596 12.235 45.0924 12.0536 45.2193 11.8687C45.3461 11.6837 45.467 11.4951 45.577 11.3042C45.7444 11.0171 45.8879 10.7158 46.0025 10.4013C46.0646 10.2224 46.111 10.0424 46.1467 9.85994C47.1762 10.6055 47.9897 12.0737 48.1009 14.5605C48.1058 14.6205 48.1395 14.6732 48.1971 14.6995C48.2547 14.7258 48.3183 14.7149 48.365 14.6776C49.5199 13.7542 50.5836 13.522 51.3607 14.0149C52.3864 14.6645 52.7278 16.4251 52.236 18.5026C52.2205 18.5626 52.2422 18.6286 52.2927 18.6669C52.3431 18.7052 52.4067 18.7146 52.4654 18.6845C53.2458 18.2993 54.5954 18.2909 55.2923 18.8907C55.9375 19.4474 56.3685 20.3284 56.5 21.3767C56.5231 21.5699 56.7574 21.771 57.1346 22.0738C57.262 22.1744 57.3905 22.2797 57.4362 22.3396C57.7283 22.669 58.3573 23.5461 58.0745 24.3876ZM52.9503 26.2597C53.0853 25.9656 53.2538 25.6018 53.4751 25.2043C53.6353 24.9293 53.8256 24.6314 54.0807 24.3886C54.337 24.1506 54.669 23.9701 55.0446 24.003C55.2293 24.0075 55.4058 24.0804 55.5715 24.1713C55.7325 24.2838 55.8887 24.4178 56.0197 24.594C56.1496 24.7653 56.2687 24.9546 56.3579 25.1668C56.4554 25.3718 56.5326 25.5972 56.5954 25.8262C56.6582 26.0553 56.6958 26.2855 56.7117 26.5111C56.7277 26.7366 56.7137 26.9645 56.6661 27.1602C56.6137 27.357 56.5276 27.5215 56.3898 27.6429C56.2533 27.7691 56.0711 27.8558 55.8793 27.9246C55.5687 28.0283 55.2569 28.1068 54.9583 28.1565C54.6616 27.2417 53.8984 26.4596 52.9503 26.2597Z" fill="#C7A044"/>
<path d="M52.1442 16.0925C52.1272 15.9846 52.0994 15.8743 52.0512 15.764C52.003 15.6537 51.9261 15.5507 51.8372 15.4812C51.663 15.3364 51.4829 15.2695 51.316 15.2146C51.1492 15.1597 50.9824 15.1252 50.83 15.1075C50.5252 15.0721 50.2589 15.0881 50.0466 15.1161C49.6232 15.1768 49.4086 15.2768 49.4159 15.3055C49.4243 15.3391 49.6534 15.2967 50.0601 15.2912C50.264 15.2909 50.5112 15.3 50.7908 15.3571C50.9312 15.3881 51.0741 15.4286 51.2218 15.4883C51.3694 15.548 51.5255 15.6209 51.6277 15.7227C51.7346 15.8233 51.7792 15.96 51.8012 16.1483C51.8243 16.3414 51.8355 16.5478 51.843 16.7601C51.8534 17.186 51.8206 17.6431 51.735 18.1135C51.6839 18.3764 51.6196 18.6476 51.5337 18.9141C50.4855 18.4181 49.0119 18.1975 48.3395 19.2136C48.1748 19.0664 48.0282 18.9095 47.8995 18.7429C47.6146 18.3811 47.4531 17.9627 47.3768 17.5586C47.3017 17.1592 47.3298 16.7645 47.4756 16.4727C47.6215 16.1809 47.8899 15.9909 48.1356 15.8525C48.3861 15.7129 48.6187 15.6237 48.8093 15.5502C49.1965 15.4067 49.4183 15.3355 49.4099 15.302C49.4026 15.2732 49.1723 15.2904 48.7574 15.3847C48.5511 15.4366 48.3029 15.5043 48.0188 15.6319C47.8774 15.6982 47.7288 15.7764 47.5874 15.8834C47.446 15.9904 47.2987 16.1347 47.197 16.3184C46.9889 16.6871 46.943 17.1526 47.0074 17.6108C47.0766 18.0678 47.2502 18.5545 47.5664 18.9799C47.8719 19.4028 48.29 19.7668 48.7537 20.0683C48.9855 20.2191 49.2292 20.3566 49.4814 20.4869C49.6099 20.5515 49.7324 20.6124 49.8704 20.6746C50.0085 20.7367 50.1502 20.7929 50.3218 20.8261C50.4874 20.8558 50.677 20.8591 50.8592 20.7928C51.0366 20.7277 51.1792 20.6051 51.2845 20.4765C51.3899 20.348 51.464 20.2171 51.5274 20.0838C51.5871 19.9565 51.6469 19.8293 51.7019 19.7032C51.9145 19.1906 52.0552 18.6756 52.1383 18.1752C52.2166 17.676 52.2373 17.1913 52.2101 16.7391C52.2001 16.5171 52.1769 16.3036 52.1442 16.0925Z" fill="#C7A044"/>
<path d="M39.1709 38.6672C39.3145 39.1361 39.5712 39.811 40.1171 40.5203C40.2578 40.694 40.4153 40.8737 40.6039 41.0353C40.7925 41.1969 41.0147 41.3501 41.2836 41.4456C41.5478 41.5423 41.8585 41.5814 42.1571 41.5112C42.4582 41.4507 42.7434 41.3075 42.983 41.1043C43.4682 40.7015 43.7839 40.1323 44.0288 39.5452C44.2773 38.9522 44.4357 38.3052 44.5329 37.638C44.5815 37.3044 44.6097 36.9709 44.6247 36.6457C44.634 36.4802 44.6398 36.3206 44.6395 36.1574C44.6392 35.9943 44.6341 35.8119 44.5834 35.6309C44.5314 35.445 44.4256 35.2676 44.2874 35.1443C44.148 35.0162 43.9931 34.9277 43.8346 34.8656C43.5237 34.745 43.2081 34.7071 42.9165 34.6837C42.3382 34.6355 41.7695 34.6461 41.2503 34.7514C40.7298 34.8519 40.2563 35.0578 39.892 35.3332C39.5266 35.6038 39.2585 35.9366 39.1067 36.2656C38.9501 36.5958 38.9075 36.9125 38.9091 37.1621C38.9107 37.4116 38.9435 37.6023 38.9701 37.7282C39.0015 37.8529 39.028 37.9177 39.0424 37.9141C39.0772 37.9104 39.0347 37.6405 39.0795 37.1702C39.1079 36.9386 39.165 36.659 39.3288 36.3779C39.4867 36.0933 39.7381 35.8158 40.0784 35.5872C40.4175 35.3539 40.8407 35.1912 41.3205 35.1112C41.8002 35.0311 42.3317 35.035 42.886 35.0892C43.1632 35.1163 43.4392 35.159 43.6829 35.2558C43.9266 35.3525 44.1153 35.5141 44.1733 35.7444C44.2361 35.9734 44.2018 36.3034 44.1892 36.6177C44.1718 36.9333 44.1399 37.2524 44.0973 37.5692C44.0084 38.2088 43.856 38.8185 43.6338 39.3744C43.549 39.5845 43.457 39.7862 43.3517 39.9759C42.5815 39.3079 41.1003 39.5024 40.5093 40.4776C40.4553 40.4249 40.4048 40.3662 40.3555 40.3123C39.8169 39.6726 39.5183 39.0337 39.3327 38.601C39.146 38.1634 39.0856 37.9032 39.0508 37.9068C39.0232 37.9189 39.0261 38.1936 39.1709 38.6672Z" fill="#C7A044"/>
</svg>
