<svg width="47" height="59" viewBox="0 0 47 59" fill="none" xmlns="http://www.w3.org/2000/svg">
<mask id="path-1-outside-1_18_3166" maskUnits="userSpaceOnUse" x="0" y="0" width="47" height="59" fill="black">
<rect fill="white" width="47" height="59"/>
<path d="M43.67 32.695C43.5686 32.6739 43.4588 32.6528 43.3489 32.6359C43.2602 32.619 43.1842 32.6063 43.1208 32.5937C42.9983 32.5683 42.9603 32.5472 42.9518 32.5345C42.9222 32.488 42.9687 32.2895 43.0067 32.1163C43.0659 31.8543 43.1293 31.5924 43.1926 31.3305C43.332 30.7559 43.4799 30.1645 43.5517 29.5646C43.8348 27.2326 43.7207 25.002 43.2137 22.9362C42.88 21.5801 42.4237 20.169 41.3422 19.0749C41.2239 18.9566 41.2239 18.8298 41.2662 18.6144C41.7309 16.2148 41.1564 13.8997 39.4581 11.3269C39.3482 11.1579 39.2426 11.0481 39.1285 10.9763C38.9384 10.858 38.8582 10.7017 38.8328 10.4017C38.723 9.14278 38.4399 7.82893 37.9414 6.26581C37.3795 4.49992 36.6656 3.15649 35.7024 2.03274C35.3771 1.65253 35.0771 1.3568 34.6927 1.15402C34.5702 1.09065 34.4519 1.04418 34.3336 1.02306C33.8942 0.930118 33.514 1.12023 33.2521 1.55536C33.0958 1.81729 32.969 2.11724 32.855 2.49323C32.8085 2.64954 32.762 2.80585 32.7156 2.96216C32.5719 3.44799 32.4198 3.95495 32.2466 4.43655C31.8073 5.64902 31.0173 6.59956 29.8977 7.2586C28.6346 7.99791 27.1855 8.39925 25.4661 8.48374C24.5198 8.53021 23.5566 8.47107 22.6272 8.41615L22.1244 8.38235C20.5064 8.28941 19.2348 8.50064 18.1322 9.04139C16.4508 9.86519 15.5087 11.027 15.2594 12.5901C15.2256 12.8098 15.1496 12.8942 14.9426 12.9407C14.2624 13.0886 13.7428 13.2407 13.2612 13.4392C9.421 14.9981 8.10291 19.4762 8.42399 22.0152C8.46623 22.3616 8.39019 22.5391 8.11981 22.7207C7.44387 23.1728 6.87355 23.7388 6.42151 24.4021C5.66108 25.5174 5.14145 26.7806 4.84151 28.2634C4.60493 29.4125 4.52466 30.5532 4.46974 31.9135C4.44862 32.4204 4.44862 32.4204 3.94589 32.4796C3.16433 32.5725 2.17577 32.8007 1.48716 33.6963C1.46603 33.7174 1.42379 33.7428 1.38577 33.7639C1.36042 33.7808 1.33507 33.7934 1.30972 33.8103C1.28437 33.8272 1.26748 33.8484 1.25903 33.8779L1.11117 34.3638L1.00555 34.706C0.997101 34.7355 0.997101 34.7736 1.014 34.7989C1.08582 34.9383 1.08159 35.0989 1.07737 35.2678V35.3481C1.07737 35.4706 1.07314 35.5931 1.06892 35.7157C1.06047 36.1043 1.05202 36.5099 1.08159 36.907C1.17031 38.035 1.51673 38.5419 2.31518 38.7067C2.53909 38.7532 2.80946 38.7743 3.13898 38.7701C3.31219 38.7701 3.43471 38.7658 3.51075 38.7827C3.59524 38.7996 3.60792 38.825 3.66284 39.2052L3.66706 39.2263C3.87407 40.612 4.06418 41.8667 4.27118 43.1425C4.57536 45.0309 5.02739 46.9193 5.46253 48.7444L5.61461 49.3865C5.88076 50.5018 6.16381 51.6298 6.43419 52.7198C6.5567 53.2098 6.67922 53.7041 6.80173 54.1984C6.97916 54.9123 7.33826 55.4911 7.86634 55.922C8.38174 56.3403 8.99853 56.6318 9.6956 56.7838L9.85613 56.8176C11.0728 57.0711 12.374 57.2401 14.0681 57.3711C16.7761 57.5781 19.5305 57.6964 22.1963 57.8147L22.9144 57.8484C26.3364 58.0005 29.6865 58.1104 33.0197 57.8104C34.4096 57.6837 35.8925 57.5063 37.3077 57.0415C38.5751 56.6275 39.5299 55.8249 40.1551 54.6504C40.7381 53.5562 41.1521 52.2804 41.431 50.7469C41.79 48.7444 42.09 46.556 42.3646 43.8692C42.4111 43.4298 42.4618 42.9947 42.5125 42.5595C42.6392 41.4569 42.7702 40.312 42.8124 39.1798C42.8251 38.7954 42.8251 38.7954 43.2518 38.7532C43.3532 38.7447 43.4503 38.7363 43.5517 38.7278C43.7165 38.7151 43.8897 38.7025 44.0587 38.6771C45.0979 38.5335 45.588 38.0307 45.7063 37.0042C45.7696 36.4634 45.795 35.9396 45.7865 35.4411C45.7527 33.7132 45.2204 33.0203 43.67 32.695ZM16.4634 12.4676C16.8817 11.4579 17.6337 10.7059 18.7025 10.2327C19.6784 9.7976 20.7979 9.64974 22.2258 9.7638C23.8396 9.89054 25.7154 9.99616 27.5657 9.59904C29.0148 9.28642 30.1935 8.78369 31.1778 8.0655C32.348 7.20791 33.176 6.05881 33.6492 4.64778C33.759 4.32249 33.8562 3.99297 33.9534 3.6719C34.0379 3.38462 34.1266 3.09735 34.2195 2.8143C34.2787 2.63264 34.3125 2.59884 34.3209 2.59462C34.3167 2.60307 34.3632 2.62419 34.4984 2.76783C34.8448 3.13115 35.1489 3.54093 35.4024 3.98452C36.6191 6.10106 37.2993 8.43305 37.4809 11.1157C37.5274 11.7789 37.3373 12.3239 36.8853 12.8309C34.9631 15.0023 32.5128 15.8937 29.602 15.4797C29.2429 15.4206 28.8838 15.3572 28.5036 15.2812C27.1771 15.0066 25.8421 14.5841 23.9579 13.9757C23.4045 13.7856 22.4835 13.5026 21.2626 13.2491C20.3163 13.0506 19.3742 12.9111 18.4744 12.8309C17.8829 12.7802 17.3084 12.776 16.6704 12.776C16.5775 12.776 16.5057 12.7717 16.4592 12.7633C16.4127 12.7548 16.3958 12.7422 16.3958 12.7379C16.3916 12.7295 16.3747 12.6788 16.4634 12.4676ZM11.5882 16.3077C12.6106 15.0826 13.9963 14.3982 15.8297 14.2166C17.4309 14.056 18.9813 14.263 20.2909 14.4827C20.4811 14.5165 20.6669 14.5503 20.8528 14.5883C21.9428 14.8165 23.0201 15.1586 24.0635 15.4882L24.6296 15.6656C25.7154 16.0036 26.8687 16.3584 28.0516 16.6035C28.6557 16.7302 29.2176 16.8189 29.7668 16.8738C31.9509 17.0977 33.759 16.7682 35.2926 15.8726C36.6783 15.0657 37.7175 14.1194 38.4695 12.9872C38.4822 12.9661 38.4991 12.9407 38.5117 12.9196C38.554 12.852 38.5878 12.7971 38.6469 12.7633C39.2341 13.5786 39.5975 14.3053 39.7791 15.0319C40.2481 16.9034 40.1002 18.8383 39.3398 20.7858C38.9764 21.7153 38.2794 22.4546 37.143 23.1094C35.639 23.9797 33.9407 24.4866 31.9551 24.6556C30.2019 24.8035 28.3938 24.6894 26.5899 24.3134C26.0745 24.2036 25.5464 24.0726 25.0225 23.9247C24.0297 23.6375 23.0285 23.3291 22.0568 23.0249C21.0303 22.708 19.9699 22.3785 18.9179 22.0786C18.1195 21.8504 17.4478 21.6815 16.8099 21.5463C16.0199 21.3815 15.2932 21.2759 14.5877 21.2252C12.7922 21.09 11.3559 21.2294 10.0716 21.6646C10.0082 21.6857 9.83078 21.7448 9.76319 21.7322C9.74629 21.7279 9.71672 21.6941 9.72094 21.4238C9.77586 19.4551 10.4011 17.7357 11.5882 16.3077ZM5.62729 31.998C5.64841 31.7994 5.66953 31.6009 5.69488 31.3981C5.80894 30.3462 5.92723 29.2604 6.19339 28.2212C6.76371 25.999 7.73537 24.5204 9.25201 23.5572C10.3293 22.877 11.584 22.5517 13.2063 22.5348C14.254 22.5222 15.3228 22.6362 16.4634 22.8728C16.9535 22.9742 17.4647 23.1052 17.9885 23.253C19.484 23.6839 20.9922 24.1529 22.454 24.6049C22.9609 24.7612 23.4636 24.9175 23.9706 25.0738C24.6465 25.2808 25.3394 25.4625 26.0322 25.6061C27.3461 25.8807 28.7148 26.0413 30.0921 26.0877C32.5043 26.168 34.8152 25.7244 36.9613 24.7781C37.8738 24.3725 38.723 23.7895 39.4834 23.0376C39.9861 22.5391 40.3832 21.918 40.7635 21.0224C40.7761 20.9928 40.7846 20.9675 40.7973 20.9379C40.8226 20.8703 40.8437 20.8027 40.8987 20.7351C41.4267 21.7237 41.7563 22.6151 41.9379 23.5234C42.3899 25.792 42.4322 27.9128 42.0689 29.9997C41.959 30.6377 41.7689 31.2925 41.4943 31.9938C41.3422 32.3866 41.2958 32.4162 40.8733 32.4035C40.5945 32.3951 40.3114 32.3782 40.0326 32.3613C39.8214 32.3486 39.6059 32.336 39.3947 32.3275C36.4206 32.2008 33.3577 32.1796 30.2864 32.2726C27.8403 32.3444 25.352 32.3106 22.9482 32.2768C22.1751 32.2641 21.4062 32.2557 20.6331 32.2472C15.6777 32.1965 11.8797 32.2261 8.30992 32.336C7.54949 32.3613 6.79751 32.3613 5.96103 32.3571C5.86809 32.3571 5.76247 32.3529 5.69488 32.3402C5.61884 32.3233 5.59349 32.3191 5.62729 31.998ZM41.3296 40.8401C41.2451 41.5499 41.1648 42.2596 41.0845 42.9693C40.8564 44.9718 40.6198 47.0419 40.3157 49.0697C40.1678 50.0456 39.9523 51.0933 39.6608 52.2677C39.5003 52.8169 39.2679 53.3365 38.9976 53.9111C38.5413 54.887 37.7386 55.5207 36.5431 55.8544C34.8617 56.3234 33.0958 56.4374 31.3848 56.5515H31.3637C28.7655 56.7205 26.2181 56.6275 23.396 56.4923C22.5849 56.4543 21.7738 56.4205 20.9627 56.3867C18.2969 56.2769 15.5382 56.1628 12.8345 55.8798C11.9811 55.7911 11.1489 55.6685 10.4476 55.5672C10.4011 55.5587 10.3546 55.5503 10.3082 55.5418C10.1434 55.508 9.97442 55.4573 9.81389 55.4066C9.75052 55.3855 9.68715 55.3686 9.62378 55.3517C8.79998 55.1151 8.29302 54.5913 8.07757 53.7463L7.98885 53.4041C7.90858 53.1 7.82831 52.7958 7.75649 52.4874C7.54526 51.5876 7.32981 50.6919 7.11013 49.7921C6.55248 47.5023 5.97793 45.1323 5.54279 42.775C5.48365 42.4539 5.42873 42.1371 5.37381 41.816C5.20905 40.8697 5.03584 39.8896 4.77814 38.9433C4.74434 38.8123 4.72744 38.7363 4.73589 38.7109C4.76546 38.694 4.95135 38.694 5.02317 38.6898C5.64841 38.6813 6.2821 38.656 6.89467 38.6349C7.76072 38.6053 8.66056 38.5715 9.53929 38.5757C10.7729 38.5799 12.0234 38.5673 13.2358 38.5588C14.7651 38.5461 16.3452 38.5335 17.8956 38.5504C20.6331 38.5757 23.4129 38.6222 26.104 38.6644C28.3853 38.7025 30.7427 38.7363 33.062 38.7658C34.8279 38.787 36.6276 38.7827 38.3639 38.7785C39.1581 38.7743 39.9481 38.7743 40.7423 38.7743H40.8311C40.9282 38.7743 41.0254 38.7743 41.1226 38.7701C41.1648 38.7658 41.2028 38.7701 41.2324 38.7743C41.2789 38.7827 41.3549 38.7996 41.3718 39.0109C41.4141 39.615 41.4014 40.2318 41.3296 40.8401ZM44.3671 36.7211L44.3628 36.7845C44.3333 37.1774 44.2657 37.2492 43.8728 37.3168C43.3658 37.4013 42.842 37.4013 42.335 37.4013H42.2252C41.2873 37.4013 40.3494 37.4013 39.4116 37.4013C36.9022 37.4013 34.3082 37.4013 31.7608 37.3759C27.891 37.3379 23.9621 37.2661 20.1558 37.2027L18.8166 37.1774C17.4013 37.152 15.9607 37.1689 14.5708 37.1858C13.5653 37.1985 12.5261 37.2069 11.508 37.2027C8.99431 37.1943 6.27788 37.2661 3.20658 37.4308C2.99112 37.4435 2.84749 37.4393 2.74609 37.4139C2.54754 37.3717 2.4546 37.2914 2.4377 36.7253C2.42502 36.2226 2.44192 35.7114 2.46304 35.2171L2.46727 35.0651C2.48417 34.5792 2.7292 34.2455 3.20658 34.0427C3.54455 33.8991 3.92476 33.8272 4.43172 33.8019C6.59472 33.6921 8.79575 33.6583 10.925 33.6245C11.4446 33.616 11.96 33.6076 12.4796 33.5991C15.4284 33.5484 18.4279 33.5822 21.3302 33.6202C23.7087 33.6498 26.1632 33.6794 28.5839 33.6625C29.4795 33.654 30.3709 33.6414 31.2665 33.6245C33.1465 33.5907 35.094 33.5611 37.0036 33.6076L37.2401 33.6118C39.0271 33.6583 40.8733 33.7005 42.6814 33.9033C42.8716 33.9244 43.0659 33.9582 43.256 33.9962C43.3447 34.0131 43.4377 34.03 43.5264 34.0427C44.3037 34.2835 44.3628 34.3595 44.4178 35.1918C44.4431 35.703 44.4051 36.2226 44.3671 36.7211Z"/>
</mask>
<path d="M43.67 32.695C43.5686 32.6739 43.4588 32.6528 43.3489 32.6359C43.2602 32.619 43.1842 32.6063 43.1208 32.5937C42.9983 32.5683 42.9603 32.5472 42.9518 32.5345C42.9222 32.488 42.9687 32.2895 43.0067 32.1163C43.0659 31.8543 43.1293 31.5924 43.1926 31.3305C43.332 30.7559 43.4799 30.1645 43.5517 29.5646C43.8348 27.2326 43.7207 25.002 43.2137 22.9362C42.88 21.5801 42.4237 20.169 41.3422 19.0749C41.2239 18.9566 41.2239 18.8298 41.2662 18.6144C41.7309 16.2148 41.1564 13.8997 39.4581 11.3269C39.3482 11.1579 39.2426 11.0481 39.1285 10.9763C38.9384 10.858 38.8582 10.7017 38.8328 10.4017C38.723 9.14278 38.4399 7.82893 37.9414 6.26581C37.3795 4.49992 36.6656 3.15649 35.7024 2.03274C35.3771 1.65253 35.0771 1.3568 34.6927 1.15402C34.5702 1.09065 34.4519 1.04418 34.3336 1.02306C33.8942 0.930118 33.514 1.12023 33.2521 1.55536C33.0958 1.81729 32.969 2.11724 32.855 2.49323C32.8085 2.64954 32.762 2.80585 32.7156 2.96216C32.5719 3.44799 32.4198 3.95495 32.2466 4.43655C31.8073 5.64902 31.0173 6.59956 29.8977 7.2586C28.6346 7.99791 27.1855 8.39925 25.4661 8.48374C24.5198 8.53021 23.5566 8.47107 22.6272 8.41615L22.1244 8.38235C20.5064 8.28941 19.2348 8.50064 18.1322 9.04139C16.4508 9.86519 15.5087 11.027 15.2594 12.5901C15.2256 12.8098 15.1496 12.8942 14.9426 12.9407C14.2624 13.0886 13.7428 13.2407 13.2612 13.4392C9.421 14.9981 8.10291 19.4762 8.42399 22.0152C8.46623 22.3616 8.39019 22.5391 8.11981 22.7207C7.44387 23.1728 6.87355 23.7388 6.42151 24.4021C5.66108 25.5174 5.14145 26.7806 4.84151 28.2634C4.60493 29.4125 4.52466 30.5532 4.46974 31.9135C4.44862 32.4204 4.44862 32.4204 3.94589 32.4796C3.16433 32.5725 2.17577 32.8007 1.48716 33.6963C1.46603 33.7174 1.42379 33.7428 1.38577 33.7639C1.36042 33.7808 1.33507 33.7934 1.30972 33.8103C1.28437 33.8272 1.26748 33.8484 1.25903 33.8779L1.11117 34.3638L1.00555 34.706C0.997101 34.7355 0.997101 34.7736 1.014 34.7989C1.08582 34.9383 1.08159 35.0989 1.07737 35.2678V35.3481C1.07737 35.4706 1.07314 35.5931 1.06892 35.7157C1.06047 36.1043 1.05202 36.5099 1.08159 36.907C1.17031 38.035 1.51673 38.5419 2.31518 38.7067C2.53909 38.7532 2.80946 38.7743 3.13898 38.7701C3.31219 38.7701 3.43471 38.7658 3.51075 38.7827C3.59524 38.7996 3.60792 38.825 3.66284 39.2052L3.66706 39.2263C3.87407 40.612 4.06418 41.8667 4.27118 43.1425C4.57536 45.0309 5.02739 46.9193 5.46253 48.7444L5.61461 49.3865C5.88076 50.5018 6.16381 51.6298 6.43419 52.7198C6.5567 53.2098 6.67922 53.7041 6.80173 54.1984C6.97916 54.9123 7.33826 55.4911 7.86634 55.922C8.38174 56.3403 8.99853 56.6318 9.6956 56.7838L9.85613 56.8176C11.0728 57.0711 12.374 57.2401 14.0681 57.3711C16.7761 57.5781 19.5305 57.6964 22.1963 57.8147L22.9144 57.8484C26.3364 58.0005 29.6865 58.1104 33.0197 57.8104C34.4096 57.6837 35.8925 57.5063 37.3077 57.0415C38.5751 56.6275 39.5299 55.8249 40.1551 54.6504C40.7381 53.5562 41.1521 52.2804 41.431 50.7469C41.79 48.7444 42.09 46.556 42.3646 43.8692C42.4111 43.4298 42.4618 42.9947 42.5125 42.5595C42.6392 41.4569 42.7702 40.312 42.8124 39.1798C42.8251 38.7954 42.8251 38.7954 43.2518 38.7532C43.3532 38.7447 43.4503 38.7363 43.5517 38.7278C43.7165 38.7151 43.8897 38.7025 44.0587 38.6771C45.0979 38.5335 45.588 38.0307 45.7063 37.0042C45.7696 36.4634 45.795 35.9396 45.7865 35.4411C45.7527 33.7132 45.2204 33.0203 43.67 32.695ZM16.4634 12.4676C16.8817 11.4579 17.6337 10.7059 18.7025 10.2327C19.6784 9.7976 20.7979 9.64974 22.2258 9.7638C23.8396 9.89054 25.7154 9.99616 27.5657 9.59904C29.0148 9.28642 30.1935 8.78369 31.1778 8.0655C32.348 7.20791 33.176 6.05881 33.6492 4.64778C33.759 4.32249 33.8562 3.99297 33.9534 3.6719C34.0379 3.38462 34.1266 3.09735 34.2195 2.8143C34.2787 2.63264 34.3125 2.59884 34.3209 2.59462C34.3167 2.60307 34.3632 2.62419 34.4984 2.76783C34.8448 3.13115 35.1489 3.54093 35.4024 3.98452C36.6191 6.10106 37.2993 8.43305 37.4809 11.1157C37.5274 11.7789 37.3373 12.3239 36.8853 12.8309C34.9631 15.0023 32.5128 15.8937 29.602 15.4797C29.2429 15.4206 28.8838 15.3572 28.5036 15.2812C27.1771 15.0066 25.8421 14.5841 23.9579 13.9757C23.4045 13.7856 22.4835 13.5026 21.2626 13.2491C20.3163 13.0506 19.3742 12.9111 18.4744 12.8309C17.8829 12.7802 17.3084 12.776 16.6704 12.776C16.5775 12.776 16.5057 12.7717 16.4592 12.7633C16.4127 12.7548 16.3958 12.7422 16.3958 12.7379C16.3916 12.7295 16.3747 12.6788 16.4634 12.4676ZM11.5882 16.3077C12.6106 15.0826 13.9963 14.3982 15.8297 14.2166C17.4309 14.056 18.9813 14.263 20.2909 14.4827C20.4811 14.5165 20.6669 14.5503 20.8528 14.5883C21.9428 14.8165 23.0201 15.1586 24.0635 15.4882L24.6296 15.6656C25.7154 16.0036 26.8687 16.3584 28.0516 16.6035C28.6557 16.7302 29.2176 16.8189 29.7668 16.8738C31.9509 17.0977 33.759 16.7682 35.2926 15.8726C36.6783 15.0657 37.7175 14.1194 38.4695 12.9872C38.4822 12.9661 38.4991 12.9407 38.5117 12.9196C38.554 12.852 38.5878 12.7971 38.6469 12.7633C39.2341 13.5786 39.5975 14.3053 39.7791 15.0319C40.2481 16.9034 40.1002 18.8383 39.3398 20.7858C38.9764 21.7153 38.2794 22.4546 37.143 23.1094C35.639 23.9797 33.9407 24.4866 31.9551 24.6556C30.2019 24.8035 28.3938 24.6894 26.5899 24.3134C26.0745 24.2036 25.5464 24.0726 25.0225 23.9247C24.0297 23.6375 23.0285 23.3291 22.0568 23.0249C21.0303 22.708 19.9699 22.3785 18.9179 22.0786C18.1195 21.8504 17.4478 21.6815 16.8099 21.5463C16.0199 21.3815 15.2932 21.2759 14.5877 21.2252C12.7922 21.09 11.3559 21.2294 10.0716 21.6646C10.0082 21.6857 9.83078 21.7448 9.76319 21.7322C9.74629 21.7279 9.71672 21.6941 9.72094 21.4238C9.77586 19.4551 10.4011 17.7357 11.5882 16.3077ZM5.62729 31.998C5.64841 31.7994 5.66953 31.6009 5.69488 31.3981C5.80894 30.3462 5.92723 29.2604 6.19339 28.2212C6.76371 25.999 7.73537 24.5204 9.25201 23.5572C10.3293 22.877 11.584 22.5517 13.2063 22.5348C14.254 22.5222 15.3228 22.6362 16.4634 22.8728C16.9535 22.9742 17.4647 23.1052 17.9885 23.253C19.484 23.6839 20.9922 24.1529 22.454 24.6049C22.9609 24.7612 23.4636 24.9175 23.9706 25.0738C24.6465 25.2808 25.3394 25.4625 26.0322 25.6061C27.3461 25.8807 28.7148 26.0413 30.0921 26.0877C32.5043 26.168 34.8152 25.7244 36.9613 24.7781C37.8738 24.3725 38.723 23.7895 39.4834 23.0376C39.9861 22.5391 40.3832 21.918 40.7635 21.0224C40.7761 20.9928 40.7846 20.9675 40.7973 20.9379C40.8226 20.8703 40.8437 20.8027 40.8987 20.7351C41.4267 21.7237 41.7563 22.6151 41.9379 23.5234C42.3899 25.792 42.4322 27.9128 42.0689 29.9997C41.959 30.6377 41.7689 31.2925 41.4943 31.9938C41.3422 32.3866 41.2958 32.4162 40.8733 32.4035C40.5945 32.3951 40.3114 32.3782 40.0326 32.3613C39.8214 32.3486 39.6059 32.336 39.3947 32.3275C36.4206 32.2008 33.3577 32.1796 30.2864 32.2726C27.8403 32.3444 25.352 32.3106 22.9482 32.2768C22.1751 32.2641 21.4062 32.2557 20.6331 32.2472C15.6777 32.1965 11.8797 32.2261 8.30992 32.336C7.54949 32.3613 6.79751 32.3613 5.96103 32.3571C5.86809 32.3571 5.76247 32.3529 5.69488 32.3402C5.61884 32.3233 5.59349 32.3191 5.62729 31.998ZM41.3296 40.8401C41.2451 41.5499 41.1648 42.2596 41.0845 42.9693C40.8564 44.9718 40.6198 47.0419 40.3157 49.0697C40.1678 50.0456 39.9523 51.0933 39.6608 52.2677C39.5003 52.8169 39.2679 53.3365 38.9976 53.9111C38.5413 54.887 37.7386 55.5207 36.5431 55.8544C34.8617 56.3234 33.0958 56.4374 31.3848 56.5515H31.3637C28.7655 56.7205 26.2181 56.6275 23.396 56.4923C22.5849 56.4543 21.7738 56.4205 20.9627 56.3867C18.2969 56.2769 15.5382 56.1628 12.8345 55.8798C11.9811 55.7911 11.1489 55.6685 10.4476 55.5672C10.4011 55.5587 10.3546 55.5503 10.3082 55.5418C10.1434 55.508 9.97442 55.4573 9.81389 55.4066C9.75052 55.3855 9.68715 55.3686 9.62378 55.3517C8.79998 55.1151 8.29302 54.5913 8.07757 53.7463L7.98885 53.4041C7.90858 53.1 7.82831 52.7958 7.75649 52.4874C7.54526 51.5876 7.32981 50.6919 7.11013 49.7921C6.55248 47.5023 5.97793 45.1323 5.54279 42.775C5.48365 42.4539 5.42873 42.1371 5.37381 41.816C5.20905 40.8697 5.03584 39.8896 4.77814 38.9433C4.74434 38.8123 4.72744 38.7363 4.73589 38.7109C4.76546 38.694 4.95135 38.694 5.02317 38.6898C5.64841 38.6813 6.2821 38.656 6.89467 38.6349C7.76072 38.6053 8.66056 38.5715 9.53929 38.5757C10.7729 38.5799 12.0234 38.5673 13.2358 38.5588C14.7651 38.5461 16.3452 38.5335 17.8956 38.5504C20.6331 38.5757 23.4129 38.6222 26.104 38.6644C28.3853 38.7025 30.7427 38.7363 33.062 38.7658C34.8279 38.787 36.6276 38.7827 38.3639 38.7785C39.1581 38.7743 39.9481 38.7743 40.7423 38.7743H40.8311C40.9282 38.7743 41.0254 38.7743 41.1226 38.7701C41.1648 38.7658 41.2028 38.7701 41.2324 38.7743C41.2789 38.7827 41.3549 38.7996 41.3718 39.0109C41.4141 39.615 41.4014 40.2318 41.3296 40.8401ZM44.3671 36.7211L44.3628 36.7845C44.3333 37.1774 44.2657 37.2492 43.8728 37.3168C43.3658 37.4013 42.842 37.4013 42.335 37.4013H42.2252C41.2873 37.4013 40.3494 37.4013 39.4116 37.4013C36.9022 37.4013 34.3082 37.4013 31.7608 37.3759C27.891 37.3379 23.9621 37.2661 20.1558 37.2027L18.8166 37.1774C17.4013 37.152 15.9607 37.1689 14.5708 37.1858C13.5653 37.1985 12.5261 37.2069 11.508 37.2027C8.99431 37.1943 6.27788 37.2661 3.20658 37.4308C2.99112 37.4435 2.84749 37.4393 2.74609 37.4139C2.54754 37.3717 2.4546 37.2914 2.4377 36.7253C2.42502 36.2226 2.44192 35.7114 2.46304 35.2171L2.46727 35.0651C2.48417 34.5792 2.7292 34.2455 3.20658 34.0427C3.54455 33.8991 3.92476 33.8272 4.43172 33.8019C6.59472 33.6921 8.79575 33.6583 10.925 33.6245C11.4446 33.616 11.96 33.6076 12.4796 33.5991C15.4284 33.5484 18.4279 33.5822 21.3302 33.6202C23.7087 33.6498 26.1632 33.6794 28.5839 33.6625C29.4795 33.654 30.3709 33.6414 31.2665 33.6245C33.1465 33.5907 35.094 33.5611 37.0036 33.6076L37.2401 33.6118C39.0271 33.6583 40.8733 33.7005 42.6814 33.9033C42.8716 33.9244 43.0659 33.9582 43.256 33.9962C43.3447 34.0131 43.4377 34.03 43.5264 34.0427C44.3037 34.2835 44.3628 34.3595 44.4178 35.1918C44.4431 35.703 44.4051 36.2226 44.3671 36.7211Z" fill="#C7A044"/>
<path d="M43.67 32.695C43.5686 32.6739 43.4588 32.6528 43.3489 32.6359C43.2602 32.619 43.1842 32.6063 43.1208 32.5937C42.9983 32.5683 42.9603 32.5472 42.9518 32.5345C42.9222 32.488 42.9687 32.2895 43.0067 32.1163C43.0659 31.8543 43.1293 31.5924 43.1926 31.3305C43.332 30.7559 43.4799 30.1645 43.5517 29.5646C43.8348 27.2326 43.7207 25.002 43.2137 22.9362C42.88 21.5801 42.4237 20.169 41.3422 19.0749C41.2239 18.9566 41.2239 18.8298 41.2662 18.6144C41.7309 16.2148 41.1564 13.8997 39.4581 11.3269C39.3482 11.1579 39.2426 11.0481 39.1285 10.9763C38.9384 10.858 38.8582 10.7017 38.8328 10.4017C38.723 9.14278 38.4399 7.82893 37.9414 6.26581C37.3795 4.49992 36.6656 3.15649 35.7024 2.03274C35.3771 1.65253 35.0771 1.3568 34.6927 1.15402C34.5702 1.09065 34.4519 1.04418 34.3336 1.02306C33.8942 0.930118 33.514 1.12023 33.2521 1.55536C33.0958 1.81729 32.969 2.11724 32.855 2.49323C32.8085 2.64954 32.762 2.80585 32.7156 2.96216C32.5719 3.44799 32.4198 3.95495 32.2466 4.43655C31.8073 5.64902 31.0173 6.59956 29.8977 7.2586C28.6346 7.99791 27.1855 8.39925 25.4661 8.48374C24.5198 8.53021 23.5566 8.47107 22.6272 8.41615L22.1244 8.38235C20.5064 8.28941 19.2348 8.50064 18.1322 9.04139C16.4508 9.86519 15.5087 11.027 15.2594 12.5901C15.2256 12.8098 15.1496 12.8942 14.9426 12.9407C14.2624 13.0886 13.7428 13.2407 13.2612 13.4392C9.421 14.9981 8.10291 19.4762 8.42399 22.0152C8.46623 22.3616 8.39019 22.5391 8.11981 22.7207C7.44387 23.1728 6.87355 23.7388 6.42151 24.4021C5.66108 25.5174 5.14145 26.7806 4.84151 28.2634C4.60493 29.4125 4.52466 30.5532 4.46974 31.9135C4.44862 32.4204 4.44862 32.4204 3.94589 32.4796C3.16433 32.5725 2.17577 32.8007 1.48716 33.6963C1.46603 33.7174 1.42379 33.7428 1.38577 33.7639C1.36042 33.7808 1.33507 33.7934 1.30972 33.8103C1.28437 33.8272 1.26748 33.8484 1.25903 33.8779L1.11117 34.3638L1.00555 34.706C0.997101 34.7355 0.997101 34.7736 1.014 34.7989C1.08582 34.9383 1.08159 35.0989 1.07737 35.2678V35.3481C1.07737 35.4706 1.07314 35.5931 1.06892 35.7157C1.06047 36.1043 1.05202 36.5099 1.08159 36.907C1.17031 38.035 1.51673 38.5419 2.31518 38.7067C2.53909 38.7532 2.80946 38.7743 3.13898 38.7701C3.31219 38.7701 3.43471 38.7658 3.51075 38.7827C3.59524 38.7996 3.60792 38.825 3.66284 39.2052L3.66706 39.2263C3.87407 40.612 4.06418 41.8667 4.27118 43.1425C4.57536 45.0309 5.02739 46.9193 5.46253 48.7444L5.61461 49.3865C5.88076 50.5018 6.16381 51.6298 6.43419 52.7198C6.5567 53.2098 6.67922 53.7041 6.80173 54.1984C6.97916 54.9123 7.33826 55.4911 7.86634 55.922C8.38174 56.3403 8.99853 56.6318 9.6956 56.7838L9.85613 56.8176C11.0728 57.0711 12.374 57.2401 14.0681 57.3711C16.7761 57.5781 19.5305 57.6964 22.1963 57.8147L22.9144 57.8484C26.3364 58.0005 29.6865 58.1104 33.0197 57.8104C34.4096 57.6837 35.8925 57.5063 37.3077 57.0415C38.5751 56.6275 39.5299 55.8249 40.1551 54.6504C40.7381 53.5562 41.1521 52.2804 41.431 50.7469C41.79 48.7444 42.09 46.556 42.3646 43.8692C42.4111 43.4298 42.4618 42.9947 42.5125 42.5595C42.6392 41.4569 42.7702 40.312 42.8124 39.1798C42.8251 38.7954 42.8251 38.7954 43.2518 38.7532C43.3532 38.7447 43.4503 38.7363 43.5517 38.7278C43.7165 38.7151 43.8897 38.7025 44.0587 38.6771C45.0979 38.5335 45.588 38.0307 45.7063 37.0042C45.7696 36.4634 45.795 35.9396 45.7865 35.4411C45.7527 33.7132 45.2204 33.0203 43.67 32.695ZM16.4634 12.4676C16.8817 11.4579 17.6337 10.7059 18.7025 10.2327C19.6784 9.7976 20.7979 9.64974 22.2258 9.7638C23.8396 9.89054 25.7154 9.99616 27.5657 9.59904C29.0148 9.28642 30.1935 8.78369 31.1778 8.0655C32.348 7.20791 33.176 6.05881 33.6492 4.64778C33.759 4.32249 33.8562 3.99297 33.9534 3.6719C34.0379 3.38462 34.1266 3.09735 34.2195 2.8143C34.2787 2.63264 34.3125 2.59884 34.3209 2.59462C34.3167 2.60307 34.3632 2.62419 34.4984 2.76783C34.8448 3.13115 35.1489 3.54093 35.4024 3.98452C36.6191 6.10106 37.2993 8.43305 37.4809 11.1157C37.5274 11.7789 37.3373 12.3239 36.8853 12.8309C34.9631 15.0023 32.5128 15.8937 29.602 15.4797C29.2429 15.4206 28.8838 15.3572 28.5036 15.2812C27.1771 15.0066 25.8421 14.5841 23.9579 13.9757C23.4045 13.7856 22.4835 13.5026 21.2626 13.2491C20.3163 13.0506 19.3742 12.9111 18.4744 12.8309C17.8829 12.7802 17.3084 12.776 16.6704 12.776C16.5775 12.776 16.5057 12.7717 16.4592 12.7633C16.4127 12.7548 16.3958 12.7422 16.3958 12.7379C16.3916 12.7295 16.3747 12.6788 16.4634 12.4676ZM11.5882 16.3077C12.6106 15.0826 13.9963 14.3982 15.8297 14.2166C17.4309 14.056 18.9813 14.263 20.2909 14.4827C20.4811 14.5165 20.6669 14.5503 20.8528 14.5883C21.9428 14.8165 23.0201 15.1586 24.0635 15.4882L24.6296 15.6656C25.7154 16.0036 26.8687 16.3584 28.0516 16.6035C28.6557 16.7302 29.2176 16.8189 29.7668 16.8738C31.9509 17.0977 33.759 16.7682 35.2926 15.8726C36.6783 15.0657 37.7175 14.1194 38.4695 12.9872C38.4822 12.9661 38.4991 12.9407 38.5117 12.9196C38.554 12.852 38.5878 12.7971 38.6469 12.7633C39.2341 13.5786 39.5975 14.3053 39.7791 15.0319C40.2481 16.9034 40.1002 18.8383 39.3398 20.7858C38.9764 21.7153 38.2794 22.4546 37.143 23.1094C35.639 23.9797 33.9407 24.4866 31.9551 24.6556C30.2019 24.8035 28.3938 24.6894 26.5899 24.3134C26.0745 24.2036 25.5464 24.0726 25.0225 23.9247C24.0297 23.6375 23.0285 23.3291 22.0568 23.0249C21.0303 22.708 19.9699 22.3785 18.9179 22.0786C18.1195 21.8504 17.4478 21.6815 16.8099 21.5463C16.0199 21.3815 15.2932 21.2759 14.5877 21.2252C12.7922 21.09 11.3559 21.2294 10.0716 21.6646C10.0082 21.6857 9.83078 21.7448 9.76319 21.7322C9.74629 21.7279 9.71672 21.6941 9.72094 21.4238C9.77586 19.4551 10.4011 17.7357 11.5882 16.3077ZM5.62729 31.998C5.64841 31.7994 5.66953 31.6009 5.69488 31.3981C5.80894 30.3462 5.92723 29.2604 6.19339 28.2212C6.76371 25.999 7.73537 24.5204 9.25201 23.5572C10.3293 22.877 11.584 22.5517 13.2063 22.5348C14.254 22.5222 15.3228 22.6362 16.4634 22.8728C16.9535 22.9742 17.4647 23.1052 17.9885 23.253C19.484 23.6839 20.9922 24.1529 22.454 24.6049C22.9609 24.7612 23.4636 24.9175 23.9706 25.0738C24.6465 25.2808 25.3394 25.4625 26.0322 25.6061C27.3461 25.8807 28.7148 26.0413 30.0921 26.0877C32.5043 26.168 34.8152 25.7244 36.9613 24.7781C37.8738 24.3725 38.723 23.7895 39.4834 23.0376C39.9861 22.5391 40.3832 21.918 40.7635 21.0224C40.7761 20.9928 40.7846 20.9675 40.7973 20.9379C40.8226 20.8703 40.8437 20.8027 40.8987 20.7351C41.4267 21.7237 41.7563 22.6151 41.9379 23.5234C42.3899 25.792 42.4322 27.9128 42.0689 29.9997C41.959 30.6377 41.7689 31.2925 41.4943 31.9938C41.3422 32.3866 41.2958 32.4162 40.8733 32.4035C40.5945 32.3951 40.3114 32.3782 40.0326 32.3613C39.8214 32.3486 39.6059 32.336 39.3947 32.3275C36.4206 32.2008 33.3577 32.1796 30.2864 32.2726C27.8403 32.3444 25.352 32.3106 22.9482 32.2768C22.1751 32.2641 21.4062 32.2557 20.6331 32.2472C15.6777 32.1965 11.8797 32.2261 8.30992 32.336C7.54949 32.3613 6.79751 32.3613 5.96103 32.3571C5.86809 32.3571 5.76247 32.3529 5.69488 32.3402C5.61884 32.3233 5.59349 32.3191 5.62729 31.998ZM41.3296 40.8401C41.2451 41.5499 41.1648 42.2596 41.0845 42.9693C40.8564 44.9718 40.6198 47.0419 40.3157 49.0697C40.1678 50.0456 39.9523 51.0933 39.6608 52.2677C39.5003 52.8169 39.2679 53.3365 38.9976 53.9111C38.5413 54.887 37.7386 55.5207 36.5431 55.8544C34.8617 56.3234 33.0958 56.4374 31.3848 56.5515H31.3637C28.7655 56.7205 26.2181 56.6275 23.396 56.4923C22.5849 56.4543 21.7738 56.4205 20.9627 56.3867C18.2969 56.2769 15.5382 56.1628 12.8345 55.8798C11.9811 55.7911 11.1489 55.6685 10.4476 55.5672C10.4011 55.5587 10.3546 55.5503 10.3082 55.5418C10.1434 55.508 9.97442 55.4573 9.81389 55.4066C9.75052 55.3855 9.68715 55.3686 9.62378 55.3517C8.79998 55.1151 8.29302 54.5913 8.07757 53.7463L7.98885 53.4041C7.90858 53.1 7.82831 52.7958 7.75649 52.4874C7.54526 51.5876 7.32981 50.6919 7.11013 49.7921C6.55248 47.5023 5.97793 45.1323 5.54279 42.775C5.48365 42.4539 5.42873 42.1371 5.37381 41.816C5.20905 40.8697 5.03584 39.8896 4.77814 38.9433C4.74434 38.8123 4.72744 38.7363 4.73589 38.7109C4.76546 38.694 4.95135 38.694 5.02317 38.6898C5.64841 38.6813 6.2821 38.656 6.89467 38.6349C7.76072 38.6053 8.66056 38.5715 9.53929 38.5757C10.7729 38.5799 12.0234 38.5673 13.2358 38.5588C14.7651 38.5461 16.3452 38.5335 17.8956 38.5504C20.6331 38.5757 23.4129 38.6222 26.104 38.6644C28.3853 38.7025 30.7427 38.7363 33.062 38.7658C34.8279 38.787 36.6276 38.7827 38.3639 38.7785C39.1581 38.7743 39.9481 38.7743 40.7423 38.7743H40.8311C40.9282 38.7743 41.0254 38.7743 41.1226 38.7701C41.1648 38.7658 41.2028 38.7701 41.2324 38.7743C41.2789 38.7827 41.3549 38.7996 41.3718 39.0109C41.4141 39.615 41.4014 40.2318 41.3296 40.8401ZM44.3671 36.7211L44.3628 36.7845C44.3333 37.1774 44.2657 37.2492 43.8728 37.3168C43.3658 37.4013 42.842 37.4013 42.335 37.4013H42.2252C41.2873 37.4013 40.3494 37.4013 39.4116 37.4013C36.9022 37.4013 34.3082 37.4013 31.7608 37.3759C27.891 37.3379 23.9621 37.2661 20.1558 37.2027L18.8166 37.1774C17.4013 37.152 15.9607 37.1689 14.5708 37.1858C13.5653 37.1985 12.5261 37.2069 11.508 37.2027C8.99431 37.1943 6.27788 37.2661 3.20658 37.4308C2.99112 37.4435 2.84749 37.4393 2.74609 37.4139C2.54754 37.3717 2.4546 37.2914 2.4377 36.7253C2.42502 36.2226 2.44192 35.7114 2.46304 35.2171L2.46727 35.0651C2.48417 34.5792 2.7292 34.2455 3.20658 34.0427C3.54455 33.8991 3.92476 33.8272 4.43172 33.8019C6.59472 33.6921 8.79575 33.6583 10.925 33.6245C11.4446 33.616 11.96 33.6076 12.4796 33.5991C15.4284 33.5484 18.4279 33.5822 21.3302 33.6202C23.7087 33.6498 26.1632 33.6794 28.5839 33.6625C29.4795 33.654 30.3709 33.6414 31.2665 33.6245C33.1465 33.5907 35.094 33.5611 37.0036 33.6076L37.2401 33.6118C39.0271 33.6583 40.8733 33.7005 42.6814 33.9033C42.8716 33.9244 43.0659 33.9582 43.256 33.9962C43.3447 34.0131 43.4377 34.03 43.5264 34.0427C44.3037 34.2835 44.3628 34.3595 44.4178 35.1918C44.4431 35.703 44.4051 36.2226 44.3671 36.7211Z" stroke="#C7A044" stroke-width="0.6" mask="url(#path-1-outside-1_18_3166)"/>
<mask id="path-2-outside-2_18_3166" maskUnits="userSpaceOnUse" x="9.15669" y="38.8008" width="26" height="16" fill="black">
<rect fill="white" x="9.15669" y="38.8008" width="26" height="16"/>
<path d="M33.8731 50.6413C32.8888 50.1175 31.9044 49.5978 30.9201 49.074C30.1935 48.6853 29.4668 48.2924 28.7444 47.8869C28.4445 47.7179 28.436 47.6249 28.6388 47.3546C28.774 47.1729 28.9303 47.0039 29.0824 46.8392C30.0033 45.8379 30.9243 44.8325 31.858 43.8397C32.5085 43.1468 33.1042 42.4075 33.6703 41.6429C33.7548 41.5288 33.8393 41.4105 33.9111 41.2838C33.9872 41.1528 34.0336 41.0092 33.8942 40.8909C33.7633 40.7726 33.6196 40.8275 33.4929 40.9078C33.1296 41.1486 32.8127 41.4443 32.5128 41.7612C30.975 43.375 29.3654 44.9212 27.8784 46.5815C27.8108 46.6575 27.7305 46.7293 27.6671 46.8054C27.4601 47.0504 27.2278 47.0673 26.9532 46.911C26.0026 46.3702 25.0394 45.8506 24.0889 45.3056C23.6495 45.0564 23.6495 44.9761 24.0086 44.6297C24.6465 44.0129 25.2887 43.4003 25.9266 42.7835C26.4335 42.2977 26.8898 41.7654 27.3207 41.2077C27.4348 41.0599 27.5446 40.8782 27.3883 40.7008C27.2066 40.4895 27.0039 40.6163 26.8391 40.7388C26.5434 40.9627 26.2561 41.1993 25.9815 41.4485C24.9972 42.3315 24.0171 43.2187 23.0454 44.11C22.8004 44.3382 22.568 44.4818 22.2216 44.2917C21.2668 43.7552 20.3036 43.2398 19.3531 42.699C18.9898 42.492 18.994 42.4498 19.2601 42.0822C19.6023 41.6175 19.9487 41.1528 20.2909 40.6881C20.4008 40.5402 20.5148 40.3839 20.5402 40.1938C20.5824 39.8981 20.3374 39.708 20.0755 39.8474C19.915 39.9319 19.7713 40.0629 19.6488 40.198C19.1968 40.6797 18.7532 41.1697 18.318 41.664C18.111 41.9048 17.9167 41.9555 17.621 41.7907C16.7 41.2796 15.7621 40.8022 14.837 40.3037C14.6553 40.2065 14.4779 40.1009 14.2666 40.0671C14.0934 40.0417 13.9371 40.084 13.8357 40.2403C13.7343 40.4008 13.7723 40.5614 13.8737 40.7008C14.047 40.9374 14.292 41.0979 14.5286 41.2584C15.2298 41.7358 15.9903 42.1076 16.7254 42.5258C17.1478 42.7666 17.1563 42.8089 16.8141 43.1468C16.1973 43.7594 15.5678 44.3551 14.9468 44.955C14.5835 45.3056 14.5793 45.3098 14.0976 45.0648C13.1218 44.5705 12.1459 44.072 11.1742 43.5777C10.9883 43.4848 10.8067 43.3834 10.5954 43.3707C10.418 43.3623 10.2659 43.4172 10.1899 43.5904C10.1223 43.7383 10.1645 43.8735 10.2575 43.996C10.4011 44.1776 10.5954 44.3002 10.7898 44.4142C11.5798 44.8663 12.3698 45.3098 13.164 45.7492C13.823 46.1125 13.823 46.1125 13.3245 46.6406C12.7415 47.2574 12.1585 47.87 11.5798 48.4868C11.4235 48.6515 11.2671 48.8163 11.1827 49.036C11.1024 49.2387 11.0813 49.4415 11.2503 49.6105C11.4277 49.7837 11.6305 49.7372 11.8248 49.6485C12.0572 49.5471 12.2304 49.3655 12.4036 49.188C13.1049 48.4572 13.8104 47.7305 14.499 46.9912C14.7144 46.7589 14.9172 46.6955 15.2003 46.8687C15.5551 47.0842 15.9185 47.2743 16.2818 47.4728C16.8056 47.7643 17.3295 48.0516 17.8491 48.3516C18.1786 48.5459 18.1913 48.6262 17.9252 48.9134C17.7435 49.112 17.5407 49.2894 17.3464 49.4753C16.8986 49.902 16.4465 50.3287 15.9987 50.7554C15.8804 50.8694 15.7621 50.9877 15.6523 51.1102C15.3101 51.4989 15.2341 51.8369 15.4369 52.0397C15.6312 52.234 15.9734 52.1706 16.3832 51.8496C16.5479 51.7228 16.7 51.5876 16.8521 51.444C17.5027 50.8399 18.1491 50.2315 18.7954 49.6232C19.2855 49.1627 19.2855 49.1542 19.8981 49.4964C20.819 50.0076 21.7358 50.523 22.6525 51.0384C23.3876 51.4524 23.3876 51.4862 22.8342 52.0946C22.6145 52.3396 22.361 52.5593 22.23 52.8719C22.1455 53.0789 22.1498 53.2817 22.3188 53.4465C22.4877 53.607 22.699 53.6154 22.8933 53.5014C23.0496 53.4084 23.1975 53.2902 23.3284 53.1592C23.5608 52.9268 23.7805 52.6776 24.0086 52.4368C24.3888 52.0354 24.3931 52.0354 24.8958 52.3058C26.0744 52.9437 27.2531 53.5901 28.4318 54.228C28.5754 54.3083 28.7275 54.3843 28.8838 54.4266C29.1542 54.4942 29.4457 54.4984 29.5936 54.2153C29.7456 53.9238 29.5767 53.6873 29.3485 53.5225C29.0613 53.3197 28.7571 53.1465 28.4487 52.9775C27.5108 52.4579 26.5645 51.9509 25.6266 51.4271C25.1831 51.1821 25.1788 51.144 25.521 50.7512C26.0491 50.1428 26.5856 49.5429 27.1264 48.9472C27.5235 48.5079 27.5362 48.5079 28.0642 48.7909C29.0444 49.319 30.0202 49.8598 31.0004 50.3878C31.9636 50.9075 32.931 51.4186 33.8773 51.8538C33.9872 51.8876 34.0463 51.9087 34.1055 51.9256C34.3547 51.989 34.6209 52.0439 34.7687 51.7777C34.9124 51.52 34.756 51.3004 34.5786 51.1145C34.3801 50.9159 34.1266 50.7765 33.8731 50.6413ZM19.4376 47.4982C19.2137 47.7137 19.0067 47.7517 18.7236 47.5911C17.8322 47.08 16.9197 46.5984 16.0241 46.0956C15.6396 45.8802 15.6312 45.8252 15.9438 45.5126C16.569 44.8874 17.207 44.2706 17.8364 43.6496C18.0054 43.4806 18.1871 43.3581 18.4406 43.4679C18.5335 43.5144 18.6264 43.5524 18.7194 43.6031C19.5643 44.072 20.4135 44.5325 21.2584 45.0099C21.702 45.2591 21.7146 45.3394 21.364 45.6732C20.7261 46.2857 20.0755 46.8856 19.4376 47.4982ZM26.3321 48.2248C25.6816 48.9388 25.0352 49.657 24.3888 50.3752C24.2452 50.5357 24.0889 50.5906 24.0044 50.5273C23.5017 50.2442 23.1088 50.0203 22.7159 49.8006C21.9977 49.3993 21.2753 49.0064 20.5613 48.6008C20.2276 48.4107 20.2107 48.3135 20.481 48.0432C21.1359 47.3884 21.8118 46.7589 22.4751 46.1125C22.661 45.9351 22.8342 45.8802 23.0792 46.0196C24.1353 46.6195 25.1957 47.2109 26.2561 47.7981C26.4673 47.9164 26.5054 48.0389 26.3321 48.2248Z"/>
</mask>
<path d="M33.8731 50.6413C32.8888 50.1175 31.9044 49.5978 30.9201 49.074C30.1935 48.6853 29.4668 48.2924 28.7444 47.8869C28.4445 47.7179 28.436 47.6249 28.6388 47.3546C28.774 47.1729 28.9303 47.0039 29.0824 46.8392C30.0033 45.8379 30.9243 44.8325 31.858 43.8397C32.5085 43.1468 33.1042 42.4075 33.6703 41.6429C33.7548 41.5288 33.8393 41.4105 33.9111 41.2838C33.9872 41.1528 34.0336 41.0092 33.8942 40.8909C33.7633 40.7726 33.6196 40.8275 33.4929 40.9078C33.1296 41.1486 32.8127 41.4443 32.5128 41.7612C30.975 43.375 29.3654 44.9212 27.8784 46.5815C27.8108 46.6575 27.7305 46.7293 27.6671 46.8054C27.4601 47.0504 27.2278 47.0673 26.9532 46.911C26.0026 46.3702 25.0394 45.8506 24.0889 45.3056C23.6495 45.0564 23.6495 44.9761 24.0086 44.6297C24.6465 44.0129 25.2887 43.4003 25.9266 42.7835C26.4335 42.2977 26.8898 41.7654 27.3207 41.2077C27.4348 41.0599 27.5446 40.8782 27.3883 40.7008C27.2066 40.4895 27.0039 40.6163 26.8391 40.7388C26.5434 40.9627 26.2561 41.1993 25.9815 41.4485C24.9972 42.3315 24.0171 43.2187 23.0454 44.11C22.8004 44.3382 22.568 44.4818 22.2216 44.2917C21.2668 43.7552 20.3036 43.2398 19.3531 42.699C18.9898 42.492 18.994 42.4498 19.2601 42.0822C19.6023 41.6175 19.9487 41.1528 20.2909 40.6881C20.4008 40.5402 20.5148 40.3839 20.5402 40.1938C20.5824 39.8981 20.3374 39.708 20.0755 39.8474C19.915 39.9319 19.7713 40.0629 19.6488 40.198C19.1968 40.6797 18.7532 41.1697 18.318 41.664C18.111 41.9048 17.9167 41.9555 17.621 41.7907C16.7 41.2796 15.7621 40.8022 14.837 40.3037C14.6553 40.2065 14.4779 40.1009 14.2666 40.0671C14.0934 40.0417 13.9371 40.084 13.8357 40.2403C13.7343 40.4008 13.7723 40.5614 13.8737 40.7008C14.047 40.9374 14.292 41.0979 14.5286 41.2584C15.2298 41.7358 15.9903 42.1076 16.7254 42.5258C17.1478 42.7666 17.1563 42.8089 16.8141 43.1468C16.1973 43.7594 15.5678 44.3551 14.9468 44.955C14.5835 45.3056 14.5793 45.3098 14.0976 45.0648C13.1218 44.5705 12.1459 44.072 11.1742 43.5777C10.9883 43.4848 10.8067 43.3834 10.5954 43.3707C10.418 43.3623 10.2659 43.4172 10.1899 43.5904C10.1223 43.7383 10.1645 43.8735 10.2575 43.996C10.4011 44.1776 10.5954 44.3002 10.7898 44.4142C11.5798 44.8663 12.3698 45.3098 13.164 45.7492C13.823 46.1125 13.823 46.1125 13.3245 46.6406C12.7415 47.2574 12.1585 47.87 11.5798 48.4868C11.4235 48.6515 11.2671 48.8163 11.1827 49.036C11.1024 49.2387 11.0813 49.4415 11.2503 49.6105C11.4277 49.7837 11.6305 49.7372 11.8248 49.6485C12.0572 49.5471 12.2304 49.3655 12.4036 49.188C13.1049 48.4572 13.8104 47.7305 14.499 46.9912C14.7144 46.7589 14.9172 46.6955 15.2003 46.8687C15.5551 47.0842 15.9185 47.2743 16.2818 47.4728C16.8056 47.7643 17.3295 48.0516 17.8491 48.3516C18.1786 48.5459 18.1913 48.6262 17.9252 48.9134C17.7435 49.112 17.5407 49.2894 17.3464 49.4753C16.8986 49.902 16.4465 50.3287 15.9987 50.7554C15.8804 50.8694 15.7621 50.9877 15.6523 51.1102C15.3101 51.4989 15.2341 51.8369 15.4369 52.0397C15.6312 52.234 15.9734 52.1706 16.3832 51.8496C16.5479 51.7228 16.7 51.5876 16.8521 51.444C17.5027 50.8399 18.1491 50.2315 18.7954 49.6232C19.2855 49.1627 19.2855 49.1542 19.8981 49.4964C20.819 50.0076 21.7358 50.523 22.6525 51.0384C23.3876 51.4524 23.3876 51.4862 22.8342 52.0946C22.6145 52.3396 22.361 52.5593 22.23 52.8719C22.1455 53.0789 22.1498 53.2817 22.3188 53.4465C22.4877 53.607 22.699 53.6154 22.8933 53.5014C23.0496 53.4084 23.1975 53.2902 23.3284 53.1592C23.5608 52.9268 23.7805 52.6776 24.0086 52.4368C24.3888 52.0354 24.3931 52.0354 24.8958 52.3058C26.0744 52.9437 27.2531 53.5901 28.4318 54.228C28.5754 54.3083 28.7275 54.3843 28.8838 54.4266C29.1542 54.4942 29.4457 54.4984 29.5936 54.2153C29.7456 53.9238 29.5767 53.6873 29.3485 53.5225C29.0613 53.3197 28.7571 53.1465 28.4487 52.9775C27.5108 52.4579 26.5645 51.9509 25.6266 51.4271C25.1831 51.1821 25.1788 51.144 25.521 50.7512C26.0491 50.1428 26.5856 49.5429 27.1264 48.9472C27.5235 48.5079 27.5362 48.5079 28.0642 48.7909C29.0444 49.319 30.0202 49.8598 31.0004 50.3878C31.9636 50.9075 32.931 51.4186 33.8773 51.8538C33.9872 51.8876 34.0463 51.9087 34.1055 51.9256C34.3547 51.989 34.6209 52.0439 34.7687 51.7777C34.9124 51.52 34.756 51.3004 34.5786 51.1145C34.3801 50.9159 34.1266 50.7765 33.8731 50.6413ZM19.4376 47.4982C19.2137 47.7137 19.0067 47.7517 18.7236 47.5911C17.8322 47.08 16.9197 46.5984 16.0241 46.0956C15.6396 45.8802 15.6312 45.8252 15.9438 45.5126C16.569 44.8874 17.207 44.2706 17.8364 43.6496C18.0054 43.4806 18.1871 43.3581 18.4406 43.4679C18.5335 43.5144 18.6264 43.5524 18.7194 43.6031C19.5643 44.072 20.4135 44.5325 21.2584 45.0099C21.702 45.2591 21.7146 45.3394 21.364 45.6732C20.7261 46.2857 20.0755 46.8856 19.4376 47.4982ZM26.3321 48.2248C25.6816 48.9388 25.0352 49.657 24.3888 50.3752C24.2452 50.5357 24.0889 50.5906 24.0044 50.5273C23.5017 50.2442 23.1088 50.0203 22.7159 49.8006C21.9977 49.3993 21.2753 49.0064 20.5613 48.6008C20.2276 48.4107 20.2107 48.3135 20.481 48.0432C21.1359 47.3884 21.8118 46.7589 22.4751 46.1125C22.661 45.9351 22.8342 45.8802 23.0792 46.0196C24.1353 46.6195 25.1957 47.2109 26.2561 47.7981C26.4673 47.9164 26.5054 48.0389 26.3321 48.2248Z" fill="#C7A044"/>
<path d="M33.8731 50.6413C32.8888 50.1175 31.9044 49.5978 30.9201 49.074C30.1935 48.6853 29.4668 48.2924 28.7444 47.8869C28.4445 47.7179 28.436 47.6249 28.6388 47.3546C28.774 47.1729 28.9303 47.0039 29.0824 46.8392C30.0033 45.8379 30.9243 44.8325 31.858 43.8397C32.5085 43.1468 33.1042 42.4075 33.6703 41.6429C33.7548 41.5288 33.8393 41.4105 33.9111 41.2838C33.9872 41.1528 34.0336 41.0092 33.8942 40.8909C33.7633 40.7726 33.6196 40.8275 33.4929 40.9078C33.1296 41.1486 32.8127 41.4443 32.5128 41.7612C30.975 43.375 29.3654 44.9212 27.8784 46.5815C27.8108 46.6575 27.7305 46.7293 27.6671 46.8054C27.4601 47.0504 27.2278 47.0673 26.9532 46.911C26.0026 46.3702 25.0394 45.8506 24.0889 45.3056C23.6495 45.0564 23.6495 44.9761 24.0086 44.6297C24.6465 44.0129 25.2887 43.4003 25.9266 42.7835C26.4335 42.2977 26.8898 41.7654 27.3207 41.2077C27.4348 41.0599 27.5446 40.8782 27.3883 40.7008C27.2066 40.4895 27.0039 40.6163 26.8391 40.7388C26.5434 40.9627 26.2561 41.1993 25.9815 41.4485C24.9972 42.3315 24.0171 43.2187 23.0454 44.11C22.8004 44.3382 22.568 44.4818 22.2216 44.2917C21.2668 43.7552 20.3036 43.2398 19.3531 42.699C18.9898 42.492 18.994 42.4498 19.2601 42.0822C19.6023 41.6175 19.9487 41.1528 20.2909 40.6881C20.4008 40.5402 20.5148 40.3839 20.5402 40.1938C20.5824 39.8981 20.3374 39.708 20.0755 39.8474C19.915 39.9319 19.7713 40.0629 19.6488 40.198C19.1968 40.6797 18.7532 41.1697 18.318 41.664C18.111 41.9048 17.9167 41.9555 17.621 41.7907C16.7 41.2796 15.7621 40.8022 14.837 40.3037C14.6553 40.2065 14.4779 40.1009 14.2666 40.0671C14.0934 40.0417 13.9371 40.084 13.8357 40.2403C13.7343 40.4008 13.7723 40.5614 13.8737 40.7008C14.047 40.9374 14.292 41.0979 14.5286 41.2584C15.2298 41.7358 15.9903 42.1076 16.7254 42.5258C17.1478 42.7666 17.1563 42.8089 16.8141 43.1468C16.1973 43.7594 15.5678 44.3551 14.9468 44.955C14.5835 45.3056 14.5793 45.3098 14.0976 45.0648C13.1218 44.5705 12.1459 44.072 11.1742 43.5777C10.9883 43.4848 10.8067 43.3834 10.5954 43.3707C10.418 43.3623 10.2659 43.4172 10.1899 43.5904C10.1223 43.7383 10.1645 43.8735 10.2575 43.996C10.4011 44.1776 10.5954 44.3002 10.7898 44.4142C11.5798 44.8663 12.3698 45.3098 13.164 45.7492C13.823 46.1125 13.823 46.1125 13.3245 46.6406C12.7415 47.2574 12.1585 47.87 11.5798 48.4868C11.4235 48.6515 11.2671 48.8163 11.1827 49.036C11.1024 49.2387 11.0813 49.4415 11.2503 49.6105C11.4277 49.7837 11.6305 49.7372 11.8248 49.6485C12.0572 49.5471 12.2304 49.3655 12.4036 49.188C13.1049 48.4572 13.8104 47.7305 14.499 46.9912C14.7144 46.7589 14.9172 46.6955 15.2003 46.8687C15.5551 47.0842 15.9185 47.2743 16.2818 47.4728C16.8056 47.7643 17.3295 48.0516 17.8491 48.3516C18.1786 48.5459 18.1913 48.6262 17.9252 48.9134C17.7435 49.112 17.5407 49.2894 17.3464 49.4753C16.8986 49.902 16.4465 50.3287 15.9987 50.7554C15.8804 50.8694 15.7621 50.9877 15.6523 51.1102C15.3101 51.4989 15.2341 51.8369 15.4369 52.0397C15.6312 52.234 15.9734 52.1706 16.3832 51.8496C16.5479 51.7228 16.7 51.5876 16.8521 51.444C17.5027 50.8399 18.1491 50.2315 18.7954 49.6232C19.2855 49.1627 19.2855 49.1542 19.8981 49.4964C20.819 50.0076 21.7358 50.523 22.6525 51.0384C23.3876 51.4524 23.3876 51.4862 22.8342 52.0946C22.6145 52.3396 22.361 52.5593 22.23 52.8719C22.1455 53.0789 22.1498 53.2817 22.3188 53.4465C22.4877 53.607 22.699 53.6154 22.8933 53.5014C23.0496 53.4084 23.1975 53.2902 23.3284 53.1592C23.5608 52.9268 23.7805 52.6776 24.0086 52.4368C24.3888 52.0354 24.3931 52.0354 24.8958 52.3058C26.0744 52.9437 27.2531 53.5901 28.4318 54.228C28.5754 54.3083 28.7275 54.3843 28.8838 54.4266C29.1542 54.4942 29.4457 54.4984 29.5936 54.2153C29.7456 53.9238 29.5767 53.6873 29.3485 53.5225C29.0613 53.3197 28.7571 53.1465 28.4487 52.9775C27.5108 52.4579 26.5645 51.9509 25.6266 51.4271C25.1831 51.1821 25.1788 51.144 25.521 50.7512C26.0491 50.1428 26.5856 49.5429 27.1264 48.9472C27.5235 48.5079 27.5362 48.5079 28.0642 48.7909C29.0444 49.319 30.0202 49.8598 31.0004 50.3878C31.9636 50.9075 32.931 51.4186 33.8773 51.8538C33.9872 51.8876 34.0463 51.9087 34.1055 51.9256C34.3547 51.989 34.6209 52.0439 34.7687 51.7777C34.9124 51.52 34.756 51.3004 34.5786 51.1145C34.3801 50.9159 34.1266 50.7765 33.8731 50.6413ZM19.4376 47.4982C19.2137 47.7137 19.0067 47.7517 18.7236 47.5911C17.8322 47.08 16.9197 46.5984 16.0241 46.0956C15.6396 45.8802 15.6312 45.8252 15.9438 45.5126C16.569 44.8874 17.207 44.2706 17.8364 43.6496C18.0054 43.4806 18.1871 43.3581 18.4406 43.4679C18.5335 43.5144 18.6264 43.5524 18.7194 43.6031C19.5643 44.072 20.4135 44.5325 21.2584 45.0099C21.702 45.2591 21.7146 45.3394 21.364 45.6732C20.7261 46.2857 20.0755 46.8856 19.4376 47.4982ZM26.3321 48.2248C25.6816 48.9388 25.0352 49.657 24.3888 50.3752C24.2452 50.5357 24.0889 50.5906 24.0044 50.5273C23.5017 50.2442 23.1088 50.0203 22.7159 49.8006C21.9977 49.3993 21.2753 49.0064 20.5613 48.6008C20.2276 48.4107 20.2107 48.3135 20.481 48.0432C21.1359 47.3884 21.8118 46.7589 22.4751 46.1125C22.661 45.9351 22.8342 45.8802 23.0792 46.0196C24.1353 46.6195 25.1957 47.2109 26.2561 47.7981C26.4673 47.9164 26.5054 48.0389 26.3321 48.2248Z" stroke="#C7A044" stroke-width="0.6" mask="url(#path-2-outside-2_18_3166)"/>
<path d="M9.40456 25.3809C11.1676 24.1706 13.1423 23.8529 15.2571 24.1865C17.0342 24.4678 18.7204 25.0599 20.3948 25.6377C20.6292 25.7188 20.8601 25.842 21.0247 26.0664H21.0237C21.1319 26.2125 21.1844 26.3787 21.1399 26.541C21.0955 26.7028 20.9656 26.819 20.7981 26.8916L20.7991 26.8926C20.488 27.0281 20.1784 26.9785 19.9046 26.8945V26.8936C19.3129 26.716 18.7201 26.5307 18.0501 26.3242L18.0462 26.3232C16.9972 25.9708 15.8491 25.6773 14.6692 25.5225V25.5215C12.2254 25.2033 10.2293 26.0231 8.62135 27.8672V27.8682C8.40869 28.11 8.21585 28.3683 8.00417 28.6318L8.00319 28.6338C7.95474 28.6919 7.89222 28.7528 7.81178 28.791C7.72654 28.8315 7.6303 28.8418 7.52663 28.8135L7.5237 28.8125C7.32965 28.7548 7.21971 28.6191 7.17018 28.4561L7.1526 28.3848C7.09505 28.0865 7.2192 27.8403 7.32838 27.6387C7.75766 26.8408 8.34294 26.1828 9.05495 25.6348L9.40456 25.3809Z" fill="#C7A044" stroke="#C7A044" stroke-width="0.3"/>
<path d="M22.3006 26.3226C22.3946 26.327 22.49 26.3345 22.5857 26.3461L22.8738 26.3929L24.281 26.6908C25.6874 26.9814 27.095 27.2388 28.5252 27.3617C30.528 27.5353 32.5 27.7091 34.448 27.2054H34.449C34.6819 27.1472 34.9271 27.1205 35.1619 27.1205C35.3058 27.1205 35.4736 27.1353 35.6189 27.2054C35.7737 27.2803 35.8946 27.4144 35.9383 27.6244C35.9814 27.8318 35.9293 28.0041 35.8181 28.1361C35.7394 28.2295 35.6354 28.2977 35.5291 28.349L35.4226 28.3949C35.1841 28.4876 34.9232 28.5424 34.6931 28.6029C33.4222 28.9378 32.1289 28.9842 30.8387 28.9418C28.3225 28.8569 25.8474 28.4961 23.4187 27.8168L23.4138 27.8148C23.1494 27.7307 22.8522 27.6577 22.5769 27.5502L22.576 27.5492C22.374 27.4684 22.1818 27.3617 22.0047 27.2377L22.0027 27.2357C21.9155 27.1723 21.8393 27.0874 21.7986 26.9808C21.757 26.8717 21.7568 26.7504 21.8025 26.6273L21.8045 26.6215C21.8982 26.3967 22.1022 26.3172 22.2976 26.3226H22.3006Z" fill="#C7A044" stroke="#C7A044" stroke-width="0.3"/>
<path d="M12.0211 18.937C13.4693 18.4371 14.9474 18.4138 16.4312 18.6099C18.2794 18.8494 19.9789 19.5285 21.6412 20.2729H21.6402C21.8268 20.3559 22.0222 20.438 22.2105 20.5278H22.2095C22.3734 20.6015 22.5519 20.6773 22.7213 20.7798L22.7222 20.7808C22.8453 20.8558 22.9922 20.9491 23.0953 21.0786C23.2057 21.2173 23.2627 21.3933 23.2173 21.6147V21.6167C23.1783 21.7949 23.0476 21.9113 22.8843 21.9722C22.7257 22.0313 22.5274 22.0427 22.3121 22.0161V22.0171C22.1826 22.0037 22.0382 21.9648 21.9693 21.9517L21.9537 21.9487L21.939 21.9419C21.1099 21.5865 20.3174 21.2405 19.5162 20.9116C16.8447 19.8128 14.1465 19.3629 11.3589 20.3433L11.3599 20.3442C11.3004 20.3658 11.1898 20.4139 11.0875 20.4224C11.0303 20.427 10.9651 20.4214 10.9009 20.3911C10.8362 20.3604 10.7837 20.3098 10.7427 20.2446L10.7437 20.2437C10.6549 20.1059 10.6486 19.9677 10.6949 19.8433C10.7374 19.7291 10.8207 19.6355 10.8912 19.5649C11.2171 19.239 11.6257 19.0731 12.0211 18.937Z" fill="#C7A044" stroke="#C7A044" stroke-width="0.3"/>
<path d="M38.4904 18.9121C38.6481 18.888 38.813 18.9222 38.9592 19.0566L39.01 19.1084C39.1188 19.2315 39.1569 19.3731 39.1447 19.5146C39.1317 19.6665 39.0624 19.8098 38.9904 19.9268C38.878 20.1153 38.7397 20.2833 38.6037 20.4404V20.4414C37.7902 21.3718 36.7731 22.0064 35.6135 22.3857C33.5694 23.0557 31.4638 23.2639 29.3283 23.1533V23.1523C29.1931 23.1473 29.0451 23.1098 28.9934 23.1006L28.9856 23.0996L28.9778 23.0977C28.8618 23.0645 28.7319 23.024 28.6311 22.9541C28.5191 22.8764 28.4409 22.7607 28.4377 22.5967V22.5938C28.4378 22.4128 28.5173 22.2835 28.636 22.2002C28.7445 22.124 28.8781 22.0919 28.9865 22.0742H28.9875C29.3961 22.011 29.8129 21.9467 30.2307 21.9209C31.4016 21.8453 32.557 21.6814 33.7102 21.4668C35.2247 21.1839 36.5667 20.5782 37.6428 19.4609H37.6438C37.7725 19.3279 37.9213 19.1861 38.093 19.0791L38.1809 19.0264C38.2731 18.9747 38.3789 18.9292 38.4904 18.9121Z" fill="#C7A044" stroke="#C7A044" stroke-width="0.3"/>
<path d="M25.292 21.4053C25.9302 21.3654 26.5322 21.5654 27.0908 21.7051H27.0918C27.4206 21.7889 27.5574 22.1131 27.5117 22.418C27.4879 22.5805 27.417 22.7137 27.3066 22.8096C27.1979 22.904 27.0603 22.9533 26.916 22.9707C26.667 23.0007 26.4278 22.975 26.2129 22.9375C26.1057 22.9188 26.0022 22.8969 25.9072 22.877C25.8108 22.8567 25.7231 22.8391 25.6426 22.8271L25.6318 22.8252L25.6211 22.8223C25.3565 22.7421 25.1358 22.6827 24.9658 22.5293C24.8685 22.4441 24.7875 22.3414 24.7432 22.2197C24.698 22.0954 24.6944 21.9604 24.7402 21.8203C24.8257 21.5544 25.0471 21.4212 25.292 21.4053Z" fill="#C7A044" stroke="#C7A044" stroke-width="0.3"/>
<path d="M35.722 9.07532C35.8289 8.97957 35.9703 8.93356 36.1458 8.97668C36.321 9.01826 36.4258 9.12478 36.4818 9.25403C36.5325 9.37126 36.5429 9.50459 36.5491 9.60559L36.5501 9.81262C36.5387 10.0201 36.4888 10.2339 36.3968 10.4904V10.4923C35.8743 11.8977 34.9451 13.0588 33.511 13.7531L33.2171 13.8859C31.9346 14.4281 30.5961 14.6219 29.2132 14.506V14.505C28.9388 14.4826 28.7034 14.4165 28.5286 14.3038C28.3504 14.1888 28.2324 14.022 28.2151 13.8146L28.2142 13.8107C28.2023 13.585 28.3194 13.4047 28.511 13.2872C28.6959 13.1741 28.9539 13.1147 29.2581 13.1036L29.8206 13.09C30.3748 13.0808 30.9087 13.0736 31.4505 12.9591H31.4515C33.3604 12.56 34.6364 11.4416 35.3958 9.67102V9.67004C35.4152 9.62552 35.4312 9.58162 35.4505 9.53137C35.4691 9.48302 35.4906 9.42995 35.5169 9.37708L35.5999 9.22375C35.6334 9.17078 35.6738 9.11857 35.722 9.07532Z" fill="#C7A044" stroke="#C7A044" stroke-width="0.3"/>
<path d="M25.8459 12.3646C26.0936 12.3072 26.3327 12.3256 26.591 12.3802L26.8566 12.4447L26.8732 12.4496L26.8889 12.4584C26.9118 12.4707 27.0142 12.5141 27.1154 12.5746L27.2141 12.64V12.641C27.4288 12.8086 27.5368 13.0617 27.466 13.3451V13.3461C27.3893 13.6363 27.163 13.8019 26.8869 13.8285C26.4372 13.8733 26.0009 13.7977 25.6047 13.5443V13.5433C25.4943 13.4729 25.4012 13.3804 25.3439 13.2631C25.2861 13.1445 25.2695 13.0105 25.298 12.8676C25.3258 12.7128 25.4009 12.596 25.506 12.5131C25.6071 12.4335 25.7293 12.3905 25.8459 12.3646Z" fill="#C7A044" stroke="#C7A044" stroke-width="0.3"/>
</svg>
