<svg width="290" height="124" viewBox="0 0 290 124" fill="none" xmlns="http://www.w3.org/2000/svg">
<path d="M67.3941 115.926C68.1236 115.926 68.7242 116.003 69.1819 116.156C69.6396 116.309 69.9757 116.532 70.1974 116.832C70.4191 117.131 70.5263 117.501 70.5263 117.946C70.5263 118.26 70.462 118.539 70.3332 118.782C70.2045 119.026 70.0257 119.221 69.7898 119.374C69.5538 119.528 69.282 119.632 68.9674 119.688V119.73C69.3178 119.785 69.6253 119.883 69.8827 120.029C70.1402 120.176 70.3404 120.371 70.4834 120.628C70.6264 120.886 70.6979 121.207 70.6979 121.597C70.6979 122.356 70.4262 122.927 69.8756 123.317C69.3249 123.7 68.6027 123.895 67.6945 123.895H64.877V115.933H67.3941V115.926ZM67.5086 119.319C68.1236 119.319 68.5669 119.214 68.8387 119.005C69.1033 118.796 69.2391 118.49 69.2391 118.079C69.2391 117.668 69.089 117.368 68.7815 117.173C68.474 116.978 68.0163 116.881 67.3941 116.881H66.1212V119.319H67.5086ZM67.6373 122.92C68.2451 122.92 68.6956 122.802 68.9888 122.558C69.282 122.314 69.4251 121.966 69.4251 121.513C69.4251 121.102 69.2749 120.782 68.9674 120.552C68.6599 120.322 68.1879 120.203 67.5372 120.203H66.1212V122.92H67.6373Z" fill="white"/>
<path d="M72.7074 123.881L75.7967 115.891H77.2126L80.259 123.881H78.8859L78.0707 121.61H74.9457L74.0876 123.881H72.7074ZM76.9051 118.371C76.855 118.239 76.805 118.106 76.7549 117.96C76.7049 117.814 76.6548 117.667 76.6119 117.521C76.569 117.375 76.5261 117.222 76.4903 117.075C76.4546 117.222 76.4117 117.368 76.3688 117.514C76.3259 117.661 76.283 117.8 76.2329 117.946C76.1828 118.092 76.1328 118.239 76.0756 118.385L75.2746 120.6H77.6846L76.9051 118.371Z" fill="white"/>
<path d="M84.9644 115.926C86.0299 115.926 86.8237 116.121 87.3457 116.504C87.8678 116.888 88.1252 117.452 88.1252 118.197C88.1252 118.706 87.9965 119.145 87.739 119.521C87.4816 119.89 87.074 120.169 86.5091 120.357L88.7831 123.888H87.36L85.4006 120.663H83.9275V123.888H82.6832V115.926H84.9644ZM85.0645 119.681C85.6295 119.681 86.0657 119.57 86.3803 119.347C86.695 119.124 86.8523 118.768 86.8523 118.288C86.8523 117.779 86.6878 117.417 86.366 117.208C86.0442 116.999 85.5723 116.895 84.9501 116.895H83.9347V119.681H85.0645Z" fill="white"/>
<path d="M93.6315 115.926C94.697 115.926 95.4908 116.121 96.0128 116.504C96.5348 116.888 96.7923 117.452 96.7923 118.197C96.7923 118.706 96.6635 119.145 96.4061 119.521C96.1487 119.89 95.741 120.169 95.1761 120.357L97.4502 123.888H96.0342L94.0748 120.663H92.6017V123.888H91.3574V115.926H93.6315ZM93.7316 119.681C94.2965 119.681 94.7327 119.57 95.0474 119.347C95.362 119.124 95.5194 118.768 95.5194 118.288C95.5194 117.779 95.3549 117.417 95.0331 117.208C94.7113 116.999 94.2393 116.895 93.6172 116.895H92.6017V119.681H93.7316Z" fill="white"/>
<path d="M98.9734 123.881L102.063 115.891H103.479L106.518 123.881H105.145L104.33 121.61H101.205L100.346 123.881H98.9734ZM103.171 118.371C103.121 118.239 103.071 118.106 103.021 117.96C102.971 117.814 102.921 117.667 102.878 117.521C102.835 117.375 102.792 117.222 102.756 117.075C102.721 117.222 102.678 117.368 102.635 117.514C102.592 117.661 102.549 117.8 102.499 117.946C102.449 118.092 102.399 118.239 102.342 118.385L101.541 120.6H103.958L103.171 118.371Z" fill="white"/>
<path d="M113.876 121.687C113.876 122.14 113.755 122.544 113.519 122.892C113.283 123.241 112.939 123.512 112.496 123.707C112.053 123.902 111.523 124 110.901 124C110.551 124 110.229 123.986 109.943 123.958C109.657 123.93 109.4 123.888 109.164 123.826C108.928 123.763 108.706 123.693 108.484 123.61V122.495C108.835 122.656 109.221 122.774 109.636 122.864C110.05 122.955 110.472 122.997 110.901 122.997C111.402 122.997 111.817 122.892 112.131 122.683C112.446 122.474 112.603 122.175 112.603 121.785C112.603 121.513 112.532 121.297 112.389 121.13C112.246 120.963 112.031 120.81 111.752 120.677C111.473 120.545 111.123 120.405 110.715 120.266C110.258 120.099 109.872 119.918 109.55 119.73C109.228 119.542 108.985 119.305 108.82 119.026C108.656 118.748 108.57 118.392 108.57 117.967C108.57 117.501 108.692 117.111 108.942 116.79C109.192 116.47 109.528 116.226 109.95 116.059C110.372 115.891 110.851 115.808 111.388 115.808C111.838 115.808 112.253 115.857 112.653 115.947C113.047 116.038 113.411 116.156 113.747 116.295L113.347 117.257C113.004 117.111 112.668 116.992 112.324 116.915C111.988 116.839 111.666 116.797 111.359 116.797C110.894 116.797 110.522 116.895 110.236 117.09C109.957 117.285 109.814 117.563 109.814 117.926C109.814 118.197 109.886 118.413 110.029 118.58C110.172 118.748 110.386 118.894 110.665 119.012C110.944 119.131 111.28 119.27 111.674 119.416C112.103 119.577 112.482 119.744 112.818 119.932C113.154 120.12 113.411 120.35 113.597 120.621C113.783 120.893 113.876 121.248 113.876 121.687Z" fill="white"/>
<path d="M128.5 119.806C128.5 120.705 128.329 121.457 127.993 122.063C127.656 122.669 127.163 123.122 126.519 123.429C125.876 123.735 125.096 123.888 124.181 123.888H121.907V115.926H124.396C125.726 115.926 126.748 116.261 127.442 116.922C128.15 117.584 128.5 118.546 128.5 119.806ZM127.199 119.848C127.199 118.88 126.956 118.155 126.469 117.668C125.983 117.18 125.275 116.936 124.338 116.936H123.151V122.864H124.181C125.196 122.864 125.955 122.614 126.455 122.112C126.956 121.618 127.199 120.858 127.199 119.848Z" fill="white"/>
<path d="M131.618 115.926H136.302V116.915H132.862V119.27H136.088V120.245H132.862V122.906H136.302V123.895H131.618V115.926Z" fill="white"/>
<path d="M149.403 121.687C149.403 122.14 149.281 122.544 149.045 122.892C148.809 123.241 148.466 123.512 148.023 123.707C147.579 123.902 147.05 124 146.428 124C146.078 124 145.756 123.986 145.47 123.958C145.184 123.93 144.926 123.888 144.69 123.826C144.454 123.763 144.233 123.693 144.011 123.61V122.495C144.361 122.656 144.748 122.774 145.162 122.864C145.577 122.955 145.999 122.997 146.428 122.997C146.929 122.997 147.343 122.892 147.658 122.683C147.973 122.474 148.13 122.175 148.13 121.785C148.13 121.513 148.059 121.297 147.915 121.13C147.772 120.963 147.558 120.81 147.279 120.677C147 120.545 146.65 120.405 146.242 120.266C145.784 120.099 145.398 119.918 145.076 119.73C144.755 119.542 144.512 119.305 144.347 119.026C144.183 118.748 144.097 118.392 144.097 117.967C144.097 117.501 144.218 117.111 144.469 116.79C144.719 116.47 145.055 116.226 145.477 116.059C145.899 115.891 146.378 115.808 146.914 115.808C147.365 115.808 147.78 115.857 148.18 115.947C148.573 116.038 148.938 116.156 149.274 116.295L148.874 117.257C148.53 117.111 148.194 116.992 147.851 116.915C147.515 116.839 147.193 116.797 146.886 116.797C146.421 116.797 146.049 116.895 145.763 117.09C145.484 117.285 145.341 117.563 145.341 117.926C145.341 118.197 145.413 118.413 145.556 118.58C145.699 118.748 145.913 118.894 146.192 119.012C146.471 119.131 146.807 119.27 147.2 119.416C147.629 119.577 148.008 119.744 148.345 119.932C148.681 120.12 148.938 120.35 149.124 120.621C149.31 120.893 149.403 121.248 149.403 121.687Z" fill="white"/>
<path d="M159.114 115.926V123.888H157.584L153.443 117.431H153.386C153.393 117.549 153.408 117.696 153.415 117.863C153.422 118.03 153.436 118.204 153.443 118.378C153.45 118.552 153.458 118.727 153.465 118.901C153.472 119.075 153.472 119.235 153.472 119.381V123.888H152.342V115.926H153.872L157.999 122.356H158.041C158.034 122.251 158.02 122.133 158.013 121.987C158.006 121.84 157.999 121.687 157.991 121.52C157.984 121.353 157.984 121.179 157.984 121.005C157.984 120.83 157.984 120.656 157.984 120.489V115.926H159.114Z" fill="white"/>
<path d="M161.567 123.881L164.656 115.891H166.072L169.118 123.881H167.745L166.93 121.61H163.805L162.947 123.881H161.567ZM165.772 118.371C165.722 118.239 165.672 118.106 165.622 117.96C165.572 117.814 165.521 117.667 165.479 117.521C165.436 117.375 165.393 117.222 165.357 117.075C165.321 117.222 165.278 117.368 165.235 117.514C165.193 117.661 165.15 117.8 165.1 117.946C165.049 118.092 164.999 118.239 164.942 118.385L164.141 120.6H166.551L165.772 118.371Z" fill="white"/>
<path d="M175.011 116.839C174.439 116.839 173.953 116.964 173.552 117.215C173.152 117.466 172.844 117.821 172.637 118.281C172.429 118.741 172.322 119.284 172.322 119.904C172.322 120.858 172.544 121.611 172.987 122.154C173.431 122.697 174.103 122.969 174.997 122.969C175.347 122.969 175.69 122.934 176.019 122.864C176.348 122.795 176.67 122.697 176.985 122.579V123.652C176.677 123.77 176.348 123.861 175.984 123.916C175.619 123.972 175.233 124 174.811 124C173.96 124 173.259 123.826 172.694 123.484C172.129 123.143 171.714 122.662 171.428 122.042C171.149 121.423 171.006 120.712 171.006 119.89C171.006 119.089 171.164 118.385 171.485 117.772C171.807 117.159 172.265 116.679 172.858 116.33C173.452 115.982 174.16 115.808 174.982 115.808C175.39 115.808 175.798 115.85 176.191 115.933C176.584 116.017 176.963 116.142 177.314 116.309L176.899 117.299C176.606 117.159 176.298 117.048 175.984 116.964C175.669 116.881 175.347 116.839 175.011 116.839Z" fill="white"/>
<path d="M180.138 115.926H181.397V119.792C181.483 119.688 181.569 119.59 181.661 119.486C181.754 119.381 181.847 119.277 181.94 119.172C182.033 119.068 182.126 118.963 182.212 118.859L184.858 115.926H186.288L183.213 119.374L186.31 123.881H184.865L182.305 120.155L181.39 120.865V123.881H180.131V115.926H180.138Z" fill="white"/>
<path d="M199.554 115.926L196.808 120.796V123.881H195.535V120.851L192.789 115.926H194.162L196.178 119.723L198.209 115.926H199.554Z" fill="white"/>
<path d="M215.479 115.926V123.888H214.306V118.894C214.306 118.706 214.306 118.504 214.313 118.274C214.321 118.044 214.328 117.835 214.335 117.64C214.342 117.445 214.356 117.299 214.363 117.208H214.321L211.803 123.888H210.716L208.199 117.194H208.156C208.156 117.285 208.163 117.431 208.171 117.633C208.178 117.835 208.192 118.051 208.199 118.281C208.206 118.511 208.214 118.734 208.214 118.95V123.888H207.084V115.926H208.814L211.274 122.384H211.303L213.748 115.926H215.479Z" fill="white"/>
<path d="M226.277 119.89C226.277 120.705 226.141 121.423 225.862 122.043C225.584 122.662 225.169 123.136 224.604 123.484C224.039 123.826 223.331 124 222.459 124C221.6 124 220.885 123.826 220.313 123.484C219.741 123.143 219.312 122.662 219.033 122.036C218.754 121.416 218.611 120.698 218.611 119.876C218.611 119.068 218.754 118.357 219.033 117.744C219.312 117.131 219.741 116.658 220.313 116.309C220.885 115.968 221.6 115.794 222.459 115.794C223.324 115.794 224.039 115.968 224.604 116.309C225.169 116.651 225.584 117.131 225.862 117.751C226.141 118.371 226.277 119.082 226.277 119.89ZM219.934 119.89C219.934 120.503 220.02 121.039 220.199 121.499C220.378 121.959 220.649 122.314 221.021 122.572C221.393 122.83 221.865 122.955 222.451 122.955C223.038 122.955 223.517 122.83 223.889 122.579C224.261 122.328 224.525 121.973 224.704 121.513C224.883 121.053 224.969 120.517 224.969 119.89C224.969 118.929 224.761 118.176 224.339 117.64C223.917 117.104 223.288 116.839 222.451 116.839C221.879 116.839 221.407 116.964 221.035 117.215C220.664 117.466 220.385 117.821 220.206 118.274C220.027 118.727 219.934 119.27 219.934 119.89Z" fill="white"/>
<path d="M231.919 115.926C232.656 115.926 233.25 116.003 233.707 116.156C234.165 116.309 234.501 116.532 234.723 116.832C234.944 117.131 235.052 117.501 235.052 117.946C235.052 118.26 234.987 118.539 234.859 118.782C234.73 119.026 234.551 119.221 234.315 119.374C234.079 119.528 233.807 119.632 233.493 119.688V119.73C233.843 119.785 234.151 119.883 234.408 120.029C234.665 120.176 234.866 120.371 235.009 120.628C235.152 120.886 235.223 121.207 235.223 121.597C235.223 122.356 234.951 122.927 234.401 123.317C233.85 123.7 233.128 123.895 232.22 123.895H229.402V115.933H231.919V115.926ZM232.034 119.319C232.656 119.319 233.099 119.214 233.364 119.005C233.629 118.796 233.764 118.49 233.764 118.079C233.764 117.668 233.614 117.368 233.307 117.173C232.999 116.978 232.542 116.881 231.919 116.881H230.647V119.319H232.034ZM232.163 122.92C232.77 122.92 233.221 122.802 233.514 122.558C233.807 122.314 233.95 121.966 233.95 121.513C233.95 121.102 233.8 120.782 233.493 120.552C233.185 120.322 232.713 120.203 232.062 120.203H230.647V122.92H232.163Z" fill="white"/>
<path d="M237.762 123.881V123.185L238.691 122.962V116.852L237.762 116.643V115.919H240.88V116.643L239.95 116.852V122.962L240.88 123.185V123.881H237.762Z" fill="white"/>
<path d="M245.077 115.926V122.871H248.717V123.888H243.833V115.926H245.077Z" fill="white"/>
<path d="M250.963 123.881V123.185L251.892 122.962V116.852L250.963 116.643V115.919H254.074V116.643L253.144 116.852V122.962L254.074 123.185V123.881H250.963Z" fill="white"/>
<path d="M255.976 123.881L259.065 115.891H260.481L263.527 123.881H262.154L261.339 121.61H258.214L257.356 123.881H255.976ZM260.181 118.371C260.13 118.239 260.08 118.106 260.03 117.96C259.98 117.814 259.93 117.667 259.887 117.521C259.844 117.375 259.802 117.222 259.766 117.075C259.73 117.222 259.687 117.368 259.644 117.514C259.601 117.661 259.558 117.8 259.508 117.946C259.458 118.092 259.408 118.239 259.351 118.385L258.55 120.6H260.96L260.181 118.371Z" fill="white"/>
<path d="M268.233 115.926C269.298 115.926 270.092 116.121 270.614 116.504C271.136 116.888 271.394 117.452 271.394 118.197C271.394 118.706 271.265 119.145 271.007 119.521C270.75 119.89 270.342 120.169 269.777 120.357L272.051 123.888H270.636L268.676 120.663H267.203V123.888H265.959V115.926H268.233ZM268.333 119.681C268.898 119.681 269.334 119.57 269.649 119.347C269.963 119.124 270.121 118.768 270.121 118.288C270.121 117.779 269.956 117.417 269.634 117.208C269.313 116.999 268.841 116.895 268.218 116.895H267.203V119.681H268.333Z" fill="white"/>
<path d="M274.104 123.881V123.185L275.033 122.962V116.852L274.104 116.643V115.919H277.214V116.643L276.285 116.852V122.962L277.214 123.185V123.881H274.104Z" fill="white"/>
<path d="M287.462 119.89C287.462 120.705 287.326 121.423 287.047 122.043C286.768 122.662 286.354 123.136 285.789 123.484C285.224 123.826 284.516 124 283.643 124C282.785 124 282.07 123.826 281.498 123.484C280.926 123.143 280.497 122.662 280.218 122.036C279.939 121.416 279.796 120.698 279.796 119.876C279.796 119.068 279.939 118.357 280.218 117.744C280.497 117.131 280.926 116.658 281.498 116.309C282.07 115.968 282.785 115.794 283.643 115.794C284.509 115.794 285.224 115.968 285.789 116.309C286.354 116.651 286.768 117.131 287.047 117.751C287.319 118.371 287.462 119.082 287.462 119.89ZM281.119 119.89C281.119 120.503 281.205 121.039 281.384 121.499C281.562 121.959 281.834 122.314 282.206 122.572C282.578 122.83 283.05 122.955 283.636 122.955C284.223 122.955 284.702 122.83 285.074 122.579C285.445 122.328 285.71 121.973 285.889 121.513C286.068 121.053 286.153 120.517 286.153 119.89C286.153 118.929 285.946 118.176 285.524 117.64C285.102 117.104 284.473 116.839 283.636 116.839C283.064 116.839 282.592 116.964 282.22 117.215C281.848 117.466 281.569 117.821 281.391 118.274C281.212 118.727 281.119 119.27 281.119 119.89Z" fill="white"/>
<path d="M175.705 68.439C177.285 68.439 178.73 68.1603 179.995 67.61C181.068 67.1433 181.955 66.5582 182.641 65.8616C182.734 66.586 182.992 67.1712 183.428 67.6031C183.978 68.1534 184.701 68.432 185.595 68.432C186.517 68.432 187.189 68.1534 187.59 67.6031L187.69 67.4637V67.2966V59.8777C187.69 56.3181 188.169 53.7685 189.12 52.2986C190.035 50.8845 191.151 50.2018 192.545 50.2018C193.961 50.2018 194.684 51.7622 194.684 54.8412V60.9992C194.684 63.1518 195.356 64.942 196.679 66.3213C198.009 67.7145 199.704 68.4181 201.727 68.4181C203.773 68.4181 205.453 67.5404 206.726 65.8128C206.826 65.6735 206.926 65.5341 207.019 65.3879C207.284 65.8546 207.606 66.2725 207.985 66.6348C209.215 67.812 210.838 68.4111 212.812 68.4111C215.701 68.4111 217.825 67.2757 219.148 65.0256C220.335 67.2757 222.408 68.4111 225.326 68.4111C227.457 68.4111 229.145 67.5961 230.325 65.98C230.518 65.7222 230.689 65.4436 230.854 65.151C231.061 65.5063 231.297 65.8407 231.555 66.1402C232.842 67.6449 234.794 68.4111 237.354 68.4111C239.45 68.4111 241.194 67.5404 242.546 65.8198C242.839 65.4436 243.104 65.0465 243.34 64.6216C244.684 67.1364 247.03 68.4111 250.319 68.4111C251.678 68.4111 252.908 68.028 253.973 67.2687C254.746 66.7253 255.396 66.0287 255.933 65.1998C257.106 67.3314 259.122 68.4042 261.947 68.4042C264.078 68.4042 265.766 67.5891 266.945 65.973C268.09 64.4126 268.669 62.3298 268.669 59.7663C268.669 58.993 268.669 56.945 267.332 56.945C266.438 56.945 266.187 57.3212 266.137 57.6416L266.13 57.6834V57.7252C266.13 62.9915 264.9 65.6665 262.476 65.6665C261.739 65.6665 261.189 65.3461 260.745 64.6564C260.266 63.9041 260.023 62.7408 260.023 61.2013V48.7877V48.5718L259.866 48.4185C259.351 47.917 258.586 47.6592 257.592 47.6592C256.755 47.6592 256.076 48.0006 255.597 48.6484C254.617 47.9936 253.208 47.6592 251.378 47.6592C248.567 47.6592 246.279 48.5161 244.563 50.2018C242.903 51.8319 242.038 54.3397 241.988 57.6625L241.981 57.6764V57.774C241.981 60.63 241.523 62.699 240.608 63.9319C239.736 65.1092 238.82 65.7083 237.883 65.7083C236.925 65.7083 236.189 65.367 235.638 64.6564C235.059 63.918 234.766 62.7686 234.766 61.2431V49.9023C236.239 48.9967 237.562 47.6662 238.713 45.9456C239.936 44.1066 240.558 41.6406 240.558 38.6312C240.558 33.3927 237.869 32.2991 235.617 32.2991C233.378 32.2991 231.791 33.2813 230.897 35.2109C230.053 37.029 229.645 39.7806 229.645 43.6259V57.3908C229.567 57.4953 229.531 57.5998 229.517 57.6904L229.509 57.7322V57.774C229.509 60.9923 229.038 63.2075 228.108 64.3499C227.357 65.2555 226.599 65.7153 225.855 65.7153C225.119 65.7153 224.568 65.3948 224.125 64.7052C223.646 63.9529 223.402 62.7895 223.402 61.25V48.7877V48.5718L223.245 48.4185C222.723 47.917 222.029 47.6592 221.171 47.6592C220.327 47.6592 219.591 47.9309 218.983 48.4673C218.368 49.0176 218.053 49.8117 218.053 50.8288V57.4674C218.053 60.1842 217.539 62.3019 216.523 63.7717C215.536 65.1928 214.492 65.8825 213.334 65.8825C211.918 65.8825 211.196 64.3221 211.196 61.2431V48.7877V48.5718L211.038 48.4185C210.516 47.917 209.837 47.6592 209.014 47.6592C208.185 47.6592 207.484 47.9379 206.941 48.4882C206.397 49.0385 206.125 49.8187 206.125 50.8218V57.4535C206.075 57.5371 206.054 57.6207 206.047 57.6834L206.04 57.7252V57.767C206.04 60.5534 205.653 62.6154 204.888 63.9041C204.18 65.1023 203.394 65.7083 202.564 65.7083C201.706 65.7083 201.098 65.3879 200.662 64.6982C200.183 63.9459 199.94 62.7826 199.94 61.2431V55.0851C199.94 52.7305 199.31 50.8915 198.08 49.6097C196.836 48.321 195.156 47.6662 193.082 47.6662C190.822 47.6662 189.013 48.3837 187.69 49.8118V47.8334C190.972 44.5872 192.631 41.3341 192.631 38.1575C192.631 36.3533 192.288 34.9322 191.609 33.9222C190.879 32.8424 189.85 32.2991 188.534 32.2991C186.202 32.2991 184.593 33.2604 183.764 35.1552C182.984 36.9315 182.605 39.6692 182.605 43.5353V58.8467C182.555 58.9303 182.534 59.0139 182.527 59.0766L182.52 59.1184V59.1602C182.52 61.2849 181.89 62.8661 180.603 64.0016C179.294 65.151 177.728 65.7083 175.798 65.7083C173.895 65.7083 172.458 65.144 171.414 63.9737C170.363 62.8034 169.834 60.839 169.834 58.1362C169.834 55.3707 170.127 53.3366 170.699 52.0757C171.221 50.9403 172.043 50.3899 173.216 50.3899C173.853 50.3899 174.389 50.6546 174.854 51.198C175.34 51.7762 175.576 52.3892 175.576 53.0788C175.576 53.8172 175.497 54.3815 175.347 54.7507L175.24 55.0084L175.397 55.2383C175.74 55.7399 176.398 55.9906 177.357 55.9906C177.914 55.9906 178.479 55.719 179.03 55.1896C179.581 54.6532 179.852 53.9496 179.852 53.0858C179.852 51.6299 179.373 50.3551 178.429 49.2963C177.464 48.2096 175.948 47.6592 173.924 47.6592C171.192 47.6592 168.918 48.6136 167.159 50.5014C165.572 52.1941 164.699 54.5208 164.556 57.4117C164.485 57.5093 164.456 57.6068 164.442 57.6904L164.435 57.7322V57.774C164.435 60.7276 164.055 62.8383 163.312 64.0365C162.611 65.165 161.846 65.7153 160.988 65.7153C160.122 65.7153 159.493 65.3809 159.057 64.7052C158.578 63.9529 158.335 62.7895 158.335 61.25V55.092C158.335 52.7375 157.705 50.8985 156.475 49.6167C155.231 48.328 153.551 47.6732 151.477 47.6732C149.131 47.6732 147.279 48.4464 145.942 49.9789C145.527 48.112 144.297 47.6732 143.232 47.6732C142.223 47.6732 141.508 47.9518 141.1 48.5021L141 48.6415V48.8086V57.5929C140.779 60.3723 139.692 62.692 137.761 64.4892C135.573 66.5233 132.998 67.5543 130.116 67.5543C127.206 67.5543 124.903 66.9274 123.273 65.6874C121.657 64.4614 120.877 62.6572 120.877 60.1564C120.877 57.6764 121.785 55.8931 123.659 54.7159C125.583 53.5038 128.107 52.8908 131.16 52.8908C132.348 52.8908 133.034 52.2917 133.034 51.2398C133.034 50.6895 132.805 50.2506 132.376 49.965C132.004 49.7142 131.597 49.5888 131.16 49.5888C125.497 49.5888 122.744 47.6453 122.744 43.6468C122.744 41.7311 123.294 40.3379 124.431 39.3766C125.575 38.4083 127.07 37.9207 128.894 37.9207C130.739 37.9207 132.24 38.2829 133.363 39.0074C134.428 39.6901 134.951 40.7001 134.951 42.0864C134.951 42.6506 134.872 43.1313 134.722 43.5005L134.614 43.7582L134.772 43.9881C135.115 44.4897 135.759 44.7405 136.688 44.7405C137.282 44.7405 137.854 44.4688 138.405 43.9394C138.955 43.403 139.227 42.6994 139.227 41.8356C139.227 39.8851 138.326 38.1924 136.552 36.8061C134.815 35.4477 132.226 34.7581 128.865 34.7581C125.511 34.7581 122.772 35.5174 120.727 37.0081C118.632 38.5337 117.573 40.7698 117.573 43.6538C117.573 44.9843 117.788 46.1894 118.21 47.2273C118.639 48.2723 119.147 49.0803 119.733 49.6167C120.398 50.2785 121.142 50.8009 121.95 51.1841C121.414 51.3513 120.863 51.5811 120.305 51.8667C119.483 52.2986 118.739 52.842 118.095 53.4829C117.437 54.1377 116.865 55.0572 116.401 56.2136C115.936 57.3699 115.693 58.7004 115.693 60.1773C115.693 63.5279 117.08 66.1681 119.819 68.028C122.493 69.8461 125.861 70.7657 129.816 70.7657C132.019 70.7657 134.057 70.3686 135.866 69.5954C137.682 68.8152 139.17 67.7772 140.285 66.5094C140.536 66.2238 140.779 65.9312 141 65.6317C141.058 66.4815 141.329 67.1503 141.808 67.6379C142.359 68.1882 143.081 68.4669 143.975 68.4669C144.898 68.4669 145.57 68.1882 145.97 67.6379L146.07 67.4986V67.3314V59.9125C146.07 56.3529 146.55 53.8033 147.501 52.3335C148.416 50.9194 149.532 50.2367 150.926 50.2367C152.342 50.2367 153.064 51.7971 153.064 54.8761V59.9543C153.064 62.6084 153.665 64.6982 154.845 66.175C156.061 67.6867 157.813 68.4599 160.058 68.4599C162.311 68.4599 164.048 67.6449 165.235 66.0287C165.6 65.5272 165.915 64.9699 166.165 64.3638C166.551 64.9281 167.002 65.4297 167.517 65.8755C169.512 67.5752 172.265 68.439 175.705 68.439ZM187.697 43.8836C187.718 40.1707 187.804 37.7117 187.954 36.5693C188.097 35.5035 188.369 35.0298 188.584 35.0298C189.513 35.0298 189.649 36.9594 189.649 38.1088C189.649 39.9687 188.991 41.9053 187.697 43.8836ZM234.773 46.67C234.787 41.334 234.923 37.9764 235.166 36.6877C235.359 35.4826 235.531 35.2248 235.566 35.19C235.624 35.1203 235.731 35.0367 235.974 35.0367C237.04 35.0367 237.576 36.2628 237.576 38.68C237.576 42.2257 236.632 44.9076 234.773 46.67ZM248.632 51.5533C249.039 51.0796 249.468 50.7661 249.904 50.6268C250.384 50.4735 251.049 50.3899 251.892 50.3899C252.636 50.3899 253.308 50.7382 253.93 51.4627C254.567 52.2011 254.896 53.1973 254.896 54.4233V60.3653C254.896 61.9745 254.424 63.2423 253.459 64.2385C252.515 65.2067 251.664 65.7013 250.927 65.7013C250.14 65.7013 249.518 65.562 249.075 65.2834C248.782 65.1022 248.338 64.5868 247.874 63.1587C247.473 61.9466 247.273 60.1982 247.273 57.9829C247.273 53.8451 247.995 52.2081 248.603 51.5672L248.61 51.5602L248.632 51.5533Z" fill="white"/>
<path d="M154.416 95.2582C153.522 95.2582 153.272 95.6344 153.222 95.9548L153.214 95.9966V96.0384C153.214 99.2567 152.743 101.472 151.813 102.614C151.062 103.52 150.304 103.98 149.56 103.98C148.824 103.98 148.273 103.659 147.83 102.97C147.351 102.217 147.107 101.054 147.107 99.5145V87.0592V86.8432L146.95 86.69C146.435 86.1884 145.734 85.9307 144.876 85.9307C144.032 85.9307 143.296 86.2023 142.688 86.7387C142.073 87.289 141.758 88.0832 141.758 89.1002V95.7389C141.758 98.4556 141.244 100.573 140.228 102.043C139.241 103.464 138.197 104.154 137.039 104.154C135.623 104.154 134.901 102.593 134.901 99.5145V87.0592V86.8432L134.743 86.69C134.228 86.1884 133.542 85.9307 132.719 85.9307C131.89 85.9307 131.189 86.2093 130.646 86.7596C130.102 87.3099 129.823 88.0901 129.823 89.0932V95.6692C129.78 95.7319 129.745 95.8016 129.716 95.8712L129.687 95.9479V96.0315C129.687 98.8945 129.28 100.977 128.479 102.217C127.714 103.395 126.541 103.973 124.882 103.973C123.795 103.973 122.858 103.597 122.021 102.816C121.192 102.043 120.784 100.963 120.784 99.5075V89.0932H127.864H128.4V88.5708C128.4 87.8951 128.264 87.4005 127.993 87.0731C127.685 86.7108 127.149 86.5297 126.355 86.5297H120.791V80.6295V80.4135L120.634 80.2603C120.119 79.7587 119.433 79.501 118.61 79.501C117.781 79.501 117.08 79.7796 116.536 80.3299C115.993 80.8803 115.714 81.6605 115.714 82.6636V98.595C115.714 101.256 116.508 103.297 118.074 104.669C119.626 106.028 121.735 106.71 124.353 106.71C127.013 106.71 129.022 105.868 130.324 104.203C130.46 104.035 130.588 103.854 130.71 103.666C130.975 104.14 131.304 104.558 131.683 104.927C132.913 106.104 134.536 106.703 136.51 106.703C139.399 106.703 141.522 105.568 142.845 103.318C144.032 105.568 146.106 106.703 149.024 106.703C151.155 106.703 152.843 105.888 154.023 104.272C155.167 102.712 155.746 100.629 155.746 98.0655C155.753 97.3062 155.753 95.2582 154.416 95.2582Z" fill="white"/>
<path d="M287.183 88.6474C285.424 86.8432 283.128 85.9236 280.361 85.9236C277.586 85.9236 275.312 86.8501 273.596 88.6752C272.044 90.3262 271.186 92.6111 271.057 95.4671C270.879 95.5856 270.786 95.7388 270.743 95.8712L270.714 95.9478V96.0314C270.714 98.8944 270.307 100.977 269.506 102.217C268.74 103.395 267.568 103.973 265.909 103.973C264.822 103.973 263.885 103.597 263.048 102.816C262.219 102.043 261.811 100.963 261.811 99.5075V89.0932H268.891H269.427V88.5707C269.427 87.895 269.291 87.4004 269.019 87.073C268.712 86.7108 268.175 86.5297 267.382 86.5297H261.818V80.6294V80.4135L261.661 80.2602C261.146 79.7587 260.459 79.5009 259.637 79.5009C258.808 79.5009 258.107 79.7796 257.563 80.3299C257.02 80.8802 256.741 81.6604 256.741 82.6635V95.7179C256.691 95.8015 256.669 95.8781 256.662 95.9478L256.655 95.9896V96.0314C256.655 98.985 256.276 101.096 255.532 102.294C254.832 103.422 254.066 103.973 253.208 103.973C252.343 103.973 251.714 103.638 251.277 102.963C250.798 102.21 250.555 101.047 250.555 99.5075V93.3495C250.555 90.9949 249.926 89.1559 248.696 87.8741C247.452 86.5854 245.771 85.9306 243.697 85.9306C241.352 85.9306 239.5 86.7038 238.162 88.2364C237.748 86.3695 236.518 85.9306 235.452 85.9306C234.444 85.9306 233.729 86.2092 233.321 86.7596L233.221 86.8989V87.0661V96.2543C233.171 96.3379 233.149 96.4145 233.142 96.4842L233.135 96.526V96.5678C233.135 99.0129 232.449 100.873 231.097 102.113C229.717 103.374 228.222 103.987 226.52 103.987C224.833 103.987 223.467 103.555 222.459 102.705C221.565 101.953 220.971 100.852 220.671 99.4239C223.381 99.3263 225.669 98.567 227.471 97.1738C229.452 95.6413 230.461 93.6908 230.461 91.3641C230.461 89.9082 229.981 88.6334 229.038 87.5746C228.072 86.4879 226.556 85.9376 224.532 85.9376C221.801 85.9376 219.527 86.8919 217.767 88.7727C216.166 90.4864 215.293 92.834 215.164 95.7597C215.136 95.8224 215.114 95.8921 215.1 95.9548L215.093 95.9965V96.0383C215.093 98.776 214.592 100.817 213.598 102.106C212.626 103.367 211.424 103.98 209.93 103.98C209.007 103.98 208.149 103.806 207.37 103.464C209.629 100.531 210.781 96.3658 210.781 91.0507C210.781 89.3927 210.309 88.0344 209.379 87.0173C208.428 85.9794 207.162 85.4569 205.618 85.4569C203.401 85.4569 201.799 86.2859 200.855 87.9159C199.968 89.4485 199.518 91.7194 199.518 94.6591C199.518 96.3309 199.84 98.0794 200.483 99.8627C201.048 101.444 201.878 102.809 202.943 103.931C202.607 104.084 202.235 104.161 201.835 104.161C198.745 104.161 197.251 101.576 197.251 96.2613V87.0661V86.8501L197.094 86.6969C196.579 86.1953 195.892 85.9376 195.07 85.9376C194.24 85.9376 193.539 86.2162 192.996 86.7665C192.453 87.3168 192.181 88.104 192.181 89.1002V96.0453C192.181 96.6514 192.217 97.2574 192.288 97.8983C191.795 99.7791 190.822 101.402 189.385 102.74C187.196 104.774 184.622 105.805 181.74 105.805C178.83 105.805 176.527 105.178 174.897 103.938C173.28 102.712 172.501 100.908 172.501 98.4068C172.501 95.9269 173.409 94.1436 175.283 92.9663C177.206 91.7542 179.731 91.1412 182.784 91.1412C183.971 91.1412 184.658 90.5421 184.658 89.4903C184.658 88.9399 184.429 88.5011 184 88.2155C183.628 87.9647 183.22 87.8393 182.784 87.8393C177.121 87.8393 174.367 85.8958 174.367 81.8972C174.367 79.9816 174.918 78.5884 176.055 77.627C177.199 76.6588 178.694 76.1711 180.517 76.1711C182.362 76.1711 183.864 76.5334 184.987 77.2578C186.052 77.9405 186.574 78.9506 186.574 80.3369C186.574 80.9011 186.496 81.3818 186.345 81.751L186.238 82.0087L186.396 82.2386C186.739 82.7401 187.382 82.9909 188.312 82.9909C188.906 82.9909 189.478 82.7193 190.028 82.1898C190.579 81.6604 190.851 80.9499 190.851 80.0861C190.851 78.1356 189.95 76.4428 188.176 75.0566C186.438 73.6982 183.85 73.0085 180.489 73.0085C177.135 73.0085 174.396 73.7679 172.351 75.2586C170.256 76.7842 169.197 79.0203 169.197 81.9042C169.197 83.2347 169.412 84.4399 169.834 85.4778C170.263 86.5227 170.77 87.3308 171.357 87.8672C172.022 88.5289 172.766 89.0514 173.574 89.4345C173.037 89.6017 172.487 89.8316 171.929 90.1172C171.106 90.5491 170.363 91.0924 169.719 91.7333C169.061 92.3881 168.489 93.3077 168.024 94.464C167.56 95.6204 167.316 96.9509 167.316 98.4277C167.316 101.778 168.704 104.419 171.443 106.278C174.117 108.097 177.485 109.016 181.44 109.016C183.642 109.016 185.68 108.619 187.49 107.846C189.306 107.066 190.793 106.028 191.909 104.76C192.574 104.008 193.153 103.206 193.625 102.377C193.933 102.914 194.283 103.401 194.684 103.854C196.371 105.756 198.595 106.724 201.306 106.724C202.636 106.724 203.909 106.348 205.103 105.61C206.369 106.348 207.863 106.724 209.551 106.724C212.268 106.724 214.328 105.854 215.679 104.133C216.08 103.624 216.423 103.06 216.702 102.461C217.109 103.088 217.603 103.652 218.168 104.14C220.149 105.854 222.787 106.724 226.027 106.724C229.202 106.724 231.633 105.826 233.264 104.049C233.342 104.823 233.607 105.436 234.058 105.895C234.608 106.446 235.331 106.724 236.224 106.724C237.147 106.724 237.819 106.446 238.22 105.895L238.32 105.756V105.589V98.17C238.32 94.6103 238.799 92.0677 239.75 90.5979C240.665 89.1837 241.781 88.5011 243.175 88.5011C244.591 88.5011 245.313 90.0615 245.313 93.1405V98.2187C245.313 100.873 245.914 102.963 247.094 104.439C248.31 105.951 250.062 106.724 252.307 106.724C254.56 106.724 256.298 105.909 257.485 104.293C257.685 104.021 257.864 103.736 258.028 103.429C258.336 103.903 258.7 104.321 259.115 104.683C260.667 106.042 262.776 106.724 265.394 106.724C268.054 106.724 270.063 105.881 271.365 104.217C271.83 103.631 272.209 102.97 272.502 102.259C272.867 102.872 273.303 103.436 273.803 103.938C275.634 105.784 277.958 106.724 280.711 106.724C283.486 106.724 285.731 105.679 287.39 103.617C289.021 101.597 289.843 99.0268 289.843 95.9826C289.822 92.9106 288.935 90.4516 287.183 88.6474ZM276.328 95.7249C277.043 96.7419 277.944 97.6893 279.038 98.567C280.568 99.8 282.263 100.657 284.072 101.117C283.844 102.085 283.493 102.795 283.014 103.234C282.478 103.729 281.684 103.98 280.647 103.98C279.117 103.98 278.051 103.443 277.393 102.329C276.685 101.144 276.328 99.0965 276.328 96.2543C276.328 96.0662 276.328 95.8921 276.328 95.7249ZM277.972 90.3959C277.972 89.8386 278.173 89.4485 278.609 89.1559C279.102 88.8215 279.682 88.6613 280.375 88.6613C281.984 88.6613 283.043 89.1628 283.6 90.1869C284.208 91.3084 284.516 93.3495 284.516 96.2543C284.516 96.8534 284.494 97.5639 284.459 98.379C282.792 97.8077 281.312 96.7977 280.068 95.3766C278.68 93.7883 277.972 92.1095 277.972 90.3959ZM221.293 90.3471C221.822 89.1977 222.616 88.6613 223.81 88.6613C224.568 88.6613 225.133 88.8912 225.533 89.3649C225.955 89.8595 226.17 90.6188 226.17 91.6149C226.17 93.2101 225.584 94.3735 224.375 95.1746C223.252 95.9199 221.922 96.4284 220.42 96.6932C220.442 93.7117 220.735 91.5731 221.293 90.3471ZM204.924 88.8354C205.954 88.8354 206.168 90.6536 206.168 92.1792C206.168 96.3379 205.739 99.4587 204.888 101.486C203.522 99.6537 202.829 97.1111 202.829 93.9137C202.836 90.5421 203.537 88.8354 204.924 88.8354Z" fill="white"/>
<path d="M86.1514 88.452C85.3433 89.0163 84.4923 89.2253 83.4983 88.9397C75.9539 86.7663 68.4095 84.6137 60.8651 82.4542C60.7149 82.4124 60.5647 82.3706 60.4289 82.301C60.0069 82.1059 59.8568 81.7646 59.9998 81.3466C60.1357 80.9426 60.4718 80.7894 60.8937 80.8521C61.0796 80.8799 61.2584 80.9357 61.4372 80.9914C67.1294 82.6145 72.8146 84.2445 78.5068 85.8676C78.6928 85.9234 78.9359 85.9791 79.1004 85.9094C80.4662 85.373 81.8178 84.8088 83.2266 84.2306C82.7832 83.7221 82.3541 83.2693 81.968 82.7816C81.7463 82.496 81.5532 82.4821 81.2314 82.6145C79.8941 83.1857 78.5497 83.7221 77.2053 84.2794C76.4259 84.5998 75.9539 84.5092 75.7465 84.0077C75.5463 83.5201 75.7966 83.1509 76.5546 82.8444C77.6487 82.3985 78.7357 81.9527 79.8298 81.4999C80.0586 81.4024 80.2875 81.3049 80.5592 81.1864C80.123 80.6779 79.7082 80.2321 79.3364 79.7654C79.129 79.5076 78.9502 79.4379 78.6069 79.5842C77.2411 80.1694 75.8609 80.7197 74.4879 81.2839C74.3807 81.3327 74.2662 81.3815 74.1518 81.4163C73.6584 81.5765 73.2436 81.4233 73.0648 81.0332C72.8789 80.6291 73.0577 80.1833 73.5511 79.9743C74.7811 79.4519 76.0183 78.9573 77.2482 78.4488C77.4628 78.3582 77.6773 78.2676 77.9133 78.1701C77.4699 77.6616 77.048 77.2227 76.6833 76.7351C76.4473 76.4147 76.2256 76.4426 75.9038 76.5749C74.5523 77.1461 73.1864 77.6964 71.8277 78.2537C71.699 78.3025 71.5774 78.3652 71.4487 78.407C70.9624 78.5672 70.5405 78.4139 70.3617 78.0169C70.1758 77.6059 70.3546 77.174 70.848 76.958C72.0422 76.4495 73.2508 75.9688 74.4522 75.4743C74.7096 75.3698 74.967 75.2583 75.2602 75.1399C74.8598 74.6801 74.4808 74.29 74.159 73.8581C73.8944 73.4959 73.6441 73.5029 73.2651 73.67C71.7562 74.3179 70.233 74.9309 68.717 75.5439C68.1806 75.7599 67.723 75.6066 67.5442 75.1817C67.3583 74.7428 67.5514 74.3527 68.0948 74.1089C68.2522 74.0393 68.4095 73.9766 68.5668 73.9139C69.9255 73.3566 71.2842 72.7993 72.693 72.2141C72.2139 71.6569 71.7491 71.1483 71.32 70.6119C71.0912 70.3263 70.8981 70.2776 70.5477 70.4239C69.1961 71.002 67.8302 71.5524 66.4715 72.1097C65.7278 72.4162 65.2702 72.3256 65.0628 71.831C64.8554 71.3503 65.12 70.9602 65.8637 70.6607C67.1867 70.1174 68.5168 69.567 69.8898 69.0098C69.2033 68.2296 68.5525 67.4842 67.8517 66.6901C67.7087 66.906 67.5943 67.0732 67.487 67.2404C64.5121 71.7195 61.5373 76.1987 58.5553 80.6709C58.4552 80.8242 58.355 80.9844 58.2406 81.1307C57.075 82.6632 54.851 82.5936 53.8427 80.9565C53.571 80.5177 53.4923 79.9743 53.3135 79.4379C52.4268 79.431 51.5973 79.1175 50.9036 78.4766C50.2028 77.8218 49.8881 76.9859 49.8452 76.0525C47.2923 76.6028 45.0969 74.6383 45.4831 71.9912C44.3174 71.9285 43.3806 71.3921 42.6655 70.5353C40.9564 68.5012 40.3414 66.0631 40.1198 63.5135C40.0625 62.8587 40.6847 62.3711 41.3426 62.4895C41.8289 62.5801 42.308 62.7333 42.7728 62.9005C43.159 63.0398 43.3163 63.3742 43.2376 63.7573C43.1518 64.1614 42.8658 64.3912 42.4224 64.3704C42.2293 64.3634 42.0362 64.3286 41.8003 64.2937C41.8789 64.7047 41.9361 65.067 42.0148 65.4292C42.3366 66.8294 42.7871 68.1738 43.7096 69.3163C44.7108 70.5632 45.7191 70.7095 47.0492 69.8317C50.5532 67.519 54.0572 65.2063 57.5613 62.8935C57.7114 62.796 57.8473 62.6846 58.0189 62.5661C56.8819 61.6048 55.6233 61.5003 54.3361 61.8765C52.9417 62.2875 51.6044 62.8796 50.2171 63.3115C48.7654 63.7643 47.2923 64.1405 45.8192 64.5097C45.2399 64.656 44.8466 64.3773 44.768 63.9036C44.6893 63.4508 44.9825 63.0607 45.5546 62.9841C47.3281 62.7542 48.9657 62.1133 50.6176 61.4934C51.7689 61.0615 52.9274 60.6226 54.1144 60.3231C55.9666 59.8563 57.69 60.135 59.1417 61.4585C59.3776 61.6745 59.5493 61.5909 59.7781 61.4725C61.2727 60.6853 62.9389 60.9988 64.0473 62.2666C64.1403 62.3781 64.2476 62.4756 64.3477 62.5801C64.4192 62.5313 64.4692 62.5034 64.505 62.4756C65.4561 61.772 66.5216 61.7024 67.5299 62.2875C68.481 62.8378 68.9244 63.8131 68.7742 64.9485C68.7527 65.1366 68.8529 65.3944 68.9887 65.5476C74.588 71.9494 80.1873 78.3582 85.8153 84.7391C86.5733 85.5959 86.9737 86.4806 86.7091 87.6022C86.5232 87.8947 86.3373 88.1734 86.1514 88.452ZM55.8021 72.2629C54.615 73.057 53.4279 73.8442 52.248 74.6453C51.5543 75.119 51.2969 75.9828 51.5973 76.7351C51.9048 77.5014 52.7414 77.9751 53.5781 77.8497C54 77.787 54.3433 77.6198 54.5793 77.2367C55.0512 76.4774 55.559 75.7459 56.0595 75.0006C56.3956 74.506 56.8104 74.3806 57.2252 74.6174C57.6614 74.8752 57.7329 75.314 57.3968 75.8365C56.7174 76.8814 56.0166 77.9124 55.3301 78.9503C54.9583 79.5146 54.9726 79.9325 55.3373 80.3226C55.8164 80.8312 56.5029 80.7615 56.8819 80.1833C60.2429 75.119 63.6111 70.0547 66.9793 64.9903C67.2868 64.5236 67.251 64.0917 66.8434 63.7504C66.4215 63.3951 65.8494 63.4021 65.4561 63.7991C65.3059 63.9524 65.1772 64.1335 65.0556 64.3146C63.2464 67.0314 61.4372 69.7551 59.6279 72.4789C59.5421 72.6042 59.4635 72.7366 59.3705 72.855C59.0416 73.2939 58.6196 73.4053 58.2263 73.1615C57.833 72.9107 57.7472 72.4719 58.0404 72.0191C58.4695 71.3573 58.9128 70.7025 59.349 70.0477C59.3204 70.0198 59.2918 69.992 59.2632 69.9641C58.1119 70.7164 56.9534 71.4897 55.8021 72.2629ZM62.7744 64.8789C62.9746 64.5166 63.3966 64.238 63.1105 63.7155C62.7959 63.1513 62.3668 62.7612 61.7089 62.6428C61.1297 62.5383 60.6434 62.7612 60.1714 63.0747C57.0964 65.1366 54.0072 67.1916 50.9322 69.2466C49.8881 69.9432 48.8298 70.6329 47.8 71.3504C47.1493 71.8101 46.9133 72.5624 47.1421 73.2591C47.3853 74.0114 48.0861 74.5896 48.8441 74.5547C49.2302 74.5408 49.6665 74.4154 49.9883 74.1995C53.8713 71.629 57.7472 69.0446 61.5945 66.4323C61.995 66.1606 62.2381 65.6661 62.5527 65.276C62.5384 65.269 62.5313 65.255 62.517 65.2481C62.6099 65.1366 62.7029 65.0112 62.7744 64.8789ZM84.1848 87.4768C84.5495 87.5743 84.9285 87.5046 85.0501 87.1424C85.1431 86.8847 85.1216 86.5015 84.9857 86.2717C84.4637 85.4218 84.4422 85.4357 83.5126 85.8189C82.8833 86.0766 82.254 86.3413 81.6247 86.5991C81.5961 86.613 81.5675 86.6409 81.4674 86.7105C82.4113 86.9892 83.2981 87.2399 84.1848 87.4768Z" fill="white"/>
<path d="M42.8157 97.8285C38.2676 98.7689 35.2642 103.29 36.2796 107.665C37.3094 112.081 41.8074 114.909 46.3269 113.983C50.875 113.049 53.8785 108.535 52.863 104.147C51.8333 99.7233 47.3352 96.895 42.8157 97.8285ZM45.7477 111.224C42.7371 111.858 39.6836 109.929 39.0829 107.01C38.4822 104.084 40.4058 101.214 43.3878 100.58C46.4127 99.9462 49.4448 101.862 50.0527 104.795C50.6533 107.72 48.7368 110.597 45.7477 111.224Z" fill="white"/>
<path d="M97.3572 48.9685C97.1641 48.0908 96.8781 47.2758 96.5205 46.5443C94.4539 42.3856 89.9987 40.3376 85.1646 41.3337C80.3519 42.3229 58.963 46.7882 58.963 46.7882L54.4506 26.2383L51.1683 26.921L55.6806 47.4708C55.6806 47.4708 35.0068 51.7689 29.7793 52.8835C29.1357 53.0228 28.5064 53.2457 27.8915 53.4686C27.4409 53.6288 26.969 53.803 26.497 53.9284C26.1752 54.012 25.7104 54.0189 25.4386 53.8587C24.3088 53.1969 23.186 52.4794 22.0991 51.7828C21.6771 51.5111 21.2552 51.2464 20.8333 50.9817C18.452 49.484 16.1064 48.9058 13.8682 49.2542C10.1782 49.8254 6.43816 50.6892 3.13436 51.4485C2.54081 51.5878 1.89006 52.0266 1.19641 52.772C-0.155149 54.214 -0.383987 56.3665 0.624318 58.1219C1.65408 59.9052 3.64208 60.8108 5.7016 60.4207C8.24024 59.9471 10.786 59.3967 13.2532 58.8743L13.7966 58.7558C13.8038 58.7558 13.8038 58.7558 13.8109 58.7558C14.6119 58.5887 15.2841 58.714 15.9348 59.139C17.0861 59.9052 18.4305 60.783 19.825 61.5841C20.7118 62.0926 21.3768 62.5663 21.291 63.6948C21.2552 64.1197 21.3696 64.5446 21.4841 64.9556C21.5198 65.1019 21.5627 65.2552 21.5985 65.4015L22.9858 71.7127C24.4089 78.1981 27.8414 93.823 29.2716 100.434C29.3145 100.636 29.3431 100.859 29.3503 101.096C28.4993 103.673 28.3491 106.432 28.9355 109.072C29.7579 112.819 31.9747 116.121 35.1641 118.371C38.3321 120.608 42.208 121.625 46.0552 121.241L46.2769 121.248L46.6559 121.172C47.5355 121.053 48.1076 120.935 48.9443 120.698L49.5164 120.58L49.5378 120.573C49.7023 120.503 49.8668 120.426 50.0241 120.357L50.0527 120.343C53.571 119.068 56.5245 116.595 58.3694 113.384C60.2001 110.193 60.8151 106.473 60.1072 102.893L93.2596 95.9825C93.3025 96.1845 93.3526 96.3795 93.3955 96.5816C93.5528 97.2642 93.703 97.9121 93.796 98.5739C91.0714 99.8974 89.6126 102.83 90.249 105.742C91.0213 109.246 94.5683 111.482 98.1653 110.737C101.762 109.984 104.058 106.529 103.293 103.025C102.649 100.106 100.089 98.0096 97.0354 97.8981C96.8638 97.2294 96.7136 96.5607 96.5634 95.8501C96.5205 95.6481 96.4776 95.4531 96.4347 95.2511C96.6421 95.2093 96.8352 95.1674 97.0283 95.1326L97.064 95.1256C97.6147 95.0212 98.1367 94.9167 98.6444 94.7773L98.9233 94.7007C99.6384 94.5126 100.368 94.3106 101.033 93.9832C104.601 92.1929 106.153 88.8841 105.288 84.9134C103.114 75.1052 99.2094 57.3487 97.3572 48.9685ZM20.6188 58.3727C19.6963 57.7945 18.738 57.1955 17.8299 56.5685C16.371 55.5654 14.7763 55.2728 12.9457 55.6908C11.2866 56.067 9.59895 56.4152 7.96135 56.7496L7.93274 56.7566C7.26054 56.8959 6.58118 57.0352 5.90898 57.1746L5.73735 57.2094C5.52282 57.2512 5.29399 57.2999 5.07945 57.3208C4.18557 57.4184 3.42755 56.9098 3.27023 56.1157C3.1129 55.3007 3.59917 54.5344 4.37149 54.3672C7.3821 53.7194 10.7932 52.981 14.147 52.4098C15.5487 52.166 16.9789 52.4516 18.1731 53.2109C19.3888 53.9771 20.5258 54.7991 21.7344 55.6629C22.2063 55.9973 22.6783 56.3386 23.1503 56.673L21.7344 59.0763C21.3697 58.8464 20.9978 58.6165 20.6188 58.3727ZM47.0278 117.542C40.3987 118.922 33.8555 114.798 32.4396 108.34C31.0236 101.883 35.2571 95.5088 41.8862 94.1295C48.5152 92.7502 55.0585 96.8741 56.4744 103.332C57.8975 109.782 53.6569 116.163 47.0278 117.542ZM99.6956 103.778C100.046 105.366 99.002 106.933 97.3715 107.268C95.7411 107.609 94.1321 106.592 93.7888 105.004C93.4384 103.415 94.4825 101.848 96.1129 101.514C97.7362 101.179 99.3452 102.189 99.6956 103.778ZM102.106 85.6797C102.749 88.6611 101.212 91.0017 98.1939 91.6426C90.6352 93.2378 75.1316 96.4631 67.6945 98.0096L67.3941 98.0723C64.7411 98.6226 62.0952 99.1729 59.4421 99.7233C59.342 99.7441 59.2419 99.7581 59.1275 99.772L59.0845 99.779C56.1097 92.9592 48.5724 89.1418 41.1281 90.6952C37.3881 91.4754 34.0772 93.5304 31.7745 96.5049L28.1417 79.9675L27.3051 76.4009L26.6186 73.301C25.9607 70.3265 25.2813 67.2475 24.6306 64.2172C23.9083 60.8248 25.2312 58.0523 28.2705 56.6103C28.8783 56.3247 29.572 56.1575 30.237 56.0182C48.0433 52.2983 71.413 47.429 85.6223 44.4754C89.9987 43.5629 93.3026 45.6527 94.2465 49.9159C95.2333 54.3324 101.369 82.2663 102.106 85.6797Z" fill="white"/>
<path d="M91.572 13.4068C91.1429 12.9888 90.7138 12.543 90.2991 12.1041C89.6126 11.3797 88.9046 10.6273 88.1108 9.98647C87.9464 9.85412 87.7819 9.72873 87.6174 9.59637C82.5616 5.27045 76.4546 2.4074 69.375 1.04205C68.5526 0.860935 67.7302 0.707682 66.9007 0.596225C52.8559 -1.29854 39.6192 1.32766 27.5625 8.40517C18.3161 13.8317 12.2305 21.3551 9.49168 30.7523C9.13412 31.9853 9.12697 33.4133 9.49168 34.4791C10.3641 37.0775 12.7669 38.1712 16.0778 37.4815C24.2444 35.7888 80.8024 23.9395 88.5184 22.4418L88.6186 22.4209C89.6769 22.198 90.6137 21.7661 91.3646 21.174C92.4873 20.4007 93.1452 19.328 93.2668 18.0323C93.5314 16.3952 92.9235 14.7095 91.572 13.4068ZM32.2036 30.0209L32.132 30.0348C29.8365 30.4806 27.3837 30.9822 24.1729 31.6509C22.9715 31.9017 21.7701 32.1525 20.583 32.4032L19.918 32.5426C18.3733 32.87 16.8287 33.1904 15.2841 33.5109C14.3115 33.7129 13.7108 33.678 13.4534 33.4064C13.4248 33.3715 13.3962 33.3367 13.3747 33.2949C13.3676 33.281 13.3676 33.267 13.3604 33.2531C13.3461 33.2183 13.3318 33.1904 13.3175 33.1556C13.3104 33.1208 13.3032 33.079 13.2961 33.0372C13.2889 33.0163 13.2889 32.9884 13.2818 32.9675C13.2818 32.9605 13.2818 32.9536 13.2818 32.9536C13.2532 32.6331 13.3247 32.1873 13.5034 31.6022C15.9992 23.5146 21.2981 16.9804 29.2573 12.1668C31.4169 10.8572 33.7911 9.80535 36.1152 8.76741C37.0663 8.34248 38.046 7.91058 39.0043 7.45779C39.2832 7.32543 39.6049 7.24881 39.9697 7.15128C39.9983 7.14431 40.0197 7.13735 40.0483 7.13038C39.7909 7.60407 39.5334 8.06384 39.276 8.52359C38.5537 9.81928 37.8744 11.0383 37.2594 12.3131C34.6778 17.6422 33.3978 23.0757 33.4407 28.4674C33.4407 29.4984 33.1904 29.8188 32.2036 30.0209ZM37.4954 28.8366C37.8386 19.4673 40.9208 11.8116 46.9134 5.43066C54.9941 8.80224 61.0296 14.5632 65.3632 23.0339L37.4954 28.8366ZM89.1764 17.6352C89.0548 17.9835 88.5256 18.2482 87.5602 18.4502C85.8726 18.8055 84.192 19.1538 82.5115 19.5021C78.7715 20.2753 74.5309 21.16 70.4762 22.0378L70.4905 22.1144C70.4834 22.1144 70.4834 22.1144 70.4762 22.1144L70.4405 22.0447C70.0257 22.1283 69.754 22.1213 69.5394 21.996L69.5323 21.989C69.3249 21.8636 69.1747 21.6268 69.0103 21.2645C66.6218 16.0469 63.0248 11.4563 58.3194 7.60408C57.2825 6.75422 56.2026 5.96009 55.0585 5.12416L54.9941 5.0754C54.6294 4.80372 54.2575 4.53205 53.8785 4.25341L54.0073 4.23947C54.4363 4.19071 54.801 4.14891 55.1729 4.12801C55.5304 4.10711 55.888 4.08621 56.2456 4.07228C56.9178 4.07925 57.5971 4.08621 58.255 4.09318C60.0785 4.10711 61.945 4.12105 63.79 4.25341C66.7791 4.54598 69.6539 5.10326 72.4571 5.94616C72.7288 6.02975 72.9934 6.07851 73.2509 6.09245C75.6679 6.86568 77.9348 7.85485 80.0516 9.06695C80.1588 9.1784 80.2732 9.28289 80.402 9.38042C80.6236 9.5476 80.8668 9.70087 81.1028 9.84715L81.2386 9.93074C83.9131 11.6026 86.3159 13.6437 88.3826 16.0051C89.0405 16.7505 89.2979 17.2869 89.1764 17.6352Z" fill="white"/>
</svg>
